<svg width="89" height="64" viewBox="0 0 89 64" fill="none" xmlns="http://www.w3.org/2000/svg">
<g clip-path="url(#clip0_436_3984)">
<rect x="0.518555" width="88.3038" height="64" rx="4.86076" fill="url(#paint0_linear_436_3984)"/>
<path d="M12.7839 24C12.3302 24 11.9575 23.8623 11.6659 23.5868C11.3742 23.2952 11.2284 22.9387 11.2284 22.5175L11.2284 10.2684L11.5687 10.803L9.7945 12.1154C9.56766 12.2937 9.28412 12.3828 8.94387 12.3828C8.55501 12.3828 8.21475 12.237 7.92311 11.9453C7.63146 11.6537 7.48564 11.3053 7.48564 10.9003C7.48564 10.3818 7.73678 9.96051 8.23906 9.63646L11.7388 7.30329C11.9008 7.18988 12.0791 7.10886 12.2735 7.06026C12.4841 7.01165 12.6786 6.98734 12.8568 6.98734C13.3267 6.98734 13.6993 7.13317 13.9748 7.42481C14.2502 7.70026 14.3879 8.04861 14.3879 8.46988L14.3879 22.5175C14.3879 22.9387 14.234 23.2952 13.9261 23.5868C13.6345 23.8623 13.2537 24 12.7839 24ZM23.907 24.243C22.5136 24.243 21.3308 23.8785 20.3587 23.1494C19.4027 22.4041 18.6736 21.3752 18.1713 20.0628C17.6691 18.7342 17.4179 17.2111 17.4179 15.4937C17.4179 13.76 17.6691 12.237 18.1713 10.9246C18.6736 9.61216 19.4027 8.5914 20.3587 7.86228C21.3308 7.11697 22.5136 6.74431 23.907 6.74431C25.3004 6.74431 26.4751 7.11697 27.4311 7.86229C28.4032 8.5914 29.1404 9.61216 29.6427 10.9246C30.145 12.237 30.3961 13.76 30.3961 15.4937C30.3961 17.2111 30.145 18.7342 29.6427 20.0628C29.1404 21.3752 28.4032 22.4041 27.4311 23.1494C26.4751 23.8785 25.3004 24.243 23.907 24.243ZM23.907 21.3266C24.5875 21.3266 25.1708 21.116 25.6569 20.6947C26.1592 20.2572 26.548 19.6091 26.8235 18.7504C27.0989 17.8755 27.2366 16.7899 27.2366 15.4937C27.2366 14.1813 27.0989 13.0957 26.8235 12.237C26.548 11.3782 26.1592 10.7382 25.6569 10.317C25.1708 9.8795 24.5875 9.66077 23.907 9.66077C23.2427 9.66077 22.6594 9.8795 22.1572 10.317C21.6549 10.7382 21.266 11.3782 20.9906 12.237C20.7151 13.0957 20.5774 14.1813 20.5774 15.4937C20.5774 16.7899 20.7151 17.8754 20.9906 18.7504C21.266 19.6091 21.6549 20.2572 22.1572 20.6947C22.6594 21.116 23.2427 21.3266 23.907 21.3266Z" fill="#303940"/>
<path d="M72.3431 25.943H72.3332C71.9017 25.9435 71.6073 25.5112 71.7764 25.1146C72.4235 23.5982 72.7418 21.9084 72.6402 20.1335C72.3165 14.4845 67.6688 9.93909 62.0102 9.7295C55.7044 9.49576 50.519 14.5346 50.519 20.7835C50.5179 22.2744 50.8204 23.7499 51.4081 25.1202C51.577 25.5144 51.2776 25.9444 50.8486 25.9432H50.8204C44.4228 25.9432 39.2653 31.2492 39.5146 37.6973C39.7394 43.5165 44.4555 48.2706 50.2769 48.5429C53.1272 48.6762 55.757 47.7535 57.8127 46.1347L57.8127 51.5934L55.8744 51.5934C53.7891 51.5934 52.0987 53.2825 52.0987 55.3663C52.0987 57.45 53.7891 59.1392 55.8744 59.1392L67.3019 59.1392C69.3872 59.1392 71.0776 57.45 71.0776 55.3663C71.0776 53.2825 69.3872 51.5934 67.3019 51.5934L65.3636 51.5934L65.3636 46.1451C67.4175 47.7573 70.0424 48.676 72.8866 48.5429C78.708 48.2706 83.4241 43.5165 83.6489 37.6973C83.8982 31.2489 78.7407 25.943 72.3431 25.943Z" fill="#303940"/>
<path d="M72.3431 25.9409H72.3331C71.9017 25.9414 71.6073 25.5091 71.7764 25.1125C72.4235 23.5962 72.7418 21.9063 72.6402 20.1315C72.3164 14.4824 67.6688 9.937 62.0101 9.72741C61.853 9.72242 61.6959 9.72069 61.5387 9.72222L61.5387 59.1369L67.3021 59.1369C69.3874 59.1369 71.0778 57.4477 71.0778 55.364C71.0778 53.2802 69.3874 51.5911 67.3021 51.5911L65.3638 51.5911L65.3638 46.1428C67.4177 47.755 70.0426 48.6737 72.8867 48.5406C78.7082 48.2683 83.4242 43.5142 83.6491 37.695C83.8982 31.2468 78.7407 25.9409 72.3431 25.9409Z" fill="#1E2123"/>
<path d="M17.2601 33.2869L17.2577 33.2869C17.1508 33.287 17.0779 33.1771 17.1198 33.0763C17.28 32.6911 17.3589 32.2617 17.3337 31.8107C17.2535 30.3753 16.1023 29.2203 14.7006 29.167C13.1386 29.1076 11.8542 30.388 11.8542 31.9758C11.8539 32.3547 11.9288 32.7296 12.0744 33.0778C12.1162 33.1779 12.0421 33.2872 11.9358 33.2869L11.9288 33.2869C10.3441 33.2869 9.06656 34.6351 9.12831 36.2736C9.18401 37.7523 10.3522 38.9603 11.7942 39.0294C12.5002 39.0633 13.1517 38.8289 13.6609 38.4175L13.6609 39.8046L13.1807 39.8046C12.6642 39.8046 12.2455 40.2338 12.2455 40.7633C12.2455 41.2927 12.6642 41.7219 13.1807 41.7219L16.0114 41.7219C16.5279 41.7219 16.9467 41.2927 16.9467 40.7633C16.9467 40.2338 16.5279 39.8046 16.0114 39.8046L15.5313 39.8046L15.5313 38.4202C16.04 38.8298 16.6902 39.0633 17.3947 39.0294C18.8368 38.9603 20.0049 37.7523 20.0606 36.2736C20.1224 34.6351 18.8449 33.2869 17.2601 33.2869Z" fill="#303940"/>
<path d="M17.2601 33.2863L17.2576 33.2863C17.1508 33.2864 17.0778 33.1766 17.1197 33.0758C17.28 32.6905 17.3589 32.2611 17.3337 31.8101C17.2535 30.3747 16.1023 29.2198 14.7006 29.1665C14.6617 29.1652 14.6227 29.1648 14.5838 29.1652L14.5838 41.7214L16.0114 41.7214C16.528 41.7214 16.9467 41.2921 16.9467 40.7627C16.9467 40.2332 16.528 39.804 16.0114 39.804L15.5313 39.804L15.5313 38.4196C16.0401 38.8292 16.6903 39.0627 17.3948 39.0289C18.8368 38.9597 20.005 37.7517 20.0607 36.273C20.1224 34.6345 18.8448 33.2863 17.2601 33.2863Z" fill="#1E2123"/>
</g>
<rect x="0.778669" y="0.260114" width="87.7836" height="63.4798" rx="4.60064" stroke="#E0E4F0" stroke-width="0.520228"/>
<defs>
<linearGradient id="paint0_linear_436_3984" x1="96.8243" y1="1.20087" x2="65.2498" y2="89.9452" gradientUnits="userSpaceOnUse">
<stop stop-color="#F1F6F7"/>
<stop offset="1" stop-color="#E3E8E9"/>
</linearGradient>
<clipPath id="clip0_436_3984">
<rect x="0.518555" width="88.3038" height="64" rx="4.86076" fill="white"/>
</clipPath>
</defs>
</svg>
