<svg width="90" height="64" viewBox="0 0 90 64" fill="none" xmlns="http://www.w3.org/2000/svg">
<g clip-path="url(#clip0_436_4013)">
<rect x="0.734131" width="88.3038" height="64" rx="4.86076" fill="url(#paint0_linear_436_4013)"/>
<path d="M12.9994 24C12.5458 24 12.1731 23.8623 11.8815 23.5868C11.5898 23.2952 11.444 22.9387 11.444 22.5175L11.444 10.2684L11.7843 10.803L10.0101 12.1154C9.78325 12.2937 9.4997 12.3828 9.15945 12.3828C8.77059 12.3828 8.43033 12.237 8.13869 11.9453C7.84704 11.6537 7.70122 11.3053 7.70122 10.9003C7.70122 10.3818 7.95236 9.96051 8.45464 9.63646L11.9544 7.30329C12.1164 7.18988 12.2946 7.10886 12.4891 7.06026C12.6997 7.01165 12.8941 6.98734 13.0724 6.98734C13.5422 6.98734 13.9149 7.13317 14.1903 7.42481C14.4658 7.70026 14.6035 8.04861 14.6035 8.46988L14.6035 22.5175C14.6035 22.9387 14.4496 23.2952 14.1417 23.5868C13.8501 23.8623 13.4693 24 12.9994 24ZM24.1226 24.243C22.7292 24.243 21.5464 23.8785 20.5743 23.1494C19.6183 22.4041 18.8892 21.3752 18.3869 20.0628C17.8846 18.7342 17.6335 17.2111 17.6335 15.4937C17.6335 13.76 17.8846 12.237 18.3869 10.9246C18.8892 9.61216 19.6183 8.5914 20.5743 7.86228C21.5464 7.11697 22.7292 6.74431 24.1226 6.74431C25.516 6.74431 26.6907 7.11697 27.6467 7.86229C28.6188 8.5914 29.356 9.61216 29.8583 10.9246C30.3606 12.237 30.6117 13.76 30.6117 15.4937C30.6117 17.2111 30.3606 18.7342 29.8583 20.0628C29.356 21.3752 28.6188 22.4041 27.6467 23.1494C26.6907 23.8785 25.516 24.243 24.1226 24.243ZM24.1226 21.3266C24.8031 21.3266 25.3864 21.116 25.8725 20.6947C26.3748 20.2572 26.7636 19.6091 27.0391 18.7504C27.3145 17.8755 27.4522 16.7899 27.4522 15.4937C27.4522 14.1813 27.3145 13.0957 27.0391 12.237C26.7636 11.3782 26.3748 10.7382 25.8725 10.317C25.3864 9.8795 24.8031 9.66077 24.1226 9.66077C23.4583 9.66077 22.875 9.8795 22.3727 10.317C21.8705 10.7382 21.4816 11.3782 21.2062 12.237C20.9307 13.0957 20.793 14.1813 20.793 15.4937C20.793 16.7899 20.9307 17.8754 21.2062 18.7504C21.4816 19.6091 21.8705 20.2572 22.3727 20.6947C22.875 21.116 23.4583 21.3266 24.1226 21.3266Z" fill="#D3003C"/>
<path d="M83.2447 32.6684L63.9757 10.6825C62.853 9.40146 60.745 9.40146 59.6223 10.6822L40.3503 32.6682C39.9451 33.1304 39.7232 33.7075 39.7215 34.3032C39.7198 34.8989 39.9384 35.4771 40.3409 35.9413L59.6129 58.1681C60.7361 59.4632 62.8621 59.4632 63.9851 58.1679L83.2541 35.9411C83.6564 35.4769 83.8749 34.8988 83.8732 34.3032C83.8715 33.7076 83.6497 33.1306 83.2447 32.6684Z" fill="#FA184B"/>
<path d="M63.9757 10.6813C63.4085 10.0341 62.5899 9.71504 61.7739 9.72178L61.7739 59.1373C62.5946 59.144 63.4178 58.8214 63.9851 58.1669L83.2541 35.9401C83.6564 35.4759 83.875 34.8978 83.8733 34.3021C83.8716 33.7065 83.6497 33.1294 83.2447 32.6673L63.9757 10.6813Z" fill="#D3003C"/>
<path d="M20.1227 34.9958L15.3497 29.4092C15.0716 29.0837 14.5494 29.0837 14.2713 29.4091L9.49749 34.9957C9.39714 35.1132 9.34216 35.2598 9.34174 35.4112C9.34131 35.5625 9.39547 35.7095 9.49517 35.8274L14.269 41.4752C14.5472 41.8043 15.0738 41.8043 15.352 41.4751L20.125 35.8273C20.2247 35.7094 20.2788 35.5625 20.2784 35.4112C20.278 35.2598 20.223 35.1132 20.1227 34.9958Z" fill="#FA184B"/>
<path d="M15.3496 29.4089C15.2091 29.2444 15.0064 29.1634 14.8042 29.1651L14.8042 41.7215C15.0075 41.7232 15.2114 41.6412 15.3519 41.4749L20.125 35.8271C20.2247 35.7092 20.2788 35.5622 20.2784 35.4109C20.278 35.2595 20.223 35.1129 20.1227 34.9955L15.3496 29.4089Z" fill="#D3003C"/>
</g>
<rect x="0.994245" y="0.260114" width="87.7836" height="63.4798" rx="4.60064" stroke="#E0E4F0" stroke-width="0.520228"/>
<defs>
<linearGradient id="paint0_linear_436_4013" x1="97.0398" y1="1.20087" x2="65.4654" y2="89.9452" gradientUnits="userSpaceOnUse">
<stop stop-color="#F1F6F7"/>
<stop offset="1" stop-color="#E3E8E9"/>
</linearGradient>
<clipPath id="clip0_436_4013">
<rect x="0.734131" width="88.3038" height="64" rx="4.86076" fill="white"/>
</clipPath>
</defs>
</svg>
