<svg width="90" height="64" viewBox="0 0 90 64" fill="none" xmlns="http://www.w3.org/2000/svg">
<g clip-path="url(#clip0_436_3987)">
<rect x="0.822266" width="88.3038" height="64" rx="4.86076" fill="url(#paint0_linear_436_3987)"/>
<path d="M13.0876 24C12.6339 24 12.2612 23.8623 11.9696 23.5868C11.678 23.2952 11.5321 22.9387 11.5321 22.5175L11.5321 10.2684L11.8724 10.803L10.0982 12.1154C9.87137 12.2937 9.58783 12.3828 9.24758 12.3828C8.85871 12.3828 8.51846 12.237 8.22682 11.9453C7.93517 11.6537 7.78935 11.3053 7.78935 10.9003C7.78935 10.3818 8.04049 9.96051 8.54277 9.63646L12.0425 7.30329C12.2045 7.18988 12.3828 7.10886 12.5772 7.06026C12.7878 7.01165 12.9823 6.98734 13.1605 6.98734C13.6304 6.98734 14.003 7.13317 14.2785 7.42481C14.5539 7.70026 14.6916 8.04861 14.6916 8.46988L14.6916 22.5175C14.6916 22.9387 14.5377 23.2952 14.2298 23.5868C13.9382 23.8623 13.5574 24 13.0876 24ZM24.2107 24.243C22.8173 24.243 21.6345 23.8785 20.6624 23.1494C19.7064 22.4041 18.9773 21.3752 18.475 20.0628C17.9728 18.7342 17.7216 17.2111 17.7216 15.4937C17.7216 13.76 17.9728 12.237 18.475 10.9246C18.9773 9.61216 19.7064 8.5914 20.6624 7.86228C21.6345 7.11697 22.8173 6.74431 24.2107 6.74431C25.6042 6.74431 26.7788 7.11697 27.7348 7.86229C28.7069 8.5914 29.4442 9.61216 29.9464 10.9246C30.4487 12.237 30.6999 13.76 30.6999 15.4937C30.6998 17.2111 30.4487 18.7342 29.9464 20.0628C29.4442 21.3752 28.7069 22.4041 27.7348 23.1494C26.7788 23.8785 25.6042 24.243 24.2107 24.243ZM24.2107 21.3266C24.8912 21.3266 25.4745 21.116 25.9606 20.6947C26.4629 20.2572 26.8517 19.6091 27.1272 18.7504C27.4026 17.8755 27.5404 16.7899 27.5404 15.4937C27.5404 14.1813 27.4026 13.0957 27.1272 12.237C26.8518 11.3782 26.4629 10.7382 25.9606 10.317C25.4745 9.8795 24.8912 9.66077 24.2107 9.66077C23.5464 9.66077 22.9631 9.8795 22.4609 10.317C21.9586 10.7382 21.5697 11.3782 21.2943 12.237C21.0188 13.0957 20.8811 14.1813 20.8811 15.4937C20.8811 16.7899 21.0188 17.8754 21.2943 18.7504C21.5697 19.6091 21.9586 20.2572 22.4609 20.6947C22.9631 21.116 23.5464 21.3266 24.2107 21.3266Z" fill="#D3003C"/>
<path d="M83.9615 24.1123C83.9615 16.1647 78.8441 9.72173 72.5318 9.72173C68.7495 9.72173 65.3967 12.035 63.3166 15.5989C62.6043 16.819 61.1362 16.819 60.424 15.5989C58.3438 12.035 54.991 9.72173 51.2088 9.72173C44.5827 9.69942 39.8114 16.8195 39.8114 25.1993H39.8096C39.8096 41.6017 53.896 53.9877 59.5605 58.3052C60.2692 58.8456 61.0809 59.1338 61.9092 59.1393C62.7375 59.1448 63.5515 58.8674 64.2647 58.3364C69.9773 54.0911 83.9615 41.7857 83.9615 24.1123Z" fill="#FF5F66"/>
<path d="M72.5318 9.72168C68.7495 9.72168 65.3968 12.035 63.3166 15.5988C62.9638 16.2032 62.4255 16.5074 61.8855 16.513L61.8855 59.1382C62.7216 59.1492 63.5443 58.8721 64.2645 58.3366C69.9775 54.0913 83.9615 41.7859 83.9615 24.1125C83.9615 16.1644 78.8441 9.72168 72.5318 9.72168Z" fill="#FA184B"/>
<path d="M20.3666 32.8216C20.3666 30.8022 19.099 29.1651 17.5354 29.1651C16.5985 29.1651 15.768 29.7529 15.2527 30.6584C15.0763 30.9685 14.7126 30.9685 14.5362 30.6584C14.0209 29.7529 13.1904 29.1651 12.2535 29.1651C10.6122 29.1594 9.43032 30.9686 9.43032 33.0979L9.42987 33.0979C9.42987 37.2657 12.9192 40.4129 14.3223 41.51C14.4978 41.6473 14.6989 41.7205 14.9041 41.7219C15.1093 41.7233 15.3109 41.6528 15.4876 41.5179C16.9026 40.4392 20.3666 37.3124 20.3666 32.8216Z" fill="#FF5F66"/>
<path d="M17.5354 29.165C16.5985 29.165 15.768 29.7528 15.2527 30.6584C15.1653 30.812 15.032 30.8893 14.8982 30.8907L14.8982 41.7216C15.1053 41.7244 15.3091 41.654 15.4875 41.518C16.9027 40.4392 20.3666 37.3125 20.3666 32.8217C20.3666 30.8021 19.099 29.165 17.5354 29.165Z" fill="#FA184B"/>
</g>
<rect x="1.08238" y="0.260114" width="87.7836" height="63.4798" rx="4.60064" stroke="#E0E4F0" stroke-width="0.520228"/>
<defs>
<linearGradient id="paint0_linear_436_3987" x1="97.128" y1="1.20087" x2="65.5535" y2="89.9452" gradientUnits="userSpaceOnUse">
<stop stop-color="#F1F6F7"/>
<stop offset="1" stop-color="#E3E8E9"/>
</linearGradient>
<clipPath id="clip0_436_3987">
<rect x="0.822266" width="88.3038" height="64" rx="4.86076" fill="white"/>
</clipPath>
</defs>
</svg>
