<svg width="89" height="64" viewBox="0 0 89 64" fill="none" xmlns="http://www.w3.org/2000/svg">
<g clip-path="url(#clip0_436_3941)">
<rect x="0.303833" width="88.3038" height="64" rx="4.86076" fill="url(#paint0_linear_436_3941)"/>
<path d="M12.5691 24C12.1155 24 11.7428 23.8623 11.4512 23.5868C11.1595 23.2952 11.0137 22.9387 11.0137 22.5175L11.0137 10.2684L11.354 10.803L9.57978 12.1154C9.35295 12.2937 9.0694 12.3828 8.72915 12.3828C8.34029 12.3828 8.00004 12.237 7.70839 11.9453C7.41675 11.6537 7.27092 11.3053 7.27092 10.9003C7.27092 10.3818 7.52206 9.96051 8.02434 9.63646L11.5241 7.30329C11.6861 7.18988 11.8643 7.10886 12.0588 7.06026C12.2694 7.01165 12.4638 6.98734 12.6421 6.98734C13.1119 6.98734 13.4846 7.13317 13.76 7.42481C14.0355 7.70026 14.1732 8.04861 14.1732 8.46988L14.1732 22.5175C14.1732 22.9387 14.0193 23.2952 13.7114 23.5868C13.4198 23.8623 13.039 24 12.5691 24ZM23.6923 24.243C22.2989 24.243 21.1161 23.8785 20.144 23.1494C19.188 22.4041 18.4589 21.3752 17.9566 20.0628C17.4543 18.7342 17.2032 17.2111 17.2032 15.4937C17.2032 13.76 17.4543 12.237 17.9566 10.9246C18.4589 9.61216 19.188 8.5914 20.144 7.86228C21.1161 7.11697 22.2989 6.74431 23.6923 6.74431C25.0857 6.74431 26.2604 7.11697 27.2164 7.86229C28.1885 8.5914 28.9257 9.61216 29.428 10.9246C29.9303 12.237 30.1814 13.76 30.1814 15.4937C30.1814 17.2111 29.9303 18.7342 29.428 20.0628C28.9257 21.3752 28.1885 22.4041 27.2164 23.1494C26.2604 23.8785 25.0857 24.243 23.6923 24.243ZM23.6923 21.3266C24.3728 21.3266 24.9561 21.116 25.4422 20.6947C25.9445 20.2572 26.3333 19.6091 26.6088 18.7504C26.8842 17.8755 27.0219 16.7899 27.0219 15.4937C27.0219 14.1813 26.8842 13.0957 26.6088 12.237C26.3333 11.3782 25.9445 10.7382 25.4422 10.317C24.9561 9.8795 24.3728 9.66077 23.6923 9.66077C23.028 9.66077 22.4447 9.8795 21.9424 10.317C21.4402 10.7382 21.0513 11.3782 20.7759 12.237C20.5004 13.0957 20.3627 14.1813 20.3627 15.4937C20.3627 16.7899 20.5004 17.8754 20.7759 18.7504C21.0513 19.6091 21.4402 20.2572 21.9424 20.6947C22.4447 21.116 23.028 21.3266 23.6923 21.3266Z" fill="#303940"/>
<path d="M78.4902 24.2259C73.1799 20.0135 68.2082 14.8685 65.0077 11.3374C63.0564 9.18455 59.7035 9.18296 57.75 11.3335C54.5457 14.8612 49.5687 20.0013 44.2544 24.208C41.1253 26.685 39.2932 30.4103 39.2912 34.3586C39.2876 41.3663 45.0649 47.05 52.1954 47.0538C52.33 47.0538 52.4638 47.0511 52.5971 47.0456C54.3587 46.9719 56.0366 46.3591 57.4606 45.3484L57.4606 51.2464L56.775 51.2464C54.6171 51.2464 52.8678 53.0135 52.8678 55.1929C52.8678 57.3726 54.6173 59.1394 56.775 59.1394L65.9605 59.1394C68.1185 59.1394 69.8677 57.3724 69.8677 55.1929C69.8677 53.0132 68.1183 51.2464 65.9605 51.2464L65.2752 51.2464L65.2752 45.361C66.6956 46.3684 68.3692 46.9797 70.1261 47.0547C70.2587 47.0604 70.392 47.0634 70.526 47.0634C77.6565 47.067 83.4395 41.3892 83.4431 34.3816C83.4446 30.4333 81.6164 26.7059 78.4902 24.2259Z" fill="#555F65"/>
<path d="M78.4902 24.2259C73.18 20.0135 68.2082 14.8684 65.0077 11.3373C64.0208 10.2486 62.6754 9.712 61.3338 9.72382L61.3338 59.1393L65.9606 59.1393C68.1186 59.1393 69.8678 57.3723 69.8678 55.1928C69.8678 53.0132 68.1183 51.2464 65.9606 51.2464L65.2753 51.2464L65.2753 45.3609C66.6957 46.3684 68.3692 46.9796 70.1261 47.0547C70.2588 47.0604 70.3921 47.0633 70.5261 47.0633C77.6565 47.067 83.4395 41.3892 83.4431 34.3815C83.4447 30.4332 81.6164 26.7058 78.4902 24.2259Z" fill="#303940"/>
<path d="M18.6213 32.8505C17.3059 31.7801 16.0744 30.4728 15.2816 29.5756C14.7982 29.0286 13.9677 29.0282 13.4838 29.5746C12.6901 30.471 11.4573 31.777 10.1409 32.8459C9.36576 33.4753 8.91194 34.4219 8.91144 35.4251C8.91054 37.2057 10.3416 38.6499 12.1079 38.6509C12.1412 38.6509 12.1744 38.6502 12.2074 38.6488C12.6438 38.6301 13.0594 38.4744 13.4121 38.2176L13.4121 39.7162L13.2423 39.7162C12.7078 39.7162 12.2745 40.1652 12.2745 40.719C12.2745 41.2728 12.7078 41.7218 13.2423 41.7218L15.5176 41.7218C16.0522 41.7218 16.4854 41.2728 16.4854 40.719C16.4854 40.1652 16.0521 39.7162 15.5176 39.7162L15.3479 39.7162L15.3479 38.2208C15.6997 38.4768 16.1142 38.6321 16.5494 38.6511C16.5823 38.6526 16.6153 38.6533 16.6485 38.6533C18.4148 38.6543 19.8473 37.2116 19.8481 35.431C19.8485 34.4277 19.3957 33.4806 18.6213 32.8505Z" fill="#555F65"/>
<path d="M18.6213 32.85C17.3059 31.7796 16.0743 30.4723 15.2816 29.5751C15.0371 29.2984 14.7038 29.1621 14.3715 29.1651L14.3715 41.7213L15.5176 41.7213C16.0521 41.7213 16.4854 41.2723 16.4854 40.7185C16.4854 40.1646 16.0521 39.7157 15.5176 39.7157L15.3478 39.7157L15.3478 38.2202C15.6997 38.4762 16.1142 38.6315 16.5494 38.6506C16.5823 38.6521 16.6153 38.6528 16.6485 38.6528C18.4148 38.6537 19.8472 37.2111 19.8481 35.4305C19.8485 34.4272 19.3956 33.4801 18.6213 32.85Z" fill="#303940"/>
</g>
<rect x="0.563947" y="0.260114" width="87.7836" height="63.4798" rx="4.60064" stroke="#E0E4F0" stroke-width="0.520228"/>
<defs>
<linearGradient id="paint0_linear_436_3941" x1="96.6095" y1="1.20087" x2="65.0351" y2="89.9452" gradientUnits="userSpaceOnUse">
<stop stop-color="#F1F6F7"/>
<stop offset="1" stop-color="#E3E8E9"/>
</linearGradient>
<clipPath id="clip0_436_3941">
<rect x="0.303833" width="88.3038" height="64" rx="4.86076" fill="white"/>
</clipPath>
</defs>
</svg>
