<svg width="89" height="64" viewBox="0 0 89 64" fill="none" xmlns="http://www.w3.org/2000/svg">
<g clip-path="url(#clip0_436_3944)">
<rect x="0.303833" width="88.3038" height="64" rx="4.86076" fill="url(#paint0_linear_436_3944)"/>
<path d="M17.916 21.3266C18.3048 21.3266 18.6289 21.4562 18.8881 21.7154C19.1474 21.9747 19.277 22.2987 19.277 22.6876C19.277 23.0603 19.1474 23.3762 18.8881 23.6354C18.6289 23.8785 18.3048 24 17.916 24L9.65269 24C9.23142 24 8.89927 23.8704 8.65624 23.6111C8.4132 23.3519 8.29168 23.0197 8.29168 22.6147C8.29168 22.2096 8.4375 21.8532 8.72915 21.5453L14.0274 15.8825C14.6269 15.2344 15.0967 14.5701 15.437 13.8896C15.7935 13.2091 15.9717 12.6177 15.9717 12.1154C15.9717 11.3053 15.7367 10.6572 15.2669 10.1711C14.797 9.66886 14.1732 9.41773 13.3955 9.41772C13.0876 9.41772 12.7717 9.49064 12.4476 9.63646C12.1236 9.78228 11.8076 9.98481 11.4998 10.2441C11.2081 10.5033 10.9327 10.803 10.6735 11.1433C10.479 11.4025 10.2846 11.5646 10.0902 11.6294C9.89573 11.6942 9.71751 11.7266 9.55548 11.7266C9.19902 11.7266 8.86687 11.597 8.55902 11.3377C8.26738 11.0623 8.12156 10.7463 8.12156 10.3899C8.12156 10.1144 8.21067 9.84709 8.3889 9.58785C8.58333 9.32861 8.81827 9.06127 9.09371 8.78582C9.49877 8.38076 9.95244 8.02431 10.4547 7.71646C10.957 7.40861 11.4755 7.17367 12.0102 7.01165C12.5448 6.83342 13.0633 6.74431 13.5656 6.74431C14.6512 6.74431 15.5909 6.96304 16.3848 7.40051C17.195 7.82178 17.8188 8.42937 18.2562 9.2233C18.6937 10.001 18.9124 10.9246 18.9124 11.9939C18.9124 12.8851 18.6451 13.8815 18.1104 14.9833C17.5919 16.0689 16.8871 17.0896 15.996 18.0456L12.715 21.5453L12.4476 21.3266L17.916 21.3266Z" fill="#303940"/>
<path d="M72.1284 25.943H72.1184C71.687 25.9435 71.3926 25.5112 71.5617 25.1146C72.2088 23.5982 72.5271 21.9084 72.4255 20.1335C72.1017 14.4845 67.4541 9.93909 61.7954 9.7295C55.4897 9.49576 50.3042 14.5346 50.3042 20.7835C50.3032 22.2744 50.6057 23.7499 51.1934 25.1202C51.3622 25.5144 51.0629 25.9444 50.6339 25.9432H50.6057C44.208 25.9432 39.0506 31.2492 39.2998 37.6973C39.5247 43.5165 44.2408 48.2706 50.0622 48.5429C52.9124 48.6762 55.5423 47.7535 57.598 46.1347L57.598 51.5934L55.6597 51.5934C53.5744 51.5934 51.884 53.2825 51.884 55.3663C51.884 57.45 53.5744 59.1392 55.6597 59.1392L67.0872 59.1392C69.1725 59.1392 70.8629 57.45 70.8629 55.3663C70.8629 53.2825 69.1725 51.5934 67.0872 51.5934L65.1489 51.5934L65.1489 46.1451C67.2028 47.7573 69.8277 48.676 72.6718 48.5429C78.4933 48.2706 83.2093 43.5165 83.4342 37.6973C83.6835 31.2489 78.526 25.943 72.1284 25.943Z" fill="#303940"/>
<path d="M72.1283 25.9409H72.1184C71.6869 25.9414 71.3925 25.5091 71.5616 25.1125C72.2087 23.5962 72.5271 21.9063 72.4255 20.1315C72.1017 14.4824 67.4541 9.937 61.7954 9.72741C61.6383 9.72242 61.4811 9.72069 61.324 9.72222L61.324 59.1369L67.0874 59.1369C69.1727 59.1369 70.8631 57.4477 70.8631 55.364C70.8631 53.2802 69.1727 51.5911 67.0874 51.5911L65.1491 51.5911L65.1491 46.1428C67.203 47.755 69.8279 48.6737 72.672 48.5406C78.4935 48.2683 83.2095 43.5142 83.4344 37.695C83.6834 31.2468 78.526 25.9409 72.1283 25.9409Z" fill="#1E2123"/>
<path d="M17.0454 33.2869L17.0429 33.2869C16.9361 33.287 16.8631 33.1771 16.905 33.0763C17.0653 32.6911 17.1442 32.2617 17.119 31.8107C17.0388 30.3753 15.8876 29.2203 14.4859 29.167C12.9239 29.1076 11.6394 30.388 11.6394 31.9758C11.6392 32.3547 11.7141 32.7296 11.8597 33.0778C11.9015 33.1779 11.8274 33.2872 11.7211 33.2869L11.7141 33.2869C10.1294 33.2869 8.85184 34.6351 8.91358 36.2736C8.96929 37.7523 10.1375 38.9603 11.5795 39.0294C12.2855 39.0633 12.9369 38.8289 13.4461 38.4175L13.4461 39.8046L12.966 39.8046C12.4495 39.8046 12.0308 40.2338 12.0308 40.7633C12.0308 41.2927 12.4495 41.7219 12.966 41.7219L15.7967 41.7219C16.3132 41.7219 16.7319 41.2927 16.7319 40.7633C16.7319 40.2338 16.3132 39.8046 15.7967 39.8046L15.3166 39.8046L15.3166 38.4202C15.8253 38.8298 16.4755 39.0633 17.18 39.0294C18.622 38.9603 19.7902 37.7523 19.8459 36.2736C19.9077 34.6351 18.6301 33.2869 17.0454 33.2869Z" fill="#303940"/>
<path d="M17.0454 33.2863L17.0429 33.2863C16.936 33.2864 16.8631 33.1766 16.905 33.0758C17.0653 32.6905 17.1442 32.2611 17.119 31.8101C17.0388 30.3747 15.8875 29.2198 14.4859 29.1665C14.4469 29.1652 14.408 29.1648 14.3691 29.1652L14.3691 41.7214L15.7967 41.7214C16.3132 41.7214 16.732 41.2921 16.732 40.7627C16.732 40.2332 16.3132 39.804 15.7967 39.804L15.3166 39.804L15.3166 38.4196C15.8253 38.8292 16.4755 39.0627 17.1801 39.0289C18.6221 38.9597 19.7903 37.7517 19.846 36.273C19.9076 34.6345 18.6301 33.2863 17.0454 33.2863Z" fill="#1E2123"/>
</g>
<rect x="0.563947" y="0.260114" width="87.7836" height="63.4798" rx="4.60064" stroke="#E0E4F0" stroke-width="0.520228"/>
<defs>
<linearGradient id="paint0_linear_436_3944" x1="96.6095" y1="1.20087" x2="65.0351" y2="89.9452" gradientUnits="userSpaceOnUse">
<stop stop-color="#F1F6F7"/>
<stop offset="1" stop-color="#E3E8E9"/>
</linearGradient>
<clipPath id="clip0_436_3944">
<rect x="0.303833" width="88.3038" height="64" rx="4.86076" fill="white"/>
</clipPath>
</defs>
</svg>
