<svg width="89" height="64" viewBox="0 0 89 64" fill="none" xmlns="http://www.w3.org/2000/svg">
<g clip-path="url(#clip0_436_3955)">
<rect x="0.607666" width="88.3038" height="64" rx="4.86076" fill="url(#paint0_linear_436_3955)"/>
<path d="M18.2198 21.3266C18.6087 21.3266 18.9327 21.4562 19.192 21.7154C19.4512 21.9747 19.5808 22.2987 19.5808 22.6876C19.5808 23.0603 19.4512 23.3762 19.192 23.6354C18.9327 23.8785 18.6087 24 18.2198 24L9.95652 24C9.53526 24 9.20311 23.8704 8.96007 23.6111C8.71703 23.3519 8.59551 23.0197 8.59551 22.6147C8.59551 22.2096 8.74133 21.8532 9.03298 21.5453L14.3312 15.8825C14.9307 15.2344 15.4006 14.5701 15.7408 13.8896C16.0973 13.2091 16.2755 12.6177 16.2755 12.1154C16.2755 11.3053 16.0406 10.6572 15.5707 10.1711C15.1008 9.66886 14.477 9.41773 13.6993 9.41772C13.3915 9.41772 13.0755 9.49064 12.7515 9.63646C12.4274 9.78228 12.1115 9.98481 11.8036 10.2441C11.512 10.5033 11.2365 10.803 10.9773 11.1433C10.7829 11.4025 10.5884 11.5646 10.394 11.6294C10.1996 11.6942 10.0213 11.7266 9.85931 11.7266C9.50286 11.7266 9.17071 11.597 8.86286 11.3377C8.57121 11.0623 8.42539 10.7463 8.42539 10.3899C8.42539 10.1144 8.5145 9.84709 8.69273 9.58785C8.88716 9.32861 9.1221 9.06127 9.39754 8.78582C9.80261 8.38076 10.2563 8.02431 10.7586 7.71646C11.2608 7.40861 11.7793 7.17367 12.314 7.01165C12.8487 6.83342 13.3672 6.74431 13.8694 6.74431C14.955 6.74431 15.8948 6.96304 16.6887 7.40051C17.4988 7.82178 18.1226 8.42937 18.5601 9.2233C18.9975 10.001 19.2163 10.9246 19.2163 11.9939C19.2163 12.8851 18.9489 13.8815 18.4142 14.9833C17.8958 16.0689 17.191 17.0896 16.2998 18.0456L13.0188 21.5453L12.7515 21.3266L18.2198 21.3266Z" fill="#D3003C"/>
<path d="M83.1182 32.6684L63.8492 10.6825C62.7265 9.40146 60.6185 9.40146 59.4959 10.6822L40.2238 32.6682C39.8187 33.1304 39.5967 33.7075 39.595 34.3032C39.5933 34.8989 39.8119 35.4771 40.2144 35.9413L59.4865 58.1681C60.6096 59.4632 62.7357 59.4632 63.8586 58.1679L83.1276 35.9411C83.5299 35.4769 83.7485 34.8988 83.7468 34.3032C83.7451 33.7076 83.5232 33.1306 83.1182 32.6684Z" fill="#FA184B"/>
<path d="M63.8492 10.6813C63.282 10.0341 62.4634 9.71504 61.6474 9.72178L61.6474 59.1373C62.4681 59.144 63.2914 58.8214 63.8586 58.1669L83.1276 35.9401C83.53 35.4759 83.7486 34.8978 83.7469 34.3021C83.7452 33.7065 83.5233 33.1294 83.1182 32.6673L63.8492 10.6813Z" fill="#D3003C"/>
<path d="M19.9963 34.9958L15.2232 29.4092C14.9451 29.0837 14.4229 29.0837 14.1448 29.4091L9.37103 34.9957C9.27067 35.1132 9.2157 35.2598 9.21527 35.4112C9.21485 35.5625 9.26901 35.7095 9.36871 35.8274L14.1425 41.4752C14.4207 41.8043 14.9474 41.8043 15.2255 41.4751L19.9986 35.8273C20.0982 35.7094 20.1524 35.5625 20.1519 35.4112C20.1515 35.2598 20.0966 35.1132 19.9963 34.9958Z" fill="#FA184B"/>
<path d="M15.2232 29.4089C15.0827 29.2444 14.8799 29.1634 14.6778 29.1651L14.6778 41.7215C14.8811 41.7232 15.085 41.6412 15.2255 41.4749L19.9985 35.8271C20.0982 35.7092 20.1524 35.5622 20.1519 35.4109C20.1515 35.2595 20.0965 35.1129 19.9962 34.9955L15.2232 29.4089Z" fill="#D3003C"/>
</g>
<rect x="0.86778" y="0.260114" width="87.7836" height="63.4798" rx="4.60064" stroke="#E0E4F0" stroke-width="0.520228"/>
<defs>
<linearGradient id="paint0_linear_436_3955" x1="96.9134" y1="1.20087" x2="65.3389" y2="89.9452" gradientUnits="userSpaceOnUse">
<stop stop-color="#F1F6F7"/>
<stop offset="1" stop-color="#E3E8E9"/>
</linearGradient>
<clipPath id="clip0_436_3955">
<rect x="0.607666" width="88.3038" height="64" rx="4.86076" fill="white"/>
</clipPath>
</defs>
</svg>
