<svg width="89" height="64" viewBox="0 0 89 64" fill="none" xmlns="http://www.w3.org/2000/svg">
<g clip-path="url(#clip0_436_3980)">
<rect x="0.518555" width="88.3038" height="64" rx="4.86076" fill="url(#paint0_linear_436_3980)"/>
<path d="M18.1307 21.3266C18.5196 21.3266 18.8436 21.4562 19.1028 21.7154C19.3621 21.9747 19.4917 22.2987 19.4917 22.6876C19.4917 23.0603 19.3621 23.3762 19.1028 23.6354C18.8436 23.8785 18.5196 24 18.1307 24L9.86741 24C9.44614 24 9.11399 23.8704 8.87095 23.6111C8.62791 23.3519 8.50639 23.0197 8.50639 22.6147C8.50639 22.2096 8.65222 21.8532 8.94386 21.5453L14.2421 15.8825C14.8416 15.2344 15.3115 14.5701 15.6517 13.8896C16.0082 13.2091 16.1864 12.6177 16.1864 12.1154C16.1864 11.3053 15.9515 10.6572 15.4816 10.1711C15.0117 9.66886 14.3879 9.41773 13.6102 9.41772C13.3023 9.41772 12.9864 9.49064 12.6623 9.63646C12.3383 9.78228 12.0223 9.98481 11.7145 10.2441C11.4229 10.5033 11.1474 10.803 10.8882 11.1433C10.6937 11.4025 10.4993 11.5646 10.3049 11.6294C10.1104 11.6942 9.93222 11.7266 9.7702 11.7266C9.41374 11.7266 9.08159 11.597 8.77374 11.3377C8.48209 11.0623 8.33627 10.7463 8.33627 10.3899C8.33627 10.1144 8.42539 9.84709 8.60361 9.58785C8.79804 9.32861 9.03298 9.06127 9.30842 8.78582C9.71349 8.38076 10.1672 8.02431 10.6694 7.71646C11.1717 7.40861 11.6902 7.17367 12.2249 7.01165C12.7596 6.83342 13.278 6.74431 13.7803 6.74431C14.8659 6.74431 15.8056 6.96304 16.5996 7.40051C17.4097 7.82178 18.0335 8.42937 18.471 9.2233C18.9084 10.001 19.1272 10.9246 19.1272 11.9939C19.1272 12.8851 18.8598 13.8815 18.3251 14.9833C17.8066 16.0689 17.1018 17.0896 16.2107 18.0456L12.9297 21.5453L12.6623 21.3266L18.1307 21.3266Z" fill="#D3003C"/>
<path d="M83.6578 24.1123C83.6578 16.1647 78.5404 9.72173 72.228 9.72173C68.4458 9.72173 65.093 12.035 63.0128 15.5989C62.3006 16.819 60.8325 16.819 60.1203 15.5989C58.0401 12.035 54.6873 9.72173 50.9051 9.72173C44.2789 9.69942 39.5077 16.8195 39.5077 25.1993H39.5059C39.5059 41.6017 53.5923 53.9877 59.2568 58.3052C59.9655 58.8456 60.7772 59.1338 61.6055 59.1393C62.4338 59.1448 63.2478 58.8674 63.961 58.3364C69.6736 54.0911 83.6578 41.7857 83.6578 24.1123Z" fill="#FF5F66"/>
<path d="M72.2281 9.72168C68.4458 9.72168 65.0931 12.035 63.0129 15.5988C62.6601 16.2032 62.1218 16.5074 61.5818 16.513L61.5818 59.1382C62.4179 59.1492 63.2406 58.8721 63.9608 58.3366C69.6738 54.0913 83.6578 41.7859 83.6578 24.1125C83.6578 16.1644 78.5404 9.72168 72.2281 9.72168Z" fill="#FA184B"/>
<path d="M20.0629 32.8216C20.0629 30.8022 18.7953 29.1651 17.2316 29.1651C16.2948 29.1651 15.4643 29.7529 14.949 30.6584C14.7726 30.9685 14.4089 30.9685 14.2325 30.6584C13.7172 29.7529 12.8867 29.1651 11.9498 29.1651C10.3085 29.1594 9.12661 30.9686 9.12661 33.0979L9.12616 33.0979C9.12616 37.2657 12.6154 40.4129 14.0186 41.51C14.1941 41.6473 14.3952 41.7205 14.6004 41.7219C14.8055 41.7233 15.0072 41.6528 15.1838 41.5179C16.5989 40.4392 20.0629 37.3124 20.0629 32.8216Z" fill="#FF5F66"/>
<path d="M17.2317 29.165C16.2948 29.165 15.4643 29.7528 14.949 30.6584C14.8616 30.812 14.7283 30.8893 14.5945 30.8907L14.5945 41.7216C14.8016 41.7244 15.0054 41.654 15.1838 41.518C16.5989 40.4392 20.0629 37.3125 20.0629 32.8217C20.0629 30.8021 18.7953 29.165 17.2317 29.165Z" fill="#FA184B"/>
</g>
<rect x="0.778669" y="0.260114" width="87.7836" height="63.4798" rx="4.60064" stroke="#E0E4F0" stroke-width="0.520228"/>
<defs>
<linearGradient id="paint0_linear_436_3980" x1="96.8243" y1="1.20087" x2="65.2498" y2="89.9452" gradientUnits="userSpaceOnUse">
<stop stop-color="#F1F6F7"/>
<stop offset="1" stop-color="#E3E8E9"/>
</linearGradient>
<clipPath id="clip0_436_3980">
<rect x="0.518555" width="88.3038" height="64" rx="4.86076" fill="white"/>
</clipPath>
</defs>
</svg>
