<svg width="89" height="64" viewBox="0 0 89 64" fill="none" xmlns="http://www.w3.org/2000/svg">
<g clip-path="url(#clip0_436_3939)">
<rect width="88.3038" height="64" rx="4.86076" fill="url(#paint0_linear_436_3939)"/>
<path d="M17.6121 21.3266C18.001 21.3266 18.3251 21.4562 18.5843 21.7154C18.8435 21.9747 18.9732 22.2987 18.9732 22.6876C18.9732 23.0603 18.8435 23.3762 18.5843 23.6354C18.3251 23.8785 18.001 24 17.6121 24L9.34886 24C8.92759 24 8.59544 23.8704 8.3524 23.6111C8.10936 23.3519 7.98785 23.0197 7.98785 22.6147C7.98785 22.2096 8.13367 21.8532 8.42531 21.5453L13.7235 15.8825C14.323 15.2344 14.7929 14.5701 15.1332 13.8896C15.4896 13.2091 15.6678 12.6177 15.6678 12.1154C15.6678 11.3053 15.4329 10.6572 14.963 10.1711C14.4932 9.66886 13.8694 9.41773 13.0916 9.41772C12.7838 9.41772 12.4678 9.49064 12.1438 9.63646C11.8197 9.78228 11.5038 9.98481 11.196 10.2441C10.9043 10.5033 10.6289 10.803 10.3696 11.1433C10.1752 11.4025 9.98076 11.5646 9.78633 11.6294C9.5919 11.6942 9.41367 11.7266 9.25165 11.7266C8.89519 11.7266 8.56304 11.597 8.25519 11.3377C7.96355 11.0623 7.81772 10.7463 7.81772 10.3899C7.81772 10.1144 7.90684 9.84709 8.08507 9.58785C8.2795 9.32861 8.51443 9.06127 8.78988 8.78582C9.19494 8.38076 9.64861 8.02431 10.1509 7.71646C10.6532 7.40861 11.1716 7.17367 11.7063 7.01165C12.241 6.83342 12.7595 6.74431 13.2618 6.74431C14.3473 6.74431 15.2871 6.96304 16.081 7.40051C16.8911 7.82178 17.5149 8.42937 17.9524 9.2233C18.3899 10.001 18.6086 10.9246 18.6086 11.9939C18.6086 12.8851 18.3413 13.8815 17.8066 14.9833C17.2881 16.0689 16.5833 17.0896 15.6922 18.0456L12.4111 21.5453L12.1438 21.3266L17.6121 21.3266Z" fill="#303940"/>
<path d="M78.1864 24.2259C72.8761 20.0135 67.9043 14.8685 64.7038 11.3374C62.7526 9.18455 59.3996 9.18296 57.4462 11.3335C54.2418 14.8612 49.2649 20.0013 43.9506 24.208C40.8215 26.685 38.9894 30.4103 38.9873 34.3586C38.9837 41.3663 44.7611 47.05 51.8915 47.0538C52.0262 47.0538 52.16 47.0511 52.2933 47.0456C54.0549 46.9719 55.7327 46.3591 57.1568 45.3484L57.1568 51.2464L56.4712 51.2464C54.3132 51.2464 52.564 53.0135 52.564 55.1929C52.564 57.3726 54.3135 59.1394 56.4712 59.1394L65.6567 59.1394C67.8147 59.1394 69.5639 57.3724 69.5639 55.1929C69.5639 53.0132 67.8145 51.2464 65.6567 51.2464L64.9714 51.2464L64.9714 45.361C66.3918 46.3684 68.0653 46.9797 69.8222 47.0547C69.9549 47.0604 70.0882 47.0634 70.2222 47.0634C77.3526 47.067 83.1356 41.3892 83.1392 34.3816C83.1408 30.4333 81.3125 26.7059 78.1864 24.2259Z" fill="#555F65"/>
<path d="M78.1864 24.2259C72.8761 20.0135 67.9044 14.8684 64.7039 11.3373C63.717 10.2486 62.3716 9.712 61.03 9.72382L61.03 59.1393L65.6568 59.1393C67.8147 59.1393 69.564 57.3723 69.564 55.1928C69.564 53.0132 67.8145 51.2464 65.6568 51.2464L64.9714 51.2464L64.9714 45.3609C66.3918 46.3684 68.0654 46.9796 69.8223 47.0547C69.9549 47.0604 70.0882 47.0633 70.2222 47.0633C77.3527 47.067 83.1357 41.3892 83.1393 34.3815C83.1409 30.4332 81.3126 26.7058 78.1864 24.2259Z" fill="#303940"/>
<path d="M18.3175 32.8505C17.0021 31.7801 15.7705 30.4728 14.9777 29.5756C14.4944 29.0286 13.6639 29.0282 13.18 29.5746C12.3862 30.471 11.1534 31.777 9.83703 32.8459C9.06193 33.4753 8.60811 34.4219 8.6076 35.4251C8.60671 37.2057 10.0378 38.6499 11.8041 38.6509C11.8374 38.6509 11.8706 38.6502 11.9036 38.6488C12.3399 38.6301 12.7555 38.4744 13.1083 38.2176L13.1083 39.7162L12.9385 39.7162C12.4039 39.7162 11.9706 40.1652 11.9706 40.719C11.9706 41.2728 12.404 41.7218 12.9385 41.7218L15.2138 41.7218C15.7483 41.7218 16.1816 41.2728 16.1816 40.719C16.1816 40.1652 15.7483 39.7162 15.2138 39.7162L15.044 39.7162L15.044 38.2208C15.3959 38.4768 15.8104 38.6321 16.2456 38.6511C16.2785 38.6526 16.3115 38.6533 16.3447 38.6533C18.1109 38.6543 19.5434 37.2116 19.5443 35.431C19.5447 34.4277 19.0918 33.4806 18.3175 32.8505Z" fill="#555F65"/>
<path d="M18.3174 32.85C17.0021 31.7796 15.7705 30.4723 14.9777 29.5751C14.7333 29.2984 14.4 29.1621 14.0677 29.1651L14.0677 41.7213L15.2138 41.7213C15.7483 41.7213 16.1816 41.2723 16.1816 40.7185C16.1816 40.1646 15.7483 39.7157 15.2138 39.7157L15.044 39.7157L15.044 38.2202C15.3958 38.4762 15.8104 38.6315 16.2456 38.6506C16.2784 38.6521 16.3115 38.6528 16.3447 38.6528C18.1109 38.6537 19.5434 37.2111 19.5443 35.4305C19.5447 34.4272 19.0918 33.4801 18.3174 32.85Z" fill="#303940"/>
</g>
<rect x="0.260114" y="0.260114" width="87.7836" height="63.4798" rx="4.60064" stroke="#E0E4F0" stroke-width="0.520228"/>
<defs>
<linearGradient id="paint0_linear_436_3939" x1="96.3057" y1="1.20087" x2="64.7312" y2="89.9452" gradientUnits="userSpaceOnUse">
<stop stop-color="#F1F6F7"/>
<stop offset="1" stop-color="#E3E8E9"/>
</linearGradient>
<clipPath id="clip0_436_3939">
<rect width="88.3038" height="64" rx="4.86076" fill="white"/>
</clipPath>
</defs>
</svg>
