<svg width="89" height="64" viewBox="0 0 89 64" fill="none" xmlns="http://www.w3.org/2000/svg">
<g clip-path="url(#clip0_436_3945)">
<rect x="0.303833" width="88.3038" height="64" rx="4.86076" fill="url(#paint0_linear_436_3945)"/>
<path d="M9.50687 20.5732C9.65269 20.5732 9.80662 20.5975 9.96864 20.6461C10.1469 20.6947 10.3413 20.7919 10.5519 20.9377C10.8274 21.1484 11.1514 21.3347 11.5241 21.4967C11.9129 21.6587 12.3585 21.7397 12.8608 21.7397C13.3631 21.7397 13.8329 21.6182 14.2704 21.3752C14.7241 21.116 15.0967 20.7595 15.3884 20.3058C15.68 19.836 15.8259 19.277 15.8259 18.6289C15.8259 18.0132 15.6962 17.5028 15.437 17.0977C15.194 16.6927 14.8618 16.3848 14.4405 16.1742C14.0355 15.9635 13.598 15.8582 13.1281 15.8582C12.7717 15.8582 12.4719 15.8906 12.2289 15.9554C12.0021 16.0203 11.7752 16.0932 11.5484 16.1742C11.3378 16.239 11.0866 16.2714 10.795 16.2714C10.4223 16.2714 10.1307 16.1418 9.92004 15.8825C9.7256 15.6233 9.62839 15.3154 9.62839 14.959C9.62839 14.7322 9.6689 14.5296 9.74991 14.3514C9.84712 14.1732 9.98485 13.9787 10.1631 13.7681L14.4405 9.22329L15.0967 9.78228L9.11801 9.78228C8.72915 9.78228 8.4051 9.65266 8.14586 9.39342C7.88662 9.13418 7.757 8.81013 7.757 8.42127C7.757 8.04861 7.88662 7.74076 8.14586 7.49772C8.4051 7.23848 8.72915 7.10886 9.11801 7.10886L16.555 7.10886C17.0573 7.10886 17.4299 7.24659 17.6729 7.52203C17.9322 7.79747 18.0618 8.14583 18.0618 8.56709C18.0618 8.77773 18.0051 8.98836 17.8917 9.19899C17.7783 9.39342 17.6405 9.57165 17.4785 9.73368L13.1767 14.3514L12.5205 13.5251C12.6988 13.4441 12.9418 13.3711 13.2497 13.3063C13.5737 13.2415 13.841 13.2091 14.0517 13.2091C15.0076 13.2091 15.834 13.4603 16.5307 13.9625C17.2436 14.4486 17.7864 15.0886 18.159 15.8825C18.5479 16.6603 18.7423 17.5028 18.7423 18.4101C18.7423 19.6091 18.475 20.6461 17.9403 21.521C17.4056 22.396 16.6522 23.0684 15.68 23.5382C14.7079 24.0081 13.5737 24.243 12.2775 24.243C11.678 24.243 11.0866 24.1701 10.5033 24.0243C9.92003 23.8785 9.41775 23.6841 8.99649 23.441C8.64003 23.2466 8.39699 23.036 8.26737 22.8091C8.15396 22.5661 8.09725 22.3392 8.09725 22.1286C8.09725 21.7559 8.22687 21.4076 8.48611 21.0835C8.76155 20.7433 9.10181 20.5732 9.50687 20.5732Z" fill="#303940"/>
<path d="M72.1284 25.943H72.1184C71.687 25.9435 71.3926 25.5112 71.5617 25.1146C72.2088 23.5982 72.5271 21.9084 72.4255 20.1335C72.1017 14.4845 67.4541 9.93909 61.7954 9.7295C55.4897 9.49576 50.3042 14.5346 50.3042 20.7835C50.3032 22.2744 50.6057 23.7499 51.1934 25.1202C51.3622 25.5144 51.0629 25.9444 50.6339 25.9432H50.6057C44.208 25.9432 39.0506 31.2492 39.2998 37.6973C39.5247 43.5165 44.2408 48.2706 50.0622 48.5429C52.9124 48.6762 55.5423 47.7535 57.598 46.1347L57.598 51.5934L55.6597 51.5934C53.5744 51.5934 51.884 53.2825 51.884 55.3663C51.884 57.45 53.5744 59.1392 55.6597 59.1392L67.0872 59.1392C69.1725 59.1392 70.8629 57.45 70.8629 55.3663C70.8629 53.2825 69.1725 51.5934 67.0872 51.5934L65.1489 51.5934L65.1489 46.1451C67.2028 47.7573 69.8277 48.676 72.6718 48.5429C78.4933 48.2706 83.2093 43.5165 83.4342 37.6973C83.6835 31.2489 78.526 25.943 72.1284 25.943Z" fill="#303940"/>
<path d="M72.1283 25.9409H72.1184C71.6869 25.9414 71.3925 25.5091 71.5616 25.1125C72.2087 23.5962 72.5271 21.9063 72.4255 20.1315C72.1017 14.4824 67.4541 9.937 61.7954 9.72741C61.6383 9.72242 61.4811 9.72069 61.324 9.72222L61.324 59.1369L67.0874 59.1369C69.1727 59.1369 70.8631 57.4477 70.8631 55.364C70.8631 53.2802 69.1727 51.5911 67.0874 51.5911L65.1491 51.5911L65.1491 46.1428C67.203 47.755 69.8279 48.6737 72.672 48.5406C78.4935 48.2683 83.2095 43.5142 83.4344 37.695C83.6834 31.2468 78.526 25.9409 72.1283 25.9409Z" fill="#1E2123"/>
<path d="M17.0454 33.2869L17.0429 33.2869C16.9361 33.287 16.8631 33.1771 16.905 33.0763C17.0653 32.6911 17.1442 32.2617 17.119 31.8107C17.0388 30.3753 15.8876 29.2203 14.4859 29.167C12.9239 29.1076 11.6394 30.388 11.6394 31.9758C11.6392 32.3547 11.7141 32.7296 11.8597 33.0778C11.9015 33.1779 11.8274 33.2872 11.7211 33.2869L11.7141 33.2869C10.1294 33.2869 8.85184 34.6351 8.91358 36.2736C8.96929 37.7523 10.1375 38.9603 11.5795 39.0294C12.2855 39.0633 12.9369 38.8289 13.4461 38.4175L13.4461 39.8046L12.966 39.8046C12.4495 39.8046 12.0308 40.2338 12.0308 40.7633C12.0308 41.2927 12.4495 41.7219 12.966 41.7219L15.7967 41.7219C16.3132 41.7219 16.7319 41.2927 16.7319 40.7633C16.7319 40.2338 16.3132 39.8046 15.7967 39.8046L15.3166 39.8046L15.3166 38.4202C15.8253 38.8298 16.4755 39.0633 17.18 39.0294C18.622 38.9603 19.7902 37.7523 19.8459 36.2736C19.9077 34.6351 18.6301 33.2869 17.0454 33.2869Z" fill="#303940"/>
<path d="M17.0454 33.2863L17.0429 33.2863C16.936 33.2864 16.8631 33.1766 16.905 33.0758C17.0653 32.6905 17.1442 32.2611 17.119 31.8101C17.0388 30.3747 15.8875 29.2198 14.4859 29.1665C14.4469 29.1652 14.408 29.1648 14.3691 29.1652L14.3691 41.7214L15.7967 41.7214C16.3132 41.7214 16.732 41.2921 16.732 40.7627C16.732 40.2332 16.3132 39.804 15.7967 39.804L15.3166 39.804L15.3166 38.4196C15.8253 38.8292 16.4755 39.0627 17.1801 39.0289C18.6221 38.9597 19.7903 37.7517 19.846 36.273C19.9076 34.6345 18.6301 33.2863 17.0454 33.2863Z" fill="#1E2123"/>
</g>
<rect x="0.563947" y="0.260114" width="87.7836" height="63.4798" rx="4.60064" stroke="#E0E4F0" stroke-width="0.520228"/>
<defs>
<linearGradient id="paint0_linear_436_3945" x1="96.6095" y1="1.20087" x2="65.0351" y2="89.9452" gradientUnits="userSpaceOnUse">
<stop stop-color="#F1F6F7"/>
<stop offset="1" stop-color="#E3E8E9"/>
</linearGradient>
<clipPath id="clip0_436_3945">
<rect x="0.303833" width="88.3038" height="64" rx="4.86076" fill="white"/>
</clipPath>
</defs>
</svg>
