<svg width="89" height="64" viewBox="0 0 89 64" fill="none" xmlns="http://www.w3.org/2000/svg">
<g clip-path="url(#clip0_436_3954)">
<rect x="0.607666" width="88.3038" height="64" rx="4.86076" fill="url(#paint0_linear_436_3954)"/>
<path d="M9.8107 20.5732C9.95652 20.5732 10.1104 20.5975 10.2725 20.6461C10.4507 20.6947 10.6451 20.7919 10.8558 20.9377C11.1312 21.1484 11.4553 21.3347 11.8279 21.4967C12.2168 21.6587 12.6623 21.7397 13.1646 21.7397C13.6669 21.7397 14.1368 21.6182 14.5742 21.3752C15.0279 21.116 15.4006 20.7595 15.6922 20.3058C15.9839 19.836 16.1297 19.277 16.1297 18.6289C16.1297 18.0132 16.0001 17.5028 15.7408 17.0977C15.4978 16.6927 15.1656 16.3848 14.7444 16.1742C14.3393 15.9635 13.9018 15.8582 13.432 15.8582C13.0755 15.8582 12.7758 15.8906 12.5327 15.9554C12.3059 16.0203 12.0791 16.0932 11.8522 16.1742C11.6416 16.239 11.3905 16.2714 11.0988 16.2714C10.7261 16.2714 10.4345 16.1418 10.2239 15.8825C10.0294 15.6233 9.93222 15.3154 9.93222 14.959C9.93222 14.7322 9.97273 14.5296 10.0537 14.3514C10.151 14.1732 10.2887 13.9787 10.4669 13.7681L14.7444 9.22329L15.4006 9.78228L9.42184 9.78228C9.03298 9.78228 8.70893 9.65266 8.44969 9.39342C8.19045 9.13418 8.06083 8.81013 8.06083 8.42127C8.06083 8.04861 8.19045 7.74076 8.44969 7.49772C8.70893 7.23848 9.03299 7.10886 9.42185 7.10886L16.8588 7.10886C17.3611 7.10886 17.7337 7.24659 17.9768 7.52203C18.236 7.79747 18.3656 8.14583 18.3656 8.56709C18.3656 8.77773 18.3089 8.98836 18.1955 9.19899C18.0821 9.39342 17.9444 9.57165 17.7824 9.73368L13.4806 14.3514L12.8244 13.5251C13.0026 13.4441 13.2456 13.3711 13.5535 13.3063C13.8775 13.2415 14.1449 13.2091 14.3555 13.2091C15.3115 13.2091 16.1378 13.4603 16.8345 13.9625C17.5474 14.4486 18.0902 15.0886 18.4629 15.8825C18.8517 16.6603 19.0461 17.5028 19.0461 18.4101C19.0461 19.6091 18.7788 20.6461 18.2441 21.521C17.7094 22.396 16.956 23.0684 15.9839 23.5382C15.0117 24.0081 13.8775 24.243 12.5813 24.243C11.9818 24.243 11.3904 24.1701 10.8072 24.0243C10.2239 23.8785 9.72159 23.6841 9.30032 23.441C8.94387 23.2466 8.70083 23.036 8.57121 22.8091C8.45779 22.5661 8.40108 22.3392 8.40108 22.1286C8.40108 21.7559 8.5307 21.4076 8.78994 21.0835C9.06539 20.7433 9.40564 20.5732 9.8107 20.5732Z" fill="#D3003C"/>
<path d="M83.1182 32.6684L63.8492 10.6825C62.7265 9.40146 60.6185 9.40146 59.4959 10.6822L40.2238 32.6682C39.8187 33.1304 39.5967 33.7075 39.595 34.3032C39.5933 34.8989 39.8119 35.4771 40.2144 35.9413L59.4865 58.1681C60.6096 59.4632 62.7357 59.4632 63.8586 58.1679L83.1276 35.9411C83.5299 35.4769 83.7485 34.8988 83.7468 34.3032C83.7451 33.7076 83.5232 33.1306 83.1182 32.6684Z" fill="#FA184B"/>
<path d="M63.8492 10.6813C63.282 10.0341 62.4634 9.71504 61.6474 9.72178L61.6474 59.1373C62.4681 59.144 63.2914 58.8214 63.8586 58.1669L83.1276 35.9401C83.53 35.4759 83.7486 34.8978 83.7469 34.3021C83.7452 33.7065 83.5233 33.1294 83.1182 32.6673L63.8492 10.6813Z" fill="#D3003C"/>
<path d="M19.9963 34.9958L15.2232 29.4092C14.9451 29.0837 14.4229 29.0837 14.1448 29.4091L9.37103 34.9957C9.27067 35.1132 9.2157 35.2598 9.21527 35.4112C9.21485 35.5625 9.26901 35.7095 9.36871 35.8274L14.1425 41.4752C14.4207 41.8043 14.9474 41.8043 15.2255 41.4751L19.9986 35.8273C20.0982 35.7094 20.1524 35.5625 20.1519 35.4112C20.1515 35.2598 20.0966 35.1132 19.9963 34.9958Z" fill="#FA184B"/>
<path d="M15.2232 29.4089C15.0827 29.2444 14.8799 29.1634 14.6778 29.1651L14.6778 41.7215C14.8811 41.7232 15.085 41.6412 15.2255 41.4749L19.9985 35.8271C20.0982 35.7092 20.1524 35.5622 20.1519 35.4109C20.1515 35.2595 20.0965 35.1129 19.9962 34.9955L15.2232 29.4089Z" fill="#D3003C"/>
</g>
<rect x="0.86778" y="0.260114" width="87.7836" height="63.4798" rx="4.60064" stroke="#E0E4F0" stroke-width="0.520228"/>
<defs>
<linearGradient id="paint0_linear_436_3954" x1="96.9134" y1="1.20087" x2="65.3389" y2="89.9452" gradientUnits="userSpaceOnUse">
<stop stop-color="#F1F6F7"/>
<stop offset="1" stop-color="#E3E8E9"/>
</linearGradient>
<clipPath id="clip0_436_3954">
<rect x="0.607666" width="88.3038" height="64" rx="4.86076" fill="white"/>
</clipPath>
</defs>
</svg>
