<svg width="89" height="64" viewBox="0 0 89 64" fill="none" xmlns="http://www.w3.org/2000/svg">
<g clip-path="url(#clip0_436_3979)">
<rect x="0.518555" width="88.3038" height="64" rx="4.86076" fill="url(#paint0_linear_436_3979)"/>
<path d="M9.72158 20.5732C9.86741 20.5732 10.0213 20.5975 10.1834 20.6461C10.3616 20.6947 10.556 20.7919 10.7666 20.9377C11.0421 21.1484 11.3661 21.3347 11.7388 21.4967C12.1277 21.6587 12.5732 21.7397 13.0755 21.7397C13.5778 21.7397 14.0477 21.6182 14.4851 21.3752C14.9388 21.116 15.3115 20.7595 15.6031 20.3058C15.8947 19.836 16.0406 19.277 16.0406 18.6289C16.0406 18.0132 15.911 17.5028 15.6517 17.0977C15.4087 16.6927 15.0765 16.3848 14.6553 16.1742C14.2502 15.9635 13.8127 15.8582 13.3429 15.8582C12.9864 15.8582 12.6866 15.8906 12.4436 15.9554C12.2168 16.0203 11.9899 16.0932 11.7631 16.1742C11.5525 16.239 11.3013 16.2714 11.0097 16.2714C10.637 16.2714 10.3454 16.1418 10.1348 15.8825C9.94032 15.6233 9.84311 15.3154 9.84311 14.959C9.84311 14.7322 9.88361 14.5296 9.96463 14.3514C10.0618 14.1732 10.1996 13.9787 10.3778 13.7681L14.6553 9.22329L15.3115 9.78228L9.33273 9.78228C8.94387 9.78228 8.61982 9.65266 8.36058 9.39342C8.10134 9.13418 7.97172 8.81013 7.97172 8.42127C7.97172 8.04861 8.10134 7.74076 8.36058 7.49772C8.61982 7.23848 8.94387 7.10886 9.33273 7.10886L16.7697 7.10886C17.272 7.10886 17.6446 7.24659 17.8877 7.52203C18.1469 7.79747 18.2765 8.14583 18.2765 8.56709C18.2765 8.77773 18.2198 8.98836 18.1064 9.19899C17.993 9.39342 17.8553 9.57165 17.6932 9.73368L13.3915 14.3514L12.7353 13.5251C12.9135 13.4441 13.1565 13.3711 13.4644 13.3063C13.7884 13.2415 14.0558 13.2091 14.2664 13.2091C15.2223 13.2091 16.0487 13.4603 16.7454 13.9625C17.4583 14.4486 18.0011 15.0886 18.3737 15.8825C18.7626 16.6603 18.957 17.5028 18.957 18.4101C18.957 19.6091 18.6897 20.6461 18.155 21.521C17.6203 22.396 16.8669 23.0684 15.8947 23.5382C14.9226 24.0081 13.7884 24.243 12.4922 24.243C11.8927 24.243 11.3013 24.1701 10.718 24.0243C10.1347 23.8785 9.63247 23.6841 9.2112 23.441C8.85475 23.2466 8.61171 23.036 8.48209 22.8091C8.36867 22.5661 8.31196 22.3392 8.31196 22.1286C8.31196 21.7559 8.44158 21.4076 8.70083 21.0835C8.97627 20.7433 9.31652 20.5732 9.72158 20.5732Z" fill="#D3003C"/>
<path d="M83.6578 24.1123C83.6578 16.1647 78.5404 9.72173 72.228 9.72173C68.4458 9.72173 65.093 12.035 63.0128 15.5989C62.3006 16.819 60.8325 16.819 60.1203 15.5989C58.0401 12.035 54.6873 9.72173 50.9051 9.72173C44.2789 9.69942 39.5077 16.8195 39.5077 25.1993H39.5059C39.5059 41.6017 53.5923 53.9877 59.2568 58.3052C59.9655 58.8456 60.7772 59.1338 61.6055 59.1393C62.4338 59.1448 63.2478 58.8674 63.961 58.3364C69.6736 54.0911 83.6578 41.7857 83.6578 24.1123Z" fill="#FF5F66"/>
<path d="M72.2281 9.72168C68.4458 9.72168 65.0931 12.035 63.0129 15.5988C62.6601 16.2032 62.1218 16.5074 61.5818 16.513L61.5818 59.1382C62.4179 59.1492 63.2406 58.8721 63.9608 58.3366C69.6738 54.0913 83.6578 41.7859 83.6578 24.1125C83.6578 16.1644 78.5404 9.72168 72.2281 9.72168Z" fill="#FA184B"/>
<path d="M20.0629 32.8216C20.0629 30.8022 18.7953 29.1651 17.2316 29.1651C16.2948 29.1651 15.4643 29.7529 14.949 30.6584C14.7726 30.9685 14.4089 30.9685 14.2325 30.6584C13.7172 29.7529 12.8867 29.1651 11.9498 29.1651C10.3085 29.1594 9.12661 30.9686 9.12661 33.0979L9.12616 33.0979C9.12616 37.2657 12.6154 40.4129 14.0186 41.51C14.1941 41.6473 14.3952 41.7205 14.6004 41.7219C14.8055 41.7233 15.0072 41.6528 15.1838 41.5179C16.5989 40.4392 20.0629 37.3124 20.0629 32.8216Z" fill="#FF5F66"/>
<path d="M17.2317 29.165C16.2948 29.165 15.4643 29.7528 14.949 30.6584C14.8616 30.812 14.7283 30.8893 14.5945 30.8907L14.5945 41.7216C14.8016 41.7244 15.0054 41.654 15.1838 41.518C16.5989 40.4392 20.0629 37.3125 20.0629 32.8217C20.0629 30.8021 18.7953 29.165 17.2317 29.165Z" fill="#FA184B"/>
</g>
<rect x="0.778669" y="0.260114" width="87.7836" height="63.4798" rx="4.60064" stroke="#E0E4F0" stroke-width="0.520228"/>
<defs>
<linearGradient id="paint0_linear_436_3979" x1="96.8243" y1="1.20087" x2="65.2498" y2="89.9452" gradientUnits="userSpaceOnUse">
<stop stop-color="#F1F6F7"/>
<stop offset="1" stop-color="#E3E8E9"/>
</linearGradient>
<clipPath id="clip0_436_3979">
<rect x="0.518555" width="88.3038" height="64" rx="4.86076" fill="white"/>
</clipPath>
</defs>
</svg>
