<svg width="89" height="64" viewBox="0 0 89 64" fill="none" xmlns="http://www.w3.org/2000/svg">
<g clip-path="url(#clip0_436_3946)">
<rect x="0.303833" width="88.3038" height="64" rx="4.86076" fill="url(#paint0_linear_436_3946)"/>
<path d="M16.239 24C15.834 24 15.4937 23.8623 15.2183 23.5868C14.9428 23.2952 14.8051 22.9387 14.8051 22.5175L14.8051 11.0947L15.3155 11.2162L10.6248 17.0248L10.5033 16.7089L19.1069 16.7089C19.4957 16.7089 19.8198 16.8385 20.079 17.0977C20.3383 17.357 20.4679 17.681 20.4679 18.0699C20.4679 18.4425 20.3383 18.7585 20.079 19.0177C19.8198 19.2608 19.4957 19.3823 19.1069 19.3823L8.48611 19.3823C8.14586 19.3823 7.81371 19.2446 7.48965 18.9691C7.18181 18.6937 7.02788 18.3534 7.02788 17.9484C7.02788 17.5919 7.1494 17.2678 7.39244 16.9762L15.0724 7.57064C15.2021 7.39241 15.3722 7.25469 15.5828 7.15747C15.7935 7.04405 16.0284 6.98735 16.2876 6.98735C16.7089 6.98735 17.0492 7.13317 17.3084 7.42481C17.5838 7.70026 17.7216 8.04861 17.7216 8.46988L17.7216 22.5175C17.7216 22.9387 17.5757 23.2952 17.2841 23.5868C17.0086 23.8623 16.6603 24 16.239 24Z" fill="#303940"/>
<path d="M72.1284 25.943H72.1184C71.687 25.9435 71.3926 25.5112 71.5617 25.1146C72.2088 23.5982 72.5271 21.9084 72.4255 20.1335C72.1017 14.4845 67.4541 9.93909 61.7954 9.7295C55.4897 9.49576 50.3042 14.5346 50.3042 20.7835C50.3032 22.2744 50.6057 23.7499 51.1934 25.1202C51.3622 25.5144 51.0629 25.9444 50.6339 25.9432H50.6057C44.208 25.9432 39.0506 31.2492 39.2998 37.6973C39.5247 43.5165 44.2408 48.2706 50.0622 48.5429C52.9124 48.6762 55.5423 47.7535 57.598 46.1347L57.598 51.5934L55.6597 51.5934C53.5744 51.5934 51.884 53.2825 51.884 55.3663C51.884 57.45 53.5744 59.1392 55.6597 59.1392L67.0872 59.1392C69.1725 59.1392 70.8629 57.45 70.8629 55.3663C70.8629 53.2825 69.1725 51.5934 67.0872 51.5934L65.1489 51.5934L65.1489 46.1451C67.2028 47.7573 69.8277 48.676 72.6718 48.5429C78.4933 48.2706 83.2093 43.5165 83.4342 37.6973C83.6835 31.2489 78.526 25.943 72.1284 25.943Z" fill="#303940"/>
<path d="M72.1283 25.9409H72.1184C71.6869 25.9414 71.3925 25.5091 71.5616 25.1125C72.2087 23.5962 72.5271 21.9063 72.4255 20.1315C72.1017 14.4824 67.4541 9.937 61.7954 9.72741C61.6383 9.72242 61.4811 9.72069 61.324 9.72222L61.324 59.1369L67.0874 59.1369C69.1727 59.1369 70.8631 57.4477 70.8631 55.364C70.8631 53.2802 69.1727 51.5911 67.0874 51.5911L65.1491 51.5911L65.1491 46.1428C67.203 47.755 69.8279 48.6737 72.672 48.5406C78.4935 48.2683 83.2095 43.5142 83.4344 37.695C83.6834 31.2468 78.526 25.9409 72.1283 25.9409Z" fill="#1E2123"/>
<path d="M17.0454 33.2869L17.0429 33.2869C16.9361 33.287 16.8631 33.1771 16.905 33.0763C17.0653 32.6911 17.1442 32.2617 17.119 31.8107C17.0388 30.3753 15.8876 29.2203 14.4859 29.167C12.9239 29.1076 11.6394 30.388 11.6394 31.9758C11.6392 32.3547 11.7141 32.7296 11.8597 33.0778C11.9015 33.1779 11.8274 33.2872 11.7211 33.2869L11.7141 33.2869C10.1294 33.2869 8.85184 34.6351 8.91358 36.2736C8.96929 37.7523 10.1375 38.9603 11.5795 39.0294C12.2855 39.0633 12.9369 38.8289 13.4461 38.4175L13.4461 39.8046L12.966 39.8046C12.4495 39.8046 12.0308 40.2338 12.0308 40.7633C12.0308 41.2927 12.4495 41.7219 12.966 41.7219L15.7967 41.7219C16.3132 41.7219 16.7319 41.2927 16.7319 40.7633C16.7319 40.2338 16.3132 39.8046 15.7967 39.8046L15.3166 39.8046L15.3166 38.4202C15.8253 38.8298 16.4755 39.0633 17.18 39.0294C18.622 38.9603 19.7902 37.7523 19.8459 36.2736C19.9077 34.6351 18.6301 33.2869 17.0454 33.2869Z" fill="#303940"/>
<path d="M17.0454 33.2863L17.0429 33.2863C16.936 33.2864 16.8631 33.1766 16.905 33.0758C17.0653 32.6905 17.1442 32.2611 17.119 31.8101C17.0388 30.3747 15.8875 29.2198 14.4859 29.1665C14.4469 29.1652 14.408 29.1648 14.3691 29.1652L14.3691 41.7214L15.7967 41.7214C16.3132 41.7214 16.732 41.2921 16.732 40.7627C16.732 40.2332 16.3132 39.804 15.7967 39.804L15.3166 39.804L15.3166 38.4196C15.8253 38.8292 16.4755 39.0627 17.1801 39.0289C18.6221 38.9597 19.7903 37.7517 19.846 36.273C19.9076 34.6345 18.6301 33.2863 17.0454 33.2863Z" fill="#1E2123"/>
</g>
<rect x="0.563947" y="0.260114" width="87.7836" height="63.4798" rx="4.60064" stroke="#E0E4F0" stroke-width="0.520228"/>
<defs>
<linearGradient id="paint0_linear_436_3946" x1="96.6095" y1="1.20087" x2="65.0351" y2="89.9452" gradientUnits="userSpaceOnUse">
<stop stop-color="#F1F6F7"/>
<stop offset="1" stop-color="#E3E8E9"/>
</linearGradient>
<clipPath id="clip0_436_3946">
<rect x="0.303833" width="88.3038" height="64" rx="4.86076" fill="white"/>
</clipPath>
</defs>
</svg>
