<svg width="89" height="64" viewBox="0 0 89 64" fill="none" xmlns="http://www.w3.org/2000/svg">
<g clip-path="url(#clip0_436_3953)">
<rect x="0.607666" width="88.3038" height="64" rx="4.86076" fill="url(#paint0_linear_436_3953)"/>
<path d="M16.5429 24C16.1378 24 15.7975 23.8623 15.5221 23.5868C15.2466 23.2952 15.1089 22.9387 15.1089 22.5175L15.1089 11.0947L15.6193 11.2162L10.9287 17.0248L10.8072 16.7089L19.4107 16.7089C19.7996 16.7089 20.1236 16.8385 20.3829 17.0977C20.6421 17.357 20.7717 17.681 20.7717 18.0699C20.7717 18.4425 20.6421 18.7585 20.3829 19.0177C20.1236 19.2608 19.7996 19.3823 19.4107 19.3823L8.78994 19.3823C8.44969 19.3823 8.11754 19.2446 7.79349 18.9691C7.48564 18.6937 7.33172 18.3534 7.33172 17.9484C7.33172 17.5919 7.45323 17.2678 7.69627 16.9762L15.3763 7.57064C15.5059 7.39241 15.676 7.25469 15.8867 7.15747C16.0973 7.04405 16.3322 6.98735 16.5915 6.98735C17.0127 6.98735 17.353 7.13317 17.6122 7.42481C17.8877 7.70026 18.0254 8.04861 18.0254 8.46988L18.0254 22.5175C18.0254 22.9387 17.8796 23.2952 17.5879 23.5868C17.3125 23.8623 16.9641 24 16.5429 24Z" fill="#D3003C"/>
<path d="M83.1182 32.6684L63.8492 10.6825C62.7265 9.40146 60.6185 9.40146 59.4959 10.6822L40.2238 32.6682C39.8187 33.1304 39.5967 33.7075 39.595 34.3032C39.5933 34.8989 39.8119 35.4771 40.2144 35.9413L59.4865 58.1681C60.6096 59.4632 62.7357 59.4632 63.8586 58.1679L83.1276 35.9411C83.5299 35.4769 83.7485 34.8988 83.7468 34.3032C83.7451 33.7076 83.5232 33.1306 83.1182 32.6684Z" fill="#FA184B"/>
<path d="M63.8492 10.6813C63.282 10.0341 62.4634 9.71504 61.6474 9.72178L61.6474 59.1373C62.4681 59.144 63.2914 58.8214 63.8586 58.1669L83.1276 35.9401C83.53 35.4759 83.7486 34.8978 83.7469 34.3021C83.7452 33.7065 83.5233 33.1294 83.1182 32.6673L63.8492 10.6813Z" fill="#D3003C"/>
<path d="M19.9963 34.9958L15.2232 29.4092C14.9451 29.0837 14.4229 29.0837 14.1448 29.4091L9.37103 34.9957C9.27067 35.1132 9.2157 35.2598 9.21527 35.4112C9.21485 35.5625 9.26901 35.7095 9.36871 35.8274L14.1425 41.4752C14.4207 41.8043 14.9474 41.8043 15.2255 41.4751L19.9986 35.8273C20.0982 35.7094 20.1524 35.5625 20.1519 35.4112C20.1515 35.2598 20.0966 35.1132 19.9963 34.9958Z" fill="#FA184B"/>
<path d="M15.2232 29.4089C15.0827 29.2444 14.8799 29.1634 14.6778 29.1651L14.6778 41.7215C14.8811 41.7232 15.085 41.6412 15.2255 41.4749L19.9985 35.8271C20.0982 35.7092 20.1524 35.5622 20.1519 35.4109C20.1515 35.2595 20.0965 35.1129 19.9962 34.9955L15.2232 29.4089Z" fill="#D3003C"/>
</g>
<rect x="0.86778" y="0.260114" width="87.7836" height="63.4798" rx="4.60064" stroke="#E0E4F0" stroke-width="0.520228"/>
<defs>
<linearGradient id="paint0_linear_436_3953" x1="96.9134" y1="1.20087" x2="65.3389" y2="89.9452" gradientUnits="userSpaceOnUse">
<stop stop-color="#F1F6F7"/>
<stop offset="1" stop-color="#E3E8E9"/>
</linearGradient>
<clipPath id="clip0_436_3953">
<rect x="0.607666" width="88.3038" height="64" rx="4.86076" fill="white"/>
</clipPath>
</defs>
</svg>
