<svg width="89" height="64" viewBox="0 0 89 64" fill="none" xmlns="http://www.w3.org/2000/svg">
<g clip-path="url(#clip0_436_3952)">
<rect x="0.607666" width="88.3038" height="64" rx="4.86076" fill="url(#paint0_linear_436_3952)"/>
<path d="M12.9459 24.243C12.3464 24.243 11.7064 24.1539 11.0259 23.9757C10.3454 23.7813 9.7864 23.5058 9.34893 23.1494C9.1383 22.9711 8.96817 22.7443 8.83855 22.4689C8.72513 22.1772 8.66842 21.9018 8.66842 21.6425C8.66842 21.3671 8.78184 21.1078 9.00868 20.8648C9.25171 20.6218 9.59197 20.5003 10.0294 20.5003C10.3211 20.5003 10.6856 20.6542 11.1231 20.962C11.3823 21.1241 11.6659 21.2699 11.9737 21.3995C12.2816 21.5291 12.5975 21.5939 12.9216 21.5939C13.6993 21.5939 14.3717 21.4562 14.9388 21.1808C15.5059 20.8891 15.9434 20.4922 16.2512 19.9899C16.5591 19.4876 16.713 18.8962 16.713 18.2157C16.713 17.6 16.5672 17.0734 16.2755 16.636C16.0001 16.1985 15.6274 15.8582 15.1575 15.6152C14.7039 15.3722 14.2097 15.2506 13.675 15.2506C13.1727 15.2506 12.7353 15.3316 12.3626 15.4937C11.9899 15.6557 11.6497 15.8258 11.3418 16.0041C11.034 16.1661 10.7261 16.2471 10.4183 16.2471C9.88361 16.2471 9.48665 16.1337 9.22741 15.9068C8.96817 15.6638 8.80615 15.3803 8.74134 15.0562C8.67653 14.7322 8.66032 14.4405 8.69273 14.1813L9.44615 8.27545C9.51096 7.93519 9.67299 7.65975 9.93223 7.44912C10.2077 7.22228 10.5317 7.10886 10.9044 7.10886L17.9282 7.10887C18.317 7.10887 18.6411 7.23849 18.9003 7.49773C19.1596 7.75697 19.2892 8.08102 19.2892 8.46988C19.2892 8.84254 19.1596 9.15849 18.9003 9.41773C18.6411 9.66076 18.317 9.78228 17.9282 9.78228L11.6578 9.78228L11.9251 9.56355L11.2689 14.4972L10.953 13.5737C11.0502 13.4116 11.2608 13.2577 11.5849 13.1119C11.9089 12.9661 12.2816 12.8446 12.7029 12.7473C13.1241 12.6339 13.5373 12.5772 13.9423 12.5772C15.0279 12.5772 16.0001 12.8284 16.8588 13.3306C17.7175 13.8167 18.3899 14.4891 18.876 15.3479C19.3783 16.1904 19.6294 17.1463 19.6294 18.2157C19.6294 19.4309 19.354 20.4922 18.8031 21.3995C18.2522 22.3068 17.4745 23.0116 16.4699 23.5139C15.4816 24 14.3069 24.243 12.9459 24.243Z" fill="#D3003C"/>
<path d="M83.1182 32.6684L63.8492 10.6825C62.7265 9.40146 60.6185 9.40146 59.4959 10.6822L40.2238 32.6682C39.8187 33.1304 39.5967 33.7075 39.595 34.3032C39.5933 34.8989 39.8119 35.4771 40.2144 35.9413L59.4865 58.1681C60.6096 59.4632 62.7357 59.4632 63.8586 58.1679L83.1276 35.9411C83.5299 35.4769 83.7485 34.8988 83.7468 34.3032C83.7451 33.7076 83.5232 33.1306 83.1182 32.6684Z" fill="#FA184B"/>
<path d="M63.8492 10.6813C63.282 10.0341 62.4634 9.71504 61.6474 9.72178L61.6474 59.1373C62.4681 59.144 63.2914 58.8214 63.8586 58.1669L83.1276 35.9401C83.53 35.4759 83.7486 34.8978 83.7469 34.3021C83.7452 33.7065 83.5233 33.1294 83.1182 32.6673L63.8492 10.6813Z" fill="#D3003C"/>
<path d="M19.9963 34.9958L15.2232 29.4092C14.9451 29.0837 14.4229 29.0837 14.1448 29.4091L9.37103 34.9957C9.27067 35.1132 9.2157 35.2598 9.21527 35.4112C9.21485 35.5625 9.26901 35.7095 9.36871 35.8274L14.1425 41.4752C14.4207 41.8043 14.9474 41.8043 15.2255 41.4751L19.9986 35.8273C20.0982 35.7094 20.1524 35.5625 20.1519 35.4112C20.1515 35.2598 20.0966 35.1132 19.9963 34.9958Z" fill="#FA184B"/>
<path d="M15.2232 29.4089C15.0827 29.2444 14.8799 29.1634 14.6778 29.1651L14.6778 41.7215C14.8811 41.7232 15.085 41.6412 15.2255 41.4749L19.9985 35.8271C20.0982 35.7092 20.1524 35.5622 20.1519 35.4109C20.1515 35.2595 20.0965 35.1129 19.9962 34.9955L15.2232 29.4089Z" fill="#D3003C"/>
</g>
<rect x="0.86778" y="0.260114" width="87.7836" height="63.4798" rx="4.60064" stroke="#E0E4F0" stroke-width="0.520228"/>
<defs>
<linearGradient id="paint0_linear_436_3952" x1="96.9134" y1="1.20087" x2="65.3389" y2="89.9452" gradientUnits="userSpaceOnUse">
<stop stop-color="#F1F6F7"/>
<stop offset="1" stop-color="#E3E8E9"/>
</linearGradient>
<clipPath id="clip0_436_3952">
<rect x="0.607666" width="88.3038" height="64" rx="4.86076" fill="white"/>
</clipPath>
</defs>
</svg>
