<svg width="89" height="64" viewBox="0 0 89 64" fill="none" xmlns="http://www.w3.org/2000/svg">
<g clip-path="url(#clip0_436_3971)">
<rect x="0.214844" width="88.3038" height="64" rx="4.86076" fill="url(#paint0_linear_436_3971)"/>
<path d="M12.5531 24.243C11.9536 24.243 11.3136 24.1539 10.6331 23.9757C9.95255 23.7813 9.39357 23.5058 8.9561 23.1494C8.74547 22.9711 8.57534 22.7443 8.44572 22.4689C8.3323 22.1772 8.27559 21.9018 8.27559 21.6425C8.27559 21.3671 8.38901 21.1078 8.61585 20.8648C8.85888 20.6218 9.19914 20.5003 9.63661 20.5003C9.92825 20.5003 10.2928 20.6542 10.7303 20.962C10.9895 21.1241 11.2731 21.2699 11.5809 21.3995C11.8888 21.5291 12.2047 21.5939 12.5288 21.5939C13.3065 21.5939 13.9789 21.4562 14.546 21.1808C15.1131 20.8891 15.5505 20.4922 15.8584 19.9899C16.1662 19.4876 16.3202 18.8962 16.3202 18.2157C16.3202 17.6 16.1743 17.0734 15.8827 16.636C15.6072 16.1985 15.2346 15.8582 14.7647 15.6152C14.311 15.3722 13.8169 15.2506 13.2822 15.2506C12.7799 15.2506 12.3424 15.3316 11.9698 15.4937C11.5971 15.6557 11.2569 15.8258 10.949 16.0041C10.6412 16.1661 10.3333 16.2471 10.0255 16.2471C9.49079 16.2471 9.09382 16.1337 8.83458 15.9068C8.57534 15.6638 8.41332 15.3803 8.34851 15.0562C8.2837 14.7322 8.26749 14.4405 8.2999 14.1813L9.05332 8.27545C9.11813 7.93519 9.28016 7.65975 9.5394 7.44912C9.81484 7.22228 10.1389 7.10886 10.5115 7.10886L17.5353 7.10887C17.9242 7.10887 18.2483 7.23849 18.5075 7.49773C18.7667 7.75697 18.8964 8.08102 18.8964 8.46988C18.8964 8.84254 18.7667 9.15849 18.5075 9.41773C18.2483 9.66076 17.9242 9.78228 17.5353 9.78228L11.265 9.78228L11.5323 9.56355L10.8761 14.4972L10.5602 13.5737C10.6574 13.4116 10.868 13.2577 11.1921 13.1119C11.5161 12.9661 11.8888 12.8446 12.31 12.7473C12.7313 12.6339 13.1445 12.5772 13.5495 12.5772C14.6351 12.5772 15.6072 12.8284 16.466 13.3306C17.3247 13.8167 17.9971 14.4891 18.4832 15.3479C18.9855 16.1904 19.2366 17.1463 19.2366 18.2157C19.2366 19.4309 18.9612 20.4922 18.4103 21.3995C17.8594 22.3068 17.0817 23.0116 16.0771 23.5139C15.0888 24 13.9141 24.243 12.5531 24.243Z" fill="#D3003C"/>
<path d="M83.3541 24.1123C83.3541 16.1647 78.2367 9.72173 71.9243 9.72173C68.1421 9.72173 64.7893 12.035 62.7091 15.5989C61.9969 16.819 60.5288 16.819 59.8166 15.5989C57.7364 12.035 54.3836 9.72173 50.6014 9.72173C43.9752 9.69942 39.204 16.8195 39.204 25.1993H39.2022C39.2022 41.6017 53.2886 53.9877 58.9531 58.3052C59.6618 58.8456 60.4735 59.1338 61.3018 59.1393C62.1301 59.1448 62.9441 58.8674 63.6573 58.3364C69.3699 54.0911 83.3541 41.7857 83.3541 24.1123Z" fill="#FF5F66"/>
<path d="M71.9244 9.72168C68.1421 9.72168 64.7893 12.035 62.7092 15.5988C62.3564 16.2032 61.8181 16.5074 61.2781 16.513L61.2781 59.1382C62.1142 59.1492 62.9369 58.8721 63.6571 58.3366C69.3701 54.0913 83.3541 41.7859 83.3541 24.1125C83.3541 16.1644 78.2367 9.72168 71.9244 9.72168Z" fill="#FA184B"/>
<path d="M19.7592 32.8216C19.7592 30.8022 18.4915 29.1651 16.9279 29.1651C15.9911 29.1651 15.1605 29.7529 14.6453 30.6584C14.4688 30.9685 14.1052 30.9685 13.9288 30.6584C13.4135 29.7529 12.583 29.1651 11.6461 29.1651C10.0048 29.1594 8.8229 30.9686 8.8229 33.0979L8.82245 33.0979C8.82245 37.2657 12.3117 40.4129 13.7149 41.51C13.8904 41.6473 14.0915 41.7205 14.2967 41.7219C14.5018 41.7233 14.7035 41.6528 14.8801 41.5179C16.2952 40.4392 19.7592 37.3124 19.7592 32.8216Z" fill="#FF5F66"/>
<path d="M16.9279 29.165C15.9911 29.165 15.1606 29.7528 14.6453 30.6584C14.5579 30.812 14.4246 30.8893 14.2908 30.8907L14.2908 41.7216C14.4979 41.7244 14.7017 41.654 14.8801 41.518C16.2952 40.4392 19.7592 37.3125 19.7592 32.8217C19.7592 30.8021 18.4916 29.165 16.9279 29.165Z" fill="#FA184B"/>
</g>
<rect x="0.474958" y="0.260114" width="87.7836" height="63.4798" rx="4.60064" stroke="#E0E4F0" stroke-width="0.520228"/>
<defs>
<linearGradient id="paint0_linear_436_3971" x1="96.5206" y1="1.20087" x2="64.9461" y2="89.9452" gradientUnits="userSpaceOnUse">
<stop stop-color="#F1F6F7"/>
<stop offset="1" stop-color="#E3E8E9"/>
</linearGradient>
<clipPath id="clip0_436_3971">
<rect x="0.214844" width="88.3038" height="64" rx="4.86076" fill="white"/>
</clipPath>
</defs>
</svg>
