<svg width="89" height="64" viewBox="0 0 89 64" fill="none" xmlns="http://www.w3.org/2000/svg">
<g clip-path="url(#clip0_436_3936)">
<rect width="88.3038" height="64" rx="4.86076" fill="url(#paint0_linear_436_3936)"/>
<path d="M12.3382 24.243C11.7387 24.243 11.0987 24.1539 10.4182 23.9757C9.73772 23.7813 9.17873 23.5058 8.74126 23.1494C8.53063 22.9711 8.3605 22.7443 8.23088 22.4689C8.11747 22.1772 8.06076 21.9018 8.06076 21.6425C8.06076 21.3671 8.17418 21.1078 8.40101 20.8648C8.64405 20.6218 8.9843 20.5003 9.42177 20.5003C9.71342 20.5003 10.078 20.6542 10.5154 20.962C10.7747 21.1241 11.0582 21.2699 11.3661 21.3995C11.6739 21.5291 11.9899 21.5939 12.3139 21.5939C13.0916 21.5939 13.764 21.4562 14.3311 21.1808C14.8982 20.8891 15.3357 20.4922 15.6435 19.9899C15.9514 19.4876 16.1053 18.8962 16.1053 18.2157C16.1053 17.6 15.9595 17.0734 15.6678 16.636C15.3924 16.1985 15.0197 15.8582 14.5499 15.6152C14.0962 15.3722 13.602 15.2506 13.0673 15.2506C12.5651 15.2506 12.1276 15.3316 11.7549 15.4937C11.3823 15.6557 11.042 15.8258 10.7342 16.0041C10.4263 16.1661 10.1185 16.2471 9.81063 16.2471C9.27595 16.2471 8.87899 16.1337 8.61975 15.9068C8.36051 15.6638 8.19848 15.3803 8.13367 15.0562C8.06886 14.7322 8.05266 14.4405 8.08506 14.1813L8.83848 8.27545C8.90329 7.93519 9.06532 7.65975 9.32456 7.44912C9.6 7.22228 9.92405 7.10886 10.2967 7.10886L17.3205 7.10887C17.7094 7.10887 18.0334 7.23849 18.2927 7.49773C18.5519 7.75697 18.6815 8.08102 18.6815 8.46988C18.6815 8.84254 18.5519 9.15849 18.2927 9.41773C18.0334 9.66076 17.7094 9.78228 17.3205 9.78228L11.0501 9.78228L11.3175 9.56355L10.6613 14.4972L10.3453 13.5737C10.4425 13.4116 10.6532 13.2577 10.9772 13.1119C11.3013 12.9661 11.6739 12.8446 12.0952 12.7473C12.5165 12.6339 12.9296 12.5772 13.3347 12.5772C14.4203 12.5772 15.3924 12.8284 16.2511 13.3306C17.1099 13.8167 17.7823 14.4891 18.2684 15.3479C18.7706 16.1904 19.0218 17.1463 19.0218 18.2157C19.0218 19.4309 18.7463 20.4922 18.1954 21.3995C17.6446 22.3068 16.8668 23.0116 15.8623 23.5139C14.8739 24 13.6992 24.243 12.3382 24.243Z" fill="#303940"/>
<path d="M78.1864 24.2259C72.8761 20.0135 67.9043 14.8685 64.7038 11.3374C62.7526 9.18455 59.3996 9.18296 57.4462 11.3335C54.2418 14.8612 49.2649 20.0013 43.9506 24.208C40.8215 26.685 38.9894 30.4103 38.9873 34.3586C38.9837 41.3663 44.7611 47.05 51.8915 47.0538C52.0262 47.0538 52.16 47.0511 52.2933 47.0456C54.0549 46.9719 55.7327 46.3591 57.1568 45.3484L57.1568 51.2464L56.4712 51.2464C54.3132 51.2464 52.564 53.0135 52.564 55.1929C52.564 57.3726 54.3135 59.1394 56.4712 59.1394L65.6567 59.1394C67.8147 59.1394 69.5639 57.3724 69.5639 55.1929C69.5639 53.0132 67.8145 51.2464 65.6567 51.2464L64.9714 51.2464L64.9714 45.361C66.3918 46.3684 68.0653 46.9797 69.8222 47.0547C69.9549 47.0604 70.0882 47.0634 70.2222 47.0634C77.3526 47.067 83.1356 41.3892 83.1392 34.3816C83.1408 30.4333 81.3125 26.7059 78.1864 24.2259Z" fill="#555F65"/>
<path d="M78.1864 24.2259C72.8761 20.0135 67.9044 14.8684 64.7039 11.3373C63.717 10.2486 62.3716 9.712 61.03 9.72382L61.03 59.1393L65.6568 59.1393C67.8147 59.1393 69.564 57.3723 69.564 55.1928C69.564 53.0132 67.8145 51.2464 65.6568 51.2464L64.9714 51.2464L64.9714 45.3609C66.3918 46.3684 68.0654 46.9796 69.8223 47.0547C69.9549 47.0604 70.0882 47.0633 70.2222 47.0633C77.3527 47.067 83.1357 41.3892 83.1393 34.3815C83.1409 30.4332 81.3126 26.7058 78.1864 24.2259Z" fill="#303940"/>
<path d="M18.3175 32.8505C17.0021 31.7801 15.7705 30.4728 14.9777 29.5756C14.4944 29.0286 13.6639 29.0282 13.18 29.5746C12.3862 30.471 11.1534 31.777 9.83703 32.8459C9.06193 33.4753 8.60811 34.4219 8.6076 35.4251C8.60671 37.2057 10.0378 38.6499 11.8041 38.6509C11.8374 38.6509 11.8706 38.6502 11.9036 38.6488C12.3399 38.6301 12.7555 38.4744 13.1083 38.2176L13.1083 39.7162L12.9385 39.7162C12.4039 39.7162 11.9706 40.1652 11.9706 40.719C11.9706 41.2728 12.404 41.7218 12.9385 41.7218L15.2138 41.7218C15.7483 41.7218 16.1816 41.2728 16.1816 40.719C16.1816 40.1652 15.7483 39.7162 15.2138 39.7162L15.044 39.7162L15.044 38.2208C15.3959 38.4768 15.8104 38.6321 16.2456 38.6511C16.2785 38.6526 16.3115 38.6533 16.3447 38.6533C18.1109 38.6543 19.5434 37.2116 19.5443 35.431C19.5447 34.4277 19.0918 33.4806 18.3175 32.8505Z" fill="#555F65"/>
<path d="M18.3174 32.85C17.0021 31.7796 15.7705 30.4723 14.9777 29.5751C14.7333 29.2984 14.4 29.1621 14.0677 29.1651L14.0677 41.7213L15.2138 41.7213C15.7483 41.7213 16.1816 41.2723 16.1816 40.7185C16.1816 40.1646 15.7483 39.7157 15.2138 39.7157L15.044 39.7157L15.044 38.2202C15.3958 38.4762 15.8104 38.6315 16.2456 38.6506C16.2784 38.6521 16.3115 38.6528 16.3447 38.6528C18.1109 38.6537 19.5434 37.2111 19.5443 35.4305C19.5447 34.4272 19.0918 33.4801 18.3174 32.85Z" fill="#303940"/>
</g>
<rect x="0.260114" y="0.260114" width="87.7836" height="63.4798" rx="4.60064" stroke="#E0E4F0" stroke-width="0.520228"/>
<defs>
<linearGradient id="paint0_linear_436_3936" x1="96.3057" y1="1.20087" x2="64.7312" y2="89.9452" gradientUnits="userSpaceOnUse">
<stop stop-color="#F1F6F7"/>
<stop offset="1" stop-color="#E3E8E9"/>
</linearGradient>
<clipPath id="clip0_436_3936">
<rect width="88.3038" height="64" rx="4.86076" fill="white"/>
</clipPath>
</defs>
</svg>
