<svg width="89" height="64" viewBox="0 0 89 64" fill="none" xmlns="http://www.w3.org/2000/svg">
<g clip-path="url(#clip0_436_3948)">
<rect x="0.303833" width="88.3038" height="64" rx="4.86076" fill="url(#paint0_linear_436_3948)"/>
<path d="M13.7114 24.243C12.8365 24.243 12.0426 24.0648 11.3297 23.7084C10.6329 23.3357 10.0335 22.8334 9.53117 22.2015C9.0451 21.5696 8.66434 20.8567 8.38889 20.0628C8.12965 19.2689 8.00003 18.4506 8.00003 17.6081C8.00003 17.0572 8.05674 16.3929 8.17016 15.6152C8.29978 14.8375 8.51852 14.0192 8.82637 13.1605C9.13421 12.3018 9.56358 11.4673 10.1145 10.6572C10.6654 9.84709 11.3621 9.11798 12.2046 8.46988C13.0633 7.82178 14.1084 7.3276 15.3398 6.98735C15.5342 6.93874 15.7205 6.91444 15.8988 6.91444C16.2714 6.91444 16.6036 7.01165 16.8952 7.20608C17.2031 7.40051 17.357 7.75697 17.357 8.27545C17.357 8.6319 17.2355 8.94785 16.9924 9.2233C16.7656 9.48254 16.4578 9.66887 16.0689 9.78228C15.518 9.94431 14.9671 10.1873 14.4162 10.5114C13.8816 10.8192 13.3793 11.2 12.9094 11.6537C12.4557 12.1073 12.0588 12.6258 11.7185 13.2091C11.3945 13.7762 11.1595 14.3919 11.0137 15.0562L10.3575 15.0319C10.5843 14.7565 10.8598 14.4648 11.1838 14.157C11.5241 13.8329 11.9291 13.5575 12.399 13.3306C12.8851 13.0876 13.4522 12.9661 14.1003 12.9661C14.7322 12.9661 15.356 13.1119 15.9717 13.4035C16.6036 13.6952 17.1707 14.1003 17.6729 14.6187C18.1914 15.121 18.6046 15.7205 18.9124 16.4172C19.2203 17.0977 19.3742 17.8268 19.3742 18.6046C19.3742 19.6415 19.115 20.5894 18.5965 21.4481C18.0942 22.3068 17.4137 22.9873 16.555 23.4896C15.7124 23.9919 14.7646 24.243 13.7114 24.243ZM13.7114 21.5696C14.2299 21.5696 14.6917 21.44 15.0967 21.1808C15.518 20.9215 15.8502 20.5651 16.0932 20.1114C16.3362 19.6577 16.4578 19.1554 16.4578 18.6046C16.4578 18.0375 16.3362 17.5352 16.0932 17.0977C15.8502 16.6441 15.518 16.2876 15.0967 16.0284C14.6917 15.7691 14.2299 15.6395 13.7114 15.6395C13.1929 15.6395 12.7231 15.7691 12.3018 16.0284C11.8967 16.2876 11.5727 16.6441 11.3297 17.0977C11.0866 17.5352 10.9651 18.0375 10.9651 18.6046C10.9651 19.1554 11.0866 19.6577 11.3297 20.1114C11.5727 20.5651 11.8967 20.9215 12.3018 21.1808C12.7231 21.44 13.1929 21.5696 13.7114 21.5696Z" fill="#303940"/>
<path d="M72.1284 25.943H72.1184C71.687 25.9435 71.3926 25.5112 71.5617 25.1146C72.2088 23.5982 72.5271 21.9084 72.4255 20.1335C72.1017 14.4845 67.4541 9.93909 61.7954 9.7295C55.4897 9.49576 50.3042 14.5346 50.3042 20.7835C50.3032 22.2744 50.6057 23.7499 51.1934 25.1202C51.3622 25.5144 51.0629 25.9444 50.6339 25.9432H50.6057C44.208 25.9432 39.0506 31.2492 39.2998 37.6973C39.5247 43.5165 44.2408 48.2706 50.0622 48.5429C52.9124 48.6762 55.5423 47.7535 57.598 46.1347L57.598 51.5934L55.6597 51.5934C53.5744 51.5934 51.884 53.2825 51.884 55.3663C51.884 57.45 53.5744 59.1392 55.6597 59.1392L67.0872 59.1392C69.1725 59.1392 70.8629 57.45 70.8629 55.3663C70.8629 53.2825 69.1725 51.5934 67.0872 51.5934L65.1489 51.5934L65.1489 46.1451C67.2028 47.7573 69.8277 48.676 72.6718 48.5429C78.4933 48.2706 83.2093 43.5165 83.4342 37.6973C83.6835 31.2489 78.526 25.943 72.1284 25.943Z" fill="#303940"/>
<path d="M72.1283 25.9409H72.1184C71.6869 25.9414 71.3925 25.5091 71.5616 25.1125C72.2087 23.5962 72.5271 21.9063 72.4255 20.1315C72.1017 14.4824 67.4541 9.937 61.7954 9.72741C61.6383 9.72242 61.4811 9.72069 61.324 9.72222L61.324 59.1369L67.0874 59.1369C69.1727 59.1369 70.8631 57.4477 70.8631 55.364C70.8631 53.2802 69.1727 51.5911 67.0874 51.5911L65.1491 51.5911L65.1491 46.1428C67.203 47.755 69.8279 48.6737 72.672 48.5406C78.4935 48.2683 83.2095 43.5142 83.4344 37.695C83.6834 31.2468 78.526 25.9409 72.1283 25.9409Z" fill="#1E2123"/>
<path d="M17.0454 33.2869L17.0429 33.2869C16.9361 33.287 16.8631 33.1771 16.905 33.0763C17.0653 32.6911 17.1442 32.2617 17.119 31.8107C17.0388 30.3753 15.8876 29.2203 14.4859 29.167C12.9239 29.1076 11.6394 30.388 11.6394 31.9758C11.6392 32.3547 11.7141 32.7296 11.8597 33.0778C11.9015 33.1779 11.8274 33.2872 11.7211 33.2869L11.7141 33.2869C10.1294 33.2869 8.85184 34.6351 8.91358 36.2736C8.96929 37.7523 10.1375 38.9603 11.5795 39.0294C12.2855 39.0633 12.9369 38.8289 13.4461 38.4175L13.4461 39.8046L12.966 39.8046C12.4495 39.8046 12.0308 40.2338 12.0308 40.7633C12.0308 41.2927 12.4495 41.7219 12.966 41.7219L15.7967 41.7219C16.3132 41.7219 16.7319 41.2927 16.7319 40.7633C16.7319 40.2338 16.3132 39.8046 15.7967 39.8046L15.3166 39.8046L15.3166 38.4202C15.8253 38.8298 16.4755 39.0633 17.18 39.0294C18.622 38.9603 19.7902 37.7523 19.8459 36.2736C19.9077 34.6351 18.6301 33.2869 17.0454 33.2869Z" fill="#303940"/>
<path d="M17.0454 33.2863L17.0429 33.2863C16.936 33.2864 16.8631 33.1766 16.905 33.0758C17.0653 32.6905 17.1442 32.2611 17.119 31.8101C17.0388 30.3747 15.8875 29.2198 14.4859 29.1665C14.4469 29.1652 14.408 29.1648 14.3691 29.1652L14.3691 41.7214L15.7967 41.7214C16.3132 41.7214 16.732 41.2921 16.732 40.7627C16.732 40.2332 16.3132 39.804 15.7967 39.804L15.3166 39.804L15.3166 38.4196C15.8253 38.8292 16.4755 39.0627 17.1801 39.0289C18.6221 38.9597 19.7903 37.7517 19.846 36.273C19.9076 34.6345 18.6301 33.2863 17.0454 33.2863Z" fill="#1E2123"/>
</g>
<rect x="0.563947" y="0.260114" width="87.7836" height="63.4798" rx="4.60064" stroke="#E0E4F0" stroke-width="0.520228"/>
<defs>
<linearGradient id="paint0_linear_436_3948" x1="96.6095" y1="1.20087" x2="65.0351" y2="89.9452" gradientUnits="userSpaceOnUse">
<stop stop-color="#F1F6F7"/>
<stop offset="1" stop-color="#E3E8E9"/>
</linearGradient>
<clipPath id="clip0_436_3948">
<rect x="0.303833" width="88.3038" height="64" rx="4.86076" fill="white"/>
</clipPath>
</defs>
</svg>
