<svg width="89" height="64" viewBox="0 0 89 64" fill="none" xmlns="http://www.w3.org/2000/svg">
<g clip-path="url(#clip0_436_3951)">
<rect x="0.607666" width="88.3038" height="64" rx="4.86076" fill="url(#paint0_linear_436_3951)"/>
<path d="M14.0153 24.243C13.1403 24.243 12.3464 24.0648 11.6335 23.7084C10.9368 23.3357 10.3373 22.8334 9.83501 22.2015C9.34893 21.5696 8.96817 20.8567 8.69273 20.0628C8.43349 19.2689 8.30387 18.4506 8.30387 17.6081C8.30387 17.0572 8.36058 16.3929 8.474 15.6152C8.60362 14.8375 8.82235 14.0192 9.1302 13.1605C9.43805 12.3018 9.86741 11.4673 10.4183 10.6572C10.9692 9.84709 11.6659 9.11798 12.5084 8.46988C13.3672 7.82178 14.4122 7.3276 15.6436 6.98735C15.838 6.93874 16.0244 6.91444 16.2026 6.91444C16.5753 6.91444 16.9074 7.01165 17.1991 7.20608C17.5069 7.40051 17.6608 7.75697 17.6608 8.27545C17.6608 8.6319 17.5393 8.94785 17.2963 9.2233C17.0694 9.48254 16.7616 9.66887 16.3727 9.78228C15.8218 9.94431 15.271 10.1873 14.7201 10.5114C14.1854 10.8192 13.6831 11.2 13.2132 11.6537C12.7596 12.1073 12.3626 12.6258 12.0224 13.2091C11.6983 13.7762 11.4634 14.3919 11.3175 15.0562L10.6613 15.0319C10.8882 14.7565 11.1636 14.4648 11.4877 14.157C11.8279 13.8329 12.233 13.5575 12.7029 13.3306C13.1889 13.0876 13.756 12.9661 14.4041 12.9661C15.036 12.9661 15.6598 13.1119 16.2755 13.4035C16.9074 13.6952 17.4745 14.1003 17.9768 14.6187C18.4953 15.121 18.9084 15.7205 19.2163 16.4172C19.5241 17.0977 19.678 17.8268 19.678 18.6046C19.678 19.6415 19.4188 20.5894 18.9003 21.4481C18.398 22.3068 17.7175 22.9873 16.8588 23.4896C16.0163 23.9919 15.0684 24.243 14.0153 24.243ZM14.0153 21.5696C14.5337 21.5696 14.9955 21.44 15.4006 21.1808C15.8218 20.9215 16.154 20.5651 16.397 20.1114C16.6401 19.6577 16.7616 19.1554 16.7616 18.6046C16.7616 18.0375 16.6401 17.5352 16.397 17.0977C16.154 16.6441 15.8218 16.2876 15.4006 16.0284C14.9955 15.7691 14.5337 15.6395 14.0153 15.6395C13.4968 15.6395 13.0269 15.7691 12.6056 16.0284C12.2006 16.2876 11.8765 16.6441 11.6335 17.0977C11.3904 17.5352 11.2689 18.0375 11.2689 18.6046C11.2689 19.1554 11.3904 19.6577 11.6335 20.1114C11.8765 20.5651 12.2006 20.9215 12.6056 21.1808C13.0269 21.44 13.4968 21.5696 14.0153 21.5696Z" fill="#D3003C"/>
<path d="M83.1182 32.6684L63.8492 10.6825C62.7265 9.40146 60.6185 9.40146 59.4959 10.6822L40.2238 32.6682C39.8187 33.1304 39.5967 33.7075 39.595 34.3032C39.5933 34.8989 39.8119 35.4771 40.2144 35.9413L59.4865 58.1681C60.6096 59.4632 62.7357 59.4632 63.8586 58.1679L83.1276 35.9411C83.5299 35.4769 83.7485 34.8988 83.7468 34.3032C83.7451 33.7076 83.5232 33.1306 83.1182 32.6684Z" fill="#FA184B"/>
<path d="M63.8492 10.6813C63.282 10.0341 62.4634 9.71504 61.6474 9.72178L61.6474 59.1373C62.4681 59.144 63.2914 58.8214 63.8586 58.1669L83.1276 35.9401C83.53 35.4759 83.7486 34.8978 83.7469 34.3021C83.7452 33.7065 83.5233 33.1294 83.1182 32.6673L63.8492 10.6813Z" fill="#D3003C"/>
<path d="M19.9963 34.9958L15.2232 29.4092C14.9451 29.0837 14.4229 29.0837 14.1448 29.4091L9.37103 34.9957C9.27067 35.1132 9.2157 35.2598 9.21527 35.4112C9.21485 35.5625 9.26901 35.7095 9.36871 35.8274L14.1425 41.4752C14.4207 41.8043 14.9474 41.8043 15.2255 41.4751L19.9986 35.8273C20.0982 35.7094 20.1524 35.5625 20.1519 35.4112C20.1515 35.2598 20.0966 35.1132 19.9963 34.9958Z" fill="#FA184B"/>
<path d="M15.2232 29.4089C15.0827 29.2444 14.8799 29.1634 14.6778 29.1651L14.6778 41.7215C14.8811 41.7232 15.085 41.6412 15.2255 41.4749L19.9985 35.8271C20.0982 35.7092 20.1524 35.5622 20.1519 35.4109C20.1515 35.2595 20.0965 35.1129 19.9962 34.9955L15.2232 29.4089Z" fill="#D3003C"/>
</g>
<rect x="0.86778" y="0.260114" width="87.7836" height="63.4798" rx="4.60064" stroke="#E0E4F0" stroke-width="0.520228"/>
<defs>
<linearGradient id="paint0_linear_436_3951" x1="96.9134" y1="1.20087" x2="65.3389" y2="89.9452" gradientUnits="userSpaceOnUse">
<stop stop-color="#F1F6F7"/>
<stop offset="1" stop-color="#E3E8E9"/>
</linearGradient>
<clipPath id="clip0_436_3951">
<rect x="0.607666" width="88.3038" height="64" rx="4.86076" fill="white"/>
</clipPath>
</defs>
</svg>
