<svg width="89" height="64" viewBox="0 0 89 64" fill="none" xmlns="http://www.w3.org/2000/svg">
<g clip-path="url(#clip0_436_3972)">
<rect x="0.214844" width="88.3038" height="64" rx="4.86076" fill="url(#paint0_linear_436_3972)"/>
<path d="M13.6224 24.243C12.7475 24.243 11.9536 24.0648 11.2407 23.7084C10.5439 23.3357 9.94445 22.8334 9.44218 22.2015C8.9561 21.5696 8.57534 20.8567 8.2999 20.0628C8.04066 19.2689 7.91104 18.4506 7.91104 17.6081C7.91104 17.0572 7.96775 16.3929 8.08117 15.6152C8.21079 14.8375 8.42952 14.0192 8.73737 13.1605C9.04522 12.3018 9.47458 11.4673 10.0255 10.6572C10.5764 9.84709 11.2731 9.11798 12.1156 8.46988C12.9743 7.82178 14.0194 7.3276 15.2508 6.98735C15.4452 6.93874 15.6315 6.91444 15.8098 6.91444C16.1824 6.91444 16.5146 7.01165 16.8062 7.20608C17.1141 7.40051 17.268 7.75697 17.268 8.27545C17.268 8.6319 17.1465 8.94785 16.9034 9.2233C16.6766 9.48254 16.3688 9.66887 15.9799 9.78228C15.429 9.94431 14.8781 10.1873 14.3272 10.5114C13.7926 10.8192 13.2903 11.2 12.8204 11.6537C12.3667 12.1073 11.9698 12.6258 11.6295 13.2091C11.3055 13.7762 11.0705 14.3919 10.9247 15.0562L10.2685 15.0319C10.4953 14.7565 10.7708 14.4648 11.0948 14.157C11.4351 13.8329 11.8402 13.5575 12.31 13.3306C12.7961 13.0876 13.3632 12.9661 14.0113 12.9661C14.6432 12.9661 15.267 13.1119 15.8827 13.4035C16.5146 13.6952 17.0817 14.1003 17.5839 14.6187C18.1024 15.121 18.5156 15.7205 18.8234 16.4172C19.1313 17.0977 19.2852 17.8268 19.2852 18.6046C19.2852 19.6415 19.026 20.5894 18.5075 21.4481C18.0052 22.3068 17.3247 22.9873 16.466 23.4896C15.6234 23.9919 14.6756 24.243 13.6224 24.243ZM13.6224 21.5696C14.1409 21.5696 14.6027 21.44 15.0077 21.1808C15.429 20.9215 15.7612 20.5651 16.0042 20.1114C16.2472 19.6577 16.3688 19.1554 16.3688 18.6046C16.3688 18.0375 16.2472 17.5352 16.0042 17.0977C15.7612 16.6441 15.429 16.2876 15.0077 16.0284C14.6027 15.7691 14.1409 15.6395 13.6224 15.6395C13.1039 15.6395 12.6341 15.7691 12.2128 16.0284C11.8077 16.2876 11.4837 16.6441 11.2407 17.0977C10.9976 17.5352 10.8761 18.0375 10.8761 18.6046C10.8761 19.1554 10.9976 19.6577 11.2407 20.1114C11.4837 20.5651 11.8077 20.9215 12.2128 21.1808C12.6341 21.44 13.1039 21.5696 13.6224 21.5696Z" fill="#D3003C"/>
<path d="M83.3541 24.1123C83.3541 16.1647 78.2367 9.72173 71.9243 9.72173C68.1421 9.72173 64.7893 12.035 62.7091 15.5989C61.9969 16.819 60.5288 16.819 59.8166 15.5989C57.7364 12.035 54.3836 9.72173 50.6014 9.72173C43.9752 9.69942 39.204 16.8195 39.204 25.1993H39.2022C39.2022 41.6017 53.2886 53.9877 58.9531 58.3052C59.6618 58.8456 60.4735 59.1338 61.3018 59.1393C62.1301 59.1448 62.9441 58.8674 63.6573 58.3364C69.3699 54.0911 83.3541 41.7857 83.3541 24.1123Z" fill="#FF5F66"/>
<path d="M71.9244 9.72168C68.1421 9.72168 64.7893 12.035 62.7092 15.5988C62.3564 16.2032 61.8181 16.5074 61.2781 16.513L61.2781 59.1382C62.1142 59.1492 62.9369 58.8721 63.6571 58.3366C69.3701 54.0913 83.3541 41.7859 83.3541 24.1125C83.3541 16.1644 78.2367 9.72168 71.9244 9.72168Z" fill="#FA184B"/>
<path d="M19.7592 32.8216C19.7592 30.8022 18.4915 29.1651 16.9279 29.1651C15.9911 29.1651 15.1605 29.7529 14.6453 30.6584C14.4688 30.9685 14.1052 30.9685 13.9288 30.6584C13.4135 29.7529 12.583 29.1651 11.6461 29.1651C10.0048 29.1594 8.8229 30.9686 8.8229 33.0979L8.82245 33.0979C8.82245 37.2657 12.3117 40.4129 13.7149 41.51C13.8904 41.6473 14.0915 41.7205 14.2967 41.7219C14.5018 41.7233 14.7035 41.6528 14.8801 41.5179C16.2952 40.4392 19.7592 37.3124 19.7592 32.8216Z" fill="#FF5F66"/>
<path d="M16.9279 29.165C15.9911 29.165 15.1606 29.7528 14.6453 30.6584C14.5579 30.812 14.4246 30.8893 14.2908 30.8907L14.2908 41.7216C14.4979 41.7244 14.7017 41.654 14.8801 41.518C16.2952 40.4392 19.7592 37.3125 19.7592 32.8217C19.7592 30.8021 18.4916 29.165 16.9279 29.165Z" fill="#FA184B"/>
</g>
<rect x="0.474958" y="0.260114" width="87.7836" height="63.4798" rx="4.60064" stroke="#E0E4F0" stroke-width="0.520228"/>
<defs>
<linearGradient id="paint0_linear_436_3972" x1="96.5206" y1="1.20087" x2="64.9461" y2="89.9452" gradientUnits="userSpaceOnUse">
<stop stop-color="#F1F6F7"/>
<stop offset="1" stop-color="#E3E8E9"/>
</linearGradient>
<clipPath id="clip0_436_3972">
<rect x="0.214844" width="88.3038" height="64" rx="4.86076" fill="white"/>
</clipPath>
</defs>
</svg>
