<svg width="89" height="64" viewBox="0 0 89 64" fill="none" xmlns="http://www.w3.org/2000/svg">
<g clip-path="url(#clip0_436_3935)">
<rect width="88.3038" height="64" rx="4.86076" fill="url(#paint0_linear_436_3935)"/>
<path d="M13.4076 24.243C12.5327 24.243 11.7387 24.0648 11.0258 23.7084C10.3291 23.3357 9.72962 22.8334 9.22734 22.2015C8.74126 21.5696 8.3605 20.8567 8.08506 20.0628C7.82582 19.2689 7.6962 18.4506 7.6962 17.6081C7.6962 17.0572 7.75291 16.3929 7.86633 15.6152C7.99595 14.8375 8.21468 14.0192 8.52253 13.1605C8.83038 12.3018 9.25975 11.4673 9.81063 10.6572C10.3615 9.84709 11.0582 9.11798 11.9008 8.46988C12.7595 7.82178 13.8046 7.3276 15.036 6.98735C15.2304 6.93874 15.4167 6.91444 15.5949 6.91444C15.9676 6.91444 16.2997 7.01165 16.5914 7.20608C16.8992 7.40051 17.0532 7.75697 17.0532 8.27545C17.0532 8.6319 16.9316 8.94785 16.6886 9.2233C16.4618 9.48254 16.1539 9.66887 15.7651 9.78228C15.2142 9.94431 14.6633 10.1873 14.1124 10.5114C13.5777 10.8192 13.0754 11.2 12.6056 11.6537C12.1519 12.1073 11.7549 12.6258 11.4147 13.2091C11.0906 13.7762 10.8557 14.3919 10.7099 15.0562L10.0537 15.0319C10.2805 14.7565 10.5559 14.4648 10.88 14.157C11.2203 13.8329 11.6253 13.5575 12.0952 13.3306C12.5813 13.0876 13.1484 12.9661 13.7965 12.9661C14.4284 12.9661 15.0522 13.1119 15.6678 13.4035C16.2997 13.6952 16.8668 14.1003 17.3691 14.6187C17.8876 15.121 18.3008 15.7205 18.6086 16.4172C18.9165 17.0977 19.0704 17.8268 19.0704 18.6046C19.0704 19.6415 18.8111 20.5894 18.2927 21.4481C17.7904 22.3068 17.1099 22.9873 16.2511 23.4896C15.4086 23.9919 14.4608 24.243 13.4076 24.243ZM13.4076 21.5696C13.9261 21.5696 14.3878 21.44 14.7929 21.1808C15.2142 20.9215 15.5463 20.5651 15.7894 20.1114C16.0324 19.6577 16.1539 19.1554 16.1539 18.6046C16.1539 18.0375 16.0324 17.5352 15.7894 17.0977C15.5463 16.6441 15.2142 16.2876 14.7929 16.0284C14.3878 15.7691 13.9261 15.6395 13.4076 15.6395C12.8891 15.6395 12.4192 15.7691 11.998 16.0284C11.5929 16.2876 11.2689 16.6441 11.0258 17.0977C10.7828 17.5352 10.6613 18.0375 10.6613 18.6046C10.6613 19.1554 10.7828 19.6577 11.0258 20.1114C11.2689 20.5651 11.5929 20.9215 11.998 21.1808C12.4192 21.44 12.8891 21.5696 13.4076 21.5696Z" fill="#303940"/>
<path d="M78.1864 24.2259C72.8761 20.0135 67.9043 14.8685 64.7038 11.3374C62.7526 9.18455 59.3996 9.18296 57.4462 11.3335C54.2418 14.8612 49.2649 20.0013 43.9506 24.208C40.8215 26.685 38.9894 30.4103 38.9873 34.3586C38.9837 41.3663 44.7611 47.05 51.8915 47.0538C52.0262 47.0538 52.16 47.0511 52.2933 47.0456C54.0549 46.9719 55.7327 46.3591 57.1568 45.3484L57.1568 51.2464L56.4712 51.2464C54.3132 51.2464 52.564 53.0135 52.564 55.1929C52.564 57.3726 54.3135 59.1394 56.4712 59.1394L65.6567 59.1394C67.8147 59.1394 69.5639 57.3724 69.5639 55.1929C69.5639 53.0132 67.8145 51.2464 65.6567 51.2464L64.9714 51.2464L64.9714 45.361C66.3918 46.3684 68.0653 46.9797 69.8222 47.0547C69.9549 47.0604 70.0882 47.0634 70.2222 47.0634C77.3526 47.067 83.1356 41.3892 83.1392 34.3816C83.1408 30.4333 81.3125 26.7059 78.1864 24.2259Z" fill="#555F65"/>
<path d="M78.1864 24.2259C72.8761 20.0135 67.9044 14.8684 64.7039 11.3373C63.717 10.2486 62.3716 9.712 61.03 9.72382L61.03 59.1393L65.6568 59.1393C67.8147 59.1393 69.564 57.3723 69.564 55.1928C69.564 53.0132 67.8145 51.2464 65.6568 51.2464L64.9714 51.2464L64.9714 45.3609C66.3918 46.3684 68.0654 46.9796 69.8223 47.0547C69.9549 47.0604 70.0882 47.0633 70.2222 47.0633C77.3527 47.067 83.1357 41.3892 83.1393 34.3815C83.1409 30.4332 81.3126 26.7058 78.1864 24.2259Z" fill="#303940"/>
<path d="M18.3175 32.8505C17.0021 31.7801 15.7705 30.4728 14.9777 29.5756C14.4944 29.0286 13.6639 29.0282 13.18 29.5746C12.3862 30.471 11.1534 31.777 9.83703 32.8459C9.06193 33.4753 8.60811 34.4219 8.6076 35.4251C8.60671 37.2057 10.0378 38.6499 11.8041 38.6509C11.8374 38.6509 11.8706 38.6502 11.9036 38.6488C12.3399 38.6301 12.7555 38.4744 13.1083 38.2176L13.1083 39.7162L12.9385 39.7162C12.4039 39.7162 11.9706 40.1652 11.9706 40.719C11.9706 41.2728 12.404 41.7218 12.9385 41.7218L15.2138 41.7218C15.7483 41.7218 16.1816 41.2728 16.1816 40.719C16.1816 40.1652 15.7483 39.7162 15.2138 39.7162L15.044 39.7162L15.044 38.2208C15.3959 38.4768 15.8104 38.6321 16.2456 38.6511C16.2785 38.6526 16.3115 38.6533 16.3447 38.6533C18.1109 38.6543 19.5434 37.2116 19.5443 35.431C19.5447 34.4277 19.0918 33.4806 18.3175 32.8505Z" fill="#555F65"/>
<path d="M18.3174 32.85C17.0021 31.7796 15.7705 30.4723 14.9777 29.5751C14.7333 29.2984 14.4 29.1621 14.0677 29.1651L14.0677 41.7213L15.2138 41.7213C15.7483 41.7213 16.1816 41.2723 16.1816 40.7185C16.1816 40.1646 15.7483 39.7157 15.2138 39.7157L15.044 39.7157L15.044 38.2202C15.3958 38.4762 15.8104 38.6315 16.2456 38.6506C16.2784 38.6521 16.3115 38.6528 16.3447 38.6528C18.1109 38.6537 19.5434 37.2111 19.5443 35.4305C19.5447 34.4272 19.0918 33.4801 18.3174 32.85Z" fill="#303940"/>
</g>
<rect x="0.260114" y="0.260114" width="87.7836" height="63.4798" rx="4.60064" stroke="#E0E4F0" stroke-width="0.520228"/>
<defs>
<linearGradient id="paint0_linear_436_3935" x1="96.3057" y1="1.20087" x2="64.7312" y2="89.9452" gradientUnits="userSpaceOnUse">
<stop stop-color="#F1F6F7"/>
<stop offset="1" stop-color="#E3E8E9"/>
</linearGradient>
<clipPath id="clip0_436_3935">
<rect width="88.3038" height="64" rx="4.86076" fill="white"/>
</clipPath>
</defs>
</svg>
