<svg width="89" height="64" viewBox="0 0 89 64" fill="none" xmlns="http://www.w3.org/2000/svg">
<g clip-path="url(#clip0_436_3957)">
<rect x="0.607666" width="88.3038" height="64" rx="4.86076" fill="url(#paint0_linear_436_3957)"/>
<path d="M11.9494 24.1215C11.5444 24.1215 11.1879 23.9919 10.8801 23.7327C10.5884 23.4572 10.4426 23.117 10.4426 22.7119C10.4426 22.4851 10.4912 22.2663 10.5884 22.0557L16.5429 9.15038L16.8102 9.80659L9.7864 9.80658C9.39754 9.80658 9.07349 9.67696 8.81425 9.41772C8.55501 9.15848 8.42539 8.83443 8.42539 8.44557C8.42539 8.07291 8.55501 7.76506 8.81425 7.52203C9.07349 7.26279 9.39754 7.13317 9.7864 7.13317L18.2441 7.13317C18.6654 7.13317 19.0299 7.27089 19.3378 7.54633C19.6618 7.80558 19.8239 8.14583 19.8239 8.56709C19.8239 8.77773 19.7753 8.99646 19.678 9.2233L13.2861 23.198C13.1727 23.4896 12.9864 23.7165 12.7272 23.8785C12.4841 24.0405 12.2249 24.1215 11.9494 24.1215Z" fill="#303940"/>
<path d="M72.4322 25.943H72.4223C71.9908 25.9435 71.6964 25.5112 71.8655 25.1146C72.5126 23.5982 72.8309 21.9084 72.7293 20.1335C72.4056 14.4845 67.7579 9.93909 62.0993 9.7295C55.7935 9.49576 50.6081 14.5346 50.6081 20.7835C50.607 22.2744 50.9095 23.7499 51.4972 25.1202C51.6661 25.5144 51.3667 25.9444 50.9377 25.9432H50.9095C44.5119 25.9432 39.3544 31.2492 39.6037 37.6973C39.8285 43.5165 44.5446 48.2706 50.366 48.5429C53.2163 48.6762 55.8461 47.7535 57.9018 46.1347L57.9018 51.5934L55.9635 51.5934C53.8782 51.5934 52.1878 53.2825 52.1878 55.3663C52.1878 57.45 53.8782 59.1392 55.9635 59.1392L67.391 59.1392C69.4763 59.1392 71.1667 57.45 71.1667 55.3663C71.1667 53.2825 69.4763 51.5934 67.391 51.5934L65.4527 51.5934L65.4527 46.1451C67.5066 47.7573 70.1315 48.676 72.9757 48.5429C78.7971 48.2706 83.5132 43.5165 83.738 37.6973C83.9873 31.2489 78.8298 25.943 72.4322 25.943Z" fill="#303940"/>
<path d="M72.4322 25.9409H72.4222C71.9908 25.9414 71.6964 25.5091 71.8655 25.1125C72.5126 23.5962 72.8309 21.9063 72.7293 20.1315C72.4055 14.4824 67.7579 9.937 62.0992 9.72741C61.9421 9.72242 61.785 9.72069 61.6278 9.72222L61.6278 59.1369L67.3912 59.1369C69.4765 59.1369 71.1669 57.4477 71.1669 55.364C71.1669 53.2802 69.4765 51.5911 67.3912 51.5911L65.4529 51.5911L65.4529 46.1428C67.5068 47.755 70.1317 48.6737 72.9758 48.5406C78.7973 48.2683 83.5133 43.5142 83.7382 37.695C83.9873 31.2468 78.8298 25.9409 72.4322 25.9409Z" fill="#1E2123"/>
<path d="M17.3492 33.2869L17.3468 33.2869C17.2399 33.287 17.167 33.1771 17.2089 33.0763C17.3692 32.6911 17.448 32.2617 17.4228 31.8107C17.3426 30.3753 16.1914 29.2203 14.7897 29.167C13.2277 29.1076 11.9433 30.388 11.9433 31.9758C11.943 32.3547 12.0179 32.7296 12.1635 33.0778C12.2053 33.1779 12.1312 33.2872 12.0249 33.2869L12.0179 33.2869C10.4332 33.2869 9.15567 34.6351 9.21742 36.2736C9.27312 37.7523 10.4413 38.9603 11.8833 39.0294C12.5893 39.0633 13.2408 38.8289 13.75 38.4175L13.75 39.8046L13.2698 39.8046C12.7533 39.8046 12.3346 40.2338 12.3346 40.7633C12.3346 41.2927 12.7533 41.7219 13.2698 41.7219L16.1005 41.7219C16.617 41.7219 17.0358 41.2927 17.0358 40.7633C17.0358 40.2338 16.6171 39.8046 16.1005 39.8046L15.6204 39.8046L15.6204 38.4202C16.1291 38.8298 16.7793 39.0633 17.4839 39.0294C18.9259 38.9603 20.0941 37.7523 20.1498 36.2736C20.2115 34.6351 18.934 33.2869 17.3492 33.2869Z" fill="#303940"/>
<path d="M17.3492 33.2863L17.3468 33.2863C17.2399 33.2864 17.167 33.1766 17.2088 33.0758C17.3691 32.6905 17.448 32.2611 17.4228 31.8101C17.3426 30.3747 16.1914 29.2198 14.7897 29.1665C14.7508 29.1652 14.7118 29.1648 14.6729 29.1652L14.6729 41.7214L16.1005 41.7214C16.6171 41.7214 17.0358 41.2921 17.0358 40.7627C17.0358 40.2332 16.6171 39.804 16.1005 39.804L15.6204 39.804L15.6204 38.4196C16.1292 38.8292 16.7794 39.0627 17.4839 39.0289C18.9259 38.9597 20.0941 37.7517 20.1498 36.273C20.2115 34.6345 18.9339 33.2863 17.3492 33.2863Z" fill="#1E2123"/>
</g>
<rect x="0.86778" y="0.260114" width="87.7836" height="63.4798" rx="4.60064" stroke="#E0E4F0" stroke-width="0.520228"/>
<defs>
<linearGradient id="paint0_linear_436_3957" x1="96.9134" y1="1.20087" x2="65.3389" y2="89.9452" gradientUnits="userSpaceOnUse">
<stop stop-color="#F1F6F7"/>
<stop offset="1" stop-color="#E3E8E9"/>
</linearGradient>
<clipPath id="clip0_436_3957">
<rect x="0.607666" width="88.3038" height="64" rx="4.86076" fill="white"/>
</clipPath>
</defs>
</svg>
