<svg width="89" height="64" viewBox="0 0 89 64" fill="none" xmlns="http://www.w3.org/2000/svg">
<g clip-path="url(#clip0_436_3950)">
<rect x="0.607666" width="88.3038" height="64" rx="4.86076" fill="url(#paint0_linear_436_3950)"/>
<path d="M11.9494 24.1215C11.5444 24.1215 11.1879 23.9919 10.8801 23.7327C10.5884 23.4572 10.4426 23.117 10.4426 22.7119C10.4426 22.4851 10.4912 22.2663 10.5884 22.0557L16.5429 9.15038L16.8102 9.80659L9.7864 9.80658C9.39754 9.80658 9.07349 9.67696 8.81425 9.41772C8.55501 9.15848 8.42539 8.83443 8.42539 8.44557C8.42539 8.07291 8.55501 7.76506 8.81425 7.52203C9.07349 7.26279 9.39754 7.13317 9.7864 7.13317L18.2441 7.13317C18.6654 7.13317 19.0299 7.27089 19.3378 7.54633C19.6618 7.80558 19.8239 8.14583 19.8239 8.56709C19.8239 8.77773 19.7753 8.99646 19.678 9.2233L13.2861 23.198C13.1727 23.4896 12.9864 23.7165 12.7272 23.8785C12.4841 24.0405 12.2249 24.1215 11.9494 24.1215Z" fill="#D3003C"/>
<path d="M83.1182 32.6684L63.8492 10.6825C62.7265 9.40146 60.6185 9.40146 59.4959 10.6822L40.2238 32.6682C39.8187 33.1304 39.5967 33.7075 39.595 34.3032C39.5933 34.8989 39.8119 35.4771 40.2144 35.9413L59.4865 58.1681C60.6096 59.4632 62.7357 59.4632 63.8586 58.1679L83.1276 35.9411C83.5299 35.4769 83.7485 34.8988 83.7468 34.3032C83.7451 33.7076 83.5232 33.1306 83.1182 32.6684Z" fill="#FA184B"/>
<path d="M63.8492 10.6813C63.282 10.0341 62.4634 9.71504 61.6474 9.72178L61.6474 59.1373C62.4681 59.144 63.2914 58.8214 63.8586 58.1669L83.1276 35.9401C83.53 35.4759 83.7486 34.8978 83.7469 34.3021C83.7452 33.7065 83.5233 33.1294 83.1182 32.6673L63.8492 10.6813Z" fill="#D3003C"/>
<path d="M19.9963 34.9958L15.2232 29.4092C14.9451 29.0837 14.4229 29.0837 14.1448 29.4091L9.37103 34.9957C9.27067 35.1132 9.2157 35.2598 9.21527 35.4112C9.21485 35.5625 9.26901 35.7095 9.36871 35.8274L14.1425 41.4752C14.4207 41.8043 14.9474 41.8043 15.2255 41.4751L19.9986 35.8273C20.0982 35.7094 20.1524 35.5625 20.1519 35.4112C20.1515 35.2598 20.0966 35.1132 19.9963 34.9958Z" fill="#FA184B"/>
<path d="M15.2232 29.4089C15.0827 29.2444 14.8799 29.1634 14.6778 29.1651L14.6778 41.7215C14.8811 41.7232 15.085 41.6412 15.2255 41.4749L19.9985 35.8271C20.0982 35.7092 20.1524 35.5622 20.1519 35.4109C20.1515 35.2595 20.0965 35.1129 19.9962 34.9955L15.2232 29.4089Z" fill="#D3003C"/>
</g>
<rect x="0.86778" y="0.260114" width="87.7836" height="63.4798" rx="4.60064" stroke="#E0E4F0" stroke-width="0.520228"/>
<defs>
<linearGradient id="paint0_linear_436_3950" x1="96.9134" y1="1.20087" x2="65.3389" y2="89.9452" gradientUnits="userSpaceOnUse">
<stop stop-color="#F1F6F7"/>
<stop offset="1" stop-color="#E3E8E9"/>
</linearGradient>
<clipPath id="clip0_436_3950">
<rect x="0.607666" width="88.3038" height="64" rx="4.86076" fill="white"/>
</clipPath>
</defs>
</svg>
