<svg width="89" height="64" viewBox="0 0 89 64" fill="none" xmlns="http://www.w3.org/2000/svg">
<g clip-path="url(#clip0_436_3981)">
<rect x="0.518555" width="88.3038" height="64" rx="4.86076" fill="url(#paint0_linear_436_3981)"/>
<path d="M11.8603 24.1215C11.4553 24.1215 11.0988 23.9919 10.791 23.7327C10.4993 23.4572 10.3535 23.117 10.3535 22.7119C10.3535 22.4851 10.4021 22.2663 10.4993 22.0557L16.4537 9.15038L16.7211 9.80659L9.69729 9.80658C9.30842 9.80658 8.98437 9.67696 8.72513 9.41772C8.46589 9.15848 8.33627 8.83443 8.33627 8.44557C8.33627 8.07291 8.46589 7.76506 8.72513 7.52203C8.98437 7.26279 9.30843 7.13317 9.69729 7.13317L18.155 7.13317C18.5763 7.13317 18.9408 7.27089 19.2487 7.54633C19.5727 7.80558 19.7348 8.14583 19.7348 8.56709C19.7348 8.77773 19.6861 8.99646 19.5889 9.2233L13.197 23.198C13.0836 23.4896 12.8973 23.7165 12.638 23.8785C12.395 24.0405 12.1358 24.1215 11.8603 24.1215Z" fill="#D3003C"/>
<path d="M83.6578 24.1123C83.6578 16.1647 78.5404 9.72173 72.228 9.72173C68.4458 9.72173 65.093 12.035 63.0128 15.5989C62.3006 16.819 60.8325 16.819 60.1203 15.5989C58.0401 12.035 54.6873 9.72173 50.9051 9.72173C44.2789 9.69942 39.5077 16.8195 39.5077 25.1993H39.5059C39.5059 41.6017 53.5923 53.9877 59.2568 58.3052C59.9655 58.8456 60.7772 59.1338 61.6055 59.1393C62.4338 59.1448 63.2478 58.8674 63.961 58.3364C69.6736 54.0911 83.6578 41.7857 83.6578 24.1123Z" fill="#FF5F66"/>
<path d="M72.2281 9.72168C68.4458 9.72168 65.0931 12.035 63.0129 15.5988C62.6601 16.2032 62.1218 16.5074 61.5818 16.513L61.5818 59.1382C62.4179 59.1492 63.2406 58.8721 63.9608 58.3366C69.6738 54.0913 83.6578 41.7859 83.6578 24.1125C83.6578 16.1644 78.5404 9.72168 72.2281 9.72168Z" fill="#FA184B"/>
<path d="M20.0629 32.8216C20.0629 30.8022 18.7953 29.1651 17.2316 29.1651C16.2948 29.1651 15.4643 29.7529 14.949 30.6584C14.7726 30.9685 14.4089 30.9685 14.2325 30.6584C13.7172 29.7529 12.8867 29.1651 11.9498 29.1651C10.3085 29.1594 9.12661 30.9686 9.12661 33.0979L9.12616 33.0979C9.12616 37.2657 12.6154 40.4129 14.0186 41.51C14.1941 41.6473 14.3952 41.7205 14.6004 41.7219C14.8055 41.7233 15.0072 41.6528 15.1838 41.5179C16.5989 40.4392 20.0629 37.3124 20.0629 32.8216Z" fill="#FF5F66"/>
<path d="M17.2317 29.165C16.2948 29.165 15.4643 29.7528 14.949 30.6584C14.8616 30.812 14.7283 30.8893 14.5945 30.8907L14.5945 41.7216C14.8016 41.7244 15.0054 41.654 15.1838 41.518C16.5989 40.4392 20.0629 37.3125 20.0629 32.8217C20.0629 30.8021 18.7953 29.165 17.2317 29.165Z" fill="#FA184B"/>
</g>
<rect x="0.778669" y="0.260114" width="87.7836" height="63.4798" rx="4.60064" stroke="#E0E4F0" stroke-width="0.520228"/>
<defs>
<linearGradient id="paint0_linear_436_3981" x1="96.8243" y1="1.20087" x2="65.2498" y2="89.9452" gradientUnits="userSpaceOnUse">
<stop stop-color="#F1F6F7"/>
<stop offset="1" stop-color="#E3E8E9"/>
</linearGradient>
<clipPath id="clip0_436_3981">
<rect x="0.518555" width="88.3038" height="64" rx="4.86076" fill="white"/>
</clipPath>
</defs>
</svg>
