<svg width="90" height="64" viewBox="0 0 90 64" fill="none" xmlns="http://www.w3.org/2000/svg">
<g clip-path="url(#clip0_436_3965)">
<rect x="0.911133" width="88.3038" height="64" rx="4.86076" fill="url(#paint0_linear_436_3965)"/>
<path d="M16.7734 15.3722L16.7248 14.8132C17.3405 15.0886 17.8752 15.4451 18.3289 15.8825C18.7825 16.32 19.1309 16.798 19.3739 17.3165C19.617 17.8349 19.7385 18.3696 19.7385 18.9205C19.7385 19.8441 19.4792 20.6947 18.9607 21.4724C18.4585 22.2339 17.778 22.8496 16.9192 23.3195C16.0605 23.7732 15.1045 24 14.0514 24C12.9982 24 12.0423 23.7732 11.1835 23.3195C10.3248 22.8496 9.63619 22.2339 9.11771 21.4724C8.61543 20.6947 8.3643 19.8441 8.3643 18.9205C8.3643 18.1752 8.51822 17.5352 8.82607 17.0005C9.15012 16.4496 9.54708 15.9878 10.017 15.6152C10.503 15.2425 10.981 14.9347 11.4509 14.6916L11.2564 15.3722C10.8514 15.2101 10.4544 14.9833 10.0656 14.6916C9.69291 14.3838 9.38506 13.9949 9.14202 13.5251C8.89898 13.0552 8.77746 12.5043 8.77746 11.8724C8.77746 10.9651 9.0124 10.1468 9.48227 9.41772C9.95215 8.67241 10.584 8.08101 11.378 7.64355C12.1881 7.20608 13.0792 6.98734 14.0514 6.98734C15.0397 6.98735 15.9228 7.20608 16.7005 7.64355C17.4944 8.08102 18.1263 8.67241 18.5962 9.41773C19.0661 10.1468 19.301 10.9651 19.301 11.8724C19.301 12.5691 19.1633 13.1524 18.8878 13.6223C18.6124 14.0922 18.2802 14.4648 17.8914 14.7403C17.5025 15.0157 17.1299 15.2263 16.7734 15.3722ZM11.6939 11.921C11.6939 12.3585 11.7911 12.7473 11.9856 13.0876C12.1962 13.4279 12.4797 13.7033 12.8362 13.9139C13.1927 14.1084 13.5977 14.2056 14.0514 14.2056C14.5051 14.2056 14.902 14.1084 15.2423 13.9139C15.5987 13.7033 15.8742 13.4279 16.0686 13.0876C16.2792 12.7473 16.3846 12.3585 16.3846 11.921C16.3846 11.2729 16.1577 10.7382 15.704 10.317C15.2666 9.8795 14.7157 9.66076 14.0514 9.66076C13.3709 9.66076 12.8038 9.8795 12.3501 10.317C11.9127 10.7382 11.6939 11.2729 11.6939 11.921ZM14.0514 21.3266C14.8291 21.3266 15.4853 21.0916 16.02 20.6218C16.5547 20.1357 16.822 19.5524 16.822 18.8719C16.822 18.402 16.7005 17.9808 16.4575 17.6081C16.2144 17.2354 15.8823 16.9438 15.461 16.7332C15.0397 16.5063 14.5699 16.3929 14.0514 16.3929C13.5329 16.3929 13.063 16.5063 12.6418 16.7332C12.2205 16.9438 11.8883 17.2354 11.6453 17.6081C11.4023 17.9808 11.2808 18.402 11.2808 18.8719C11.2808 19.5524 11.5481 20.1357 12.0828 20.6218C12.6175 21.0916 13.2737 21.3266 14.0514 21.3266Z" fill="#303940"/>
<path d="M72.7357 25.943H72.7258C72.2943 25.9435 71.9999 25.5112 72.169 25.1146C72.8161 23.5982 73.1344 21.9084 73.0328 20.1335C72.709 14.4845 68.0614 9.93909 62.4027 9.7295C56.097 9.49576 50.9116 14.5346 50.9116 20.7835C50.9105 22.2744 51.213 23.7499 51.8007 25.1202C51.9696 25.5144 51.6702 25.9444 51.2412 25.9432H51.213C44.8153 25.9432 39.6579 31.2492 39.9072 37.6973C40.132 43.5165 44.8481 48.2706 50.6695 48.5429C53.5197 48.6762 56.1496 47.7535 58.2053 46.1347L58.2053 51.5934L56.267 51.5934C54.1817 51.5934 52.4913 53.2825 52.4913 55.3663C52.4913 57.45 54.1817 59.1392 56.267 59.1392L67.6945 59.1392C69.7798 59.1392 71.4702 57.45 71.4702 55.3663C71.4702 53.2825 69.7798 51.5934 67.6945 51.5934L65.7562 51.5934L65.7562 46.1451C67.8101 47.7573 70.435 48.676 73.2791 48.5429C79.1006 48.2706 83.8166 43.5165 84.0415 37.6973C84.2908 31.2489 79.1333 25.943 72.7357 25.943Z" fill="#303940"/>
<path d="M72.7356 25.9409H72.7257C72.2942 25.9414 71.9998 25.5091 72.1689 25.1125C72.816 23.5962 73.1344 21.9063 73.0328 20.1315C72.709 14.4824 68.0614 9.937 62.4027 9.72741C62.2456 9.72242 62.0884 9.72069 61.9313 9.72222L61.9313 59.1369L67.6947 59.1369C69.78 59.1369 71.4704 57.4477 71.4704 55.364C71.4704 53.2802 69.78 51.5911 67.6947 51.5911L65.7564 51.5911L65.7564 46.1428C67.8103 47.755 70.4352 48.6737 73.2793 48.5406C79.1008 48.2683 83.8168 43.5142 84.0417 37.695C84.2907 31.2468 79.1333 25.9409 72.7356 25.9409Z" fill="#1E2123"/>
<path d="M17.6527 33.2869L17.6502 33.2869C17.5434 33.287 17.4704 33.1771 17.5123 33.0763C17.6726 32.6911 17.7515 32.2617 17.7263 31.8107C17.6461 30.3753 16.4949 29.2203 15.0932 29.167C13.5312 29.1076 12.2467 30.388 12.2467 31.9758C12.2465 32.3547 12.3214 32.7296 12.467 33.0778C12.5088 33.1779 12.4347 33.2872 12.3284 33.2869L12.3214 33.2869C10.7367 33.2869 9.45914 34.6351 9.52088 36.2736C9.57659 37.7523 10.7448 38.9603 12.1868 39.0294C12.8928 39.0633 13.5442 38.8289 14.0534 38.4175L14.0534 39.8046L13.5733 39.8046C13.0568 39.8046 12.6381 40.2338 12.6381 40.7633C12.6381 41.2927 13.0568 41.7219 13.5733 41.7219L16.404 41.7219C16.9205 41.7219 17.3392 41.2927 17.3392 40.7633C17.3392 40.2338 16.9205 39.8046 16.404 39.8046L15.9239 39.8046L15.9239 38.4202C16.4326 38.8298 17.0828 39.0633 17.7873 39.0294C19.2293 38.9603 20.3975 37.7523 20.4532 36.2736C20.515 34.6351 19.2374 33.2869 17.6527 33.2869Z" fill="#303940"/>
<path d="M17.6527 33.2863L17.6502 33.2863C17.5433 33.2864 17.4704 33.1766 17.5123 33.0758C17.6726 32.6905 17.7515 32.2611 17.7263 31.8101C17.6461 30.3747 16.4948 29.2198 15.0932 29.1665C15.0542 29.1652 15.0153 29.1648 14.9764 29.1652L14.9764 41.7214L16.404 41.7214C16.9205 41.7214 17.3393 41.2921 17.3393 40.7627C17.3393 40.2332 16.9205 39.804 16.404 39.804L15.9239 39.804L15.9239 38.4196C16.4326 38.8292 17.0828 39.0627 17.7874 39.0289C19.2294 38.9597 20.3976 37.7517 20.4533 36.273C20.5149 34.6345 19.2374 33.2863 17.6527 33.2863Z" fill="#1E2123"/>
</g>
<rect x="1.17125" y="0.260114" width="87.7836" height="63.4798" rx="4.60064" stroke="#E0E4F0" stroke-width="0.520228"/>
<defs>
<linearGradient id="paint0_linear_436_3965" x1="97.2168" y1="1.20087" x2="65.6424" y2="89.9452" gradientUnits="userSpaceOnUse">
<stop stop-color="#F1F6F7"/>
<stop offset="1" stop-color="#E3E8E9"/>
</linearGradient>
<clipPath id="clip0_436_3965">
<rect x="0.911133" width="88.3038" height="64" rx="4.86076" fill="white"/>
</clipPath>
</defs>
</svg>
