<svg width="90" height="64" viewBox="0 0 90 64" fill="none" xmlns="http://www.w3.org/2000/svg">
<g clip-path="url(#clip0_436_3959)">
<rect x="0.911133" width="88.3038" height="64" rx="4.86076" fill="url(#paint0_linear_436_3959)"/>
<path d="M16.7734 15.3722L16.7248 14.8132C17.3405 15.0886 17.8752 15.4451 18.3289 15.8825C18.7825 16.32 19.1309 16.798 19.3739 17.3165C19.617 17.8349 19.7385 18.3696 19.7385 18.9205C19.7385 19.8441 19.4792 20.6947 18.9607 21.4724C18.4585 22.2339 17.778 22.8496 16.9192 23.3195C16.0605 23.7732 15.1045 24 14.0514 24C12.9982 24 12.0423 23.7732 11.1835 23.3195C10.3248 22.8496 9.63619 22.2339 9.11771 21.4724C8.61543 20.6947 8.3643 19.8441 8.3643 18.9205C8.3643 18.1752 8.51822 17.5352 8.82607 17.0005C9.15012 16.4496 9.54708 15.9878 10.017 15.6152C10.503 15.2425 10.981 14.9347 11.4509 14.6916L11.2564 15.3722C10.8514 15.2101 10.4544 14.9833 10.0656 14.6916C9.69291 14.3838 9.38506 13.9949 9.14202 13.5251C8.89898 13.0552 8.77746 12.5043 8.77746 11.8724C8.77746 10.9651 9.0124 10.1468 9.48227 9.41772C9.95215 8.67241 10.584 8.08101 11.378 7.64355C12.1881 7.20608 13.0792 6.98734 14.0514 6.98734C15.0397 6.98735 15.9228 7.20608 16.7005 7.64355C17.4944 8.08102 18.1263 8.67241 18.5962 9.41773C19.0661 10.1468 19.301 10.9651 19.301 11.8724C19.301 12.5691 19.1633 13.1524 18.8878 13.6223C18.6124 14.0922 18.2802 14.4648 17.8914 14.7403C17.5025 15.0157 17.1299 15.2263 16.7734 15.3722ZM11.6939 11.921C11.6939 12.3585 11.7911 12.7473 11.9856 13.0876C12.1962 13.4279 12.4797 13.7033 12.8362 13.9139C13.1927 14.1084 13.5977 14.2056 14.0514 14.2056C14.5051 14.2056 14.902 14.1084 15.2423 13.9139C15.5987 13.7033 15.8742 13.4279 16.0686 13.0876C16.2792 12.7473 16.3846 12.3585 16.3846 11.921C16.3846 11.2729 16.1577 10.7382 15.704 10.317C15.2666 9.8795 14.7157 9.66076 14.0514 9.66076C13.3709 9.66076 12.8038 9.8795 12.3501 10.317C11.9127 10.7382 11.6939 11.2729 11.6939 11.921ZM14.0514 21.3266C14.8291 21.3266 15.4853 21.0916 16.02 20.6218C16.5547 20.1357 16.822 19.5524 16.822 18.8719C16.822 18.402 16.7005 17.9808 16.4575 17.6081C16.2144 17.2354 15.8823 16.9438 15.461 16.7332C15.0397 16.5063 14.5699 16.3929 14.0514 16.3929C13.5329 16.3929 13.063 16.5063 12.6418 16.7332C12.2205 16.9438 11.8883 17.2354 11.6453 17.6081C11.4023 17.9808 11.2808 18.402 11.2808 18.8719C11.2808 19.5524 11.5481 20.1357 12.0828 20.6218C12.6175 21.0916 13.2737 21.3266 14.0514 21.3266Z" fill="#D3003C"/>
<path d="M83.4217 32.6684L64.1527 10.6825C63.03 9.40146 60.922 9.40146 59.7993 10.6822L40.5273 32.6682C40.1222 33.1304 39.9002 33.7075 39.8985 34.3032C39.8968 34.8989 40.1154 35.4771 40.5179 35.9413L59.79 58.1681C60.9131 59.4632 63.0392 59.4632 64.1621 58.1679L83.4311 35.9411C83.8334 35.4769 84.052 34.8988 84.0503 34.3032C84.0485 33.7076 83.8267 33.1306 83.4217 32.6684Z" fill="#FA184B"/>
<path d="M64.1527 10.6813C63.5855 10.0341 62.7669 9.71504 61.9509 9.72178L61.9509 59.1373C62.7716 59.144 63.5949 58.8214 64.1621 58.1669L83.4311 35.9401C83.8335 35.4759 84.0521 34.8978 84.0503 34.3021C84.0486 33.7065 83.8267 33.1294 83.4217 32.6673L64.1527 10.6813Z" fill="#D3003C"/>
<path d="M20.2997 34.9958L15.5267 29.4092C15.2486 29.0837 14.7264 29.0837 14.4483 29.4091L9.6745 34.9957C9.57414 35.1132 9.51916 35.2598 9.51874 35.4112C9.51832 35.5625 9.57248 35.7095 9.67217 35.8274L14.446 41.4752C14.7242 41.8043 15.2508 41.8043 15.529 41.4751L20.302 35.8273C20.4017 35.7094 20.4558 35.5625 20.4554 35.4112C20.455 35.2598 20.4 35.1132 20.2997 34.9958Z" fill="#FA184B"/>
<path d="M15.5266 29.4089C15.3861 29.2444 15.1834 29.1634 14.9812 29.1651L14.9812 41.7215C15.1845 41.7232 15.3884 41.6412 15.5289 41.4749L20.302 35.8271C20.4017 35.7092 20.4558 35.5622 20.4554 35.4109C20.455 35.2595 20.4 35.1129 20.2997 34.9955L15.5266 29.4089Z" fill="#D3003C"/>
</g>
<rect x="1.17125" y="0.260114" width="87.7836" height="63.4798" rx="4.60064" stroke="#E0E4F0" stroke-width="0.520228"/>
<defs>
<linearGradient id="paint0_linear_436_3959" x1="97.2168" y1="1.20087" x2="65.6424" y2="89.9452" gradientUnits="userSpaceOnUse">
<stop stop-color="#F1F6F7"/>
<stop offset="1" stop-color="#E3E8E9"/>
</linearGradient>
<clipPath id="clip0_436_3959">
<rect x="0.911133" width="88.3038" height="64" rx="4.86076" fill="white"/>
</clipPath>
</defs>
</svg>
