<svg width="90" height="64" viewBox="0 0 90 64" fill="none" xmlns="http://www.w3.org/2000/svg">
<g clip-path="url(#clip0_436_3989)">
<rect x="0.822266" width="88.3038" height="64" rx="4.86076" fill="url(#paint0_linear_436_3989)"/>
<path d="M16.6845 15.3722L16.6359 14.8132C17.2516 15.0886 17.7863 15.4451 18.24 15.8825C18.6936 16.32 19.042 16.798 19.285 17.3165C19.5281 17.8349 19.6496 18.3696 19.6496 18.9205C19.6496 19.8441 19.3904 20.6947 18.8719 21.4724C18.3696 22.2339 17.6891 22.8496 16.8304 23.3195C15.9716 23.7732 15.0157 24 13.9625 24C12.9093 24 11.9534 23.7732 11.0947 23.3195C10.2359 22.8496 9.54732 22.2339 9.02884 21.4724C8.52656 20.6947 8.27542 19.8441 8.27542 18.9205C8.27542 18.1752 8.42935 17.5352 8.73719 17.0005C9.06124 16.4496 9.45821 15.9878 9.92808 15.6152C10.4142 15.2425 10.8921 14.9347 11.362 14.6916L11.1676 15.3722C10.7625 15.2101 10.3655 14.9833 9.97669 14.6916C9.60403 14.3838 9.29618 13.9949 9.05314 13.5251C8.81011 13.0552 8.68859 12.5043 8.68859 11.8724C8.68859 10.9651 8.92353 10.1468 9.3934 9.41772C9.86327 8.67241 10.4952 8.08101 11.2891 7.64355C12.0992 7.20608 12.9904 6.98734 13.9625 6.98734C14.9509 6.98735 15.8339 7.20608 16.6116 7.64355C17.4056 8.08102 18.0374 8.67241 18.5073 9.41773C18.9772 10.1468 19.2121 10.9651 19.2121 11.8724C19.2121 12.5691 19.0744 13.1524 18.799 13.6223C18.5235 14.0922 18.1914 14.4648 17.8025 14.7403C17.4136 15.0157 17.041 15.2263 16.6845 15.3722ZM11.605 11.921C11.605 12.3585 11.7023 12.7473 11.8967 13.0876C12.1073 13.4279 12.3909 13.7033 12.7473 13.9139C13.1038 14.1084 13.5088 14.2056 13.9625 14.2056C14.4162 14.2056 14.8131 14.1084 15.1534 13.9139C15.5099 13.7033 15.7853 13.4279 15.9797 13.0876C16.1904 12.7473 16.2957 12.3585 16.2957 11.921C16.2957 11.2729 16.0688 10.7382 15.6152 10.317C15.1777 9.8795 14.6268 9.66076 13.9625 9.66076C13.282 9.66076 12.7149 9.8795 12.2612 10.317C11.8238 10.7382 11.605 11.2729 11.605 11.921ZM13.9625 21.3266C14.7402 21.3266 15.3964 21.0916 15.9311 20.6218C16.4658 20.1357 16.7331 19.5524 16.7331 18.8719C16.7331 18.402 16.6116 17.9808 16.3686 17.6081C16.1255 17.2354 15.7934 16.9438 15.3721 16.7332C14.9509 16.5063 14.481 16.3929 13.9625 16.3929C13.444 16.3929 12.9742 16.5063 12.5529 16.7332C12.1316 16.9438 11.7995 17.2354 11.5564 17.6081C11.3134 17.9808 11.1919 18.402 11.1919 18.8719C11.1919 19.5524 11.4592 20.1357 11.9939 20.6218C12.5286 21.0916 13.1848 21.3266 13.9625 21.3266Z" fill="#D3003C"/>
<path d="M83.9615 24.1123C83.9615 16.1647 78.8441 9.72173 72.5318 9.72173C68.7495 9.72173 65.3967 12.035 63.3166 15.5989C62.6043 16.819 61.1362 16.819 60.424 15.5989C58.3438 12.035 54.991 9.72173 51.2088 9.72173C44.5827 9.69942 39.8114 16.8195 39.8114 25.1993H39.8096C39.8096 41.6017 53.896 53.9877 59.5605 58.3052C60.2692 58.8456 61.0809 59.1338 61.9092 59.1393C62.7375 59.1448 63.5515 58.8674 64.2647 58.3364C69.9773 54.0911 83.9615 41.7857 83.9615 24.1123Z" fill="#FF5F66"/>
<path d="M72.5318 9.72168C68.7495 9.72168 65.3968 12.035 63.3166 15.5988C62.9638 16.2032 62.4255 16.5074 61.8855 16.513L61.8855 59.1382C62.7216 59.1492 63.5443 58.8721 64.2645 58.3366C69.9775 54.0913 83.9615 41.7859 83.9615 24.1125C83.9615 16.1644 78.8441 9.72168 72.5318 9.72168Z" fill="#FA184B"/>
<path d="M20.3666 32.8216C20.3666 30.8022 19.099 29.1651 17.5354 29.1651C16.5985 29.1651 15.768 29.7529 15.2527 30.6584C15.0763 30.9685 14.7126 30.9685 14.5362 30.6584C14.0209 29.7529 13.1904 29.1651 12.2535 29.1651C10.6122 29.1594 9.43032 30.9686 9.43032 33.0979L9.42987 33.0979C9.42987 37.2657 12.9192 40.4129 14.3223 41.51C14.4978 41.6473 14.6989 41.7205 14.9041 41.7219C15.1093 41.7233 15.3109 41.6528 15.4876 41.5179C16.9026 40.4392 20.3666 37.3124 20.3666 32.8216Z" fill="#FF5F66"/>
<path d="M17.5354 29.165C16.5985 29.165 15.768 29.7528 15.2527 30.6584C15.1653 30.812 15.032 30.8893 14.8982 30.8907L14.8982 41.7216C15.1053 41.7244 15.3091 41.654 15.4875 41.518C16.9027 40.4392 20.3666 37.3125 20.3666 32.8217C20.3666 30.8021 19.099 29.165 17.5354 29.165Z" fill="#FA184B"/>
</g>
<rect x="1.08238" y="0.260114" width="87.7836" height="63.4798" rx="4.60064" stroke="#E0E4F0" stroke-width="0.520228"/>
<defs>
<linearGradient id="paint0_linear_436_3989" x1="97.128" y1="1.20087" x2="65.5535" y2="89.9452" gradientUnits="userSpaceOnUse">
<stop stop-color="#F1F6F7"/>
<stop offset="1" stop-color="#E3E8E9"/>
</linearGradient>
<clipPath id="clip0_436_3989">
<rect x="0.822266" width="88.3038" height="64" rx="4.86076" fill="white"/>
</clipPath>
</defs>
</svg>
