<svg width="89" height="64" viewBox="0 0 89 64" fill="none" xmlns="http://www.w3.org/2000/svg">
<g clip-path="url(#clip0_436_3933)">
<rect width="88.3038" height="64" rx="4.86076" fill="url(#paint0_linear_436_3933)"/>
<path d="M15.8623 15.3722L15.8137 14.8132C16.4294 15.0886 16.964 15.4451 17.4177 15.8825C17.8714 16.32 18.2197 16.798 18.4628 17.3165C18.7058 17.8349 18.8273 18.3696 18.8273 18.9205C18.8273 19.8441 18.5681 20.6947 18.0496 21.4724C17.5473 22.2339 16.8668 22.8496 16.0081 23.3195C15.1494 23.7732 14.1934 24 13.1402 24C12.0871 24 11.1311 23.7732 10.2724 23.3195C9.41367 22.8496 8.72506 22.2339 8.20658 21.4724C7.7043 20.6947 7.45316 19.8441 7.45316 18.9205C7.45316 18.1752 7.60709 17.5352 7.91494 17.0005C8.23899 16.4496 8.63595 15.9878 9.10582 15.6152C9.5919 15.2425 10.0699 14.9347 10.5397 14.6916L10.3453 15.3722C9.94025 15.2101 9.54329 14.9833 9.15443 14.6916C8.78177 14.3838 8.47392 13.9949 8.23089 13.5251C7.98785 13.0552 7.86633 12.5043 7.86633 11.8724C7.86633 10.9651 8.10127 10.1468 8.57114 9.41772C9.04101 8.67241 9.67291 8.08101 10.4668 7.64355C11.277 7.20608 12.1681 6.98734 13.1403 6.98734C14.1286 6.98735 15.0116 7.20608 15.7894 7.64355C16.5833 8.08102 17.2152 8.67241 17.6851 9.41773C18.1549 10.1468 18.3899 10.9651 18.3899 11.8724C18.3899 12.5691 18.2522 13.1524 17.9767 13.6223C17.7013 14.0922 17.3691 14.4648 16.9803 14.7403C16.5914 15.0157 16.2187 15.2263 15.8623 15.3722ZM10.7828 11.921C10.7828 12.3585 10.88 12.7473 11.0744 13.0876C11.2851 13.4279 11.5686 13.7033 11.9251 13.9139C12.2815 14.1084 12.6866 14.2056 13.1403 14.2056C13.5939 14.2056 13.9909 14.1084 14.3311 13.9139C14.6876 13.7033 14.963 13.4279 15.1575 13.0876C15.3681 12.7473 15.4734 12.3585 15.4734 11.921C15.4734 11.2729 15.2466 10.7382 14.7929 10.317C14.3554 9.8795 13.8046 9.66076 13.1403 9.66076C12.4597 9.66076 11.8927 9.8795 11.439 10.317C11.0015 10.7382 10.7828 11.2729 10.7828 11.921ZM13.1403 21.3266C13.918 21.3266 14.5742 21.0916 15.1089 20.6218C15.6435 20.1357 15.9109 19.5524 15.9109 18.8719C15.9109 18.402 15.7894 17.9808 15.5463 17.6081C15.3033 17.2354 14.9711 16.9438 14.5499 16.7332C14.1286 16.5063 13.6587 16.3929 13.1403 16.3929C12.6218 16.3929 12.1519 16.5063 11.7306 16.7332C11.3094 16.9438 10.9772 17.2354 10.7342 17.6081C10.4911 17.9808 10.3696 18.402 10.3696 18.8719C10.3696 19.5524 10.637 20.1357 11.1716 20.6218C11.7063 21.0916 12.3625 21.3266 13.1403 21.3266Z" fill="#303940"/>
<path d="M78.1864 24.2259C72.8761 20.0135 67.9043 14.8685 64.7038 11.3374C62.7526 9.18455 59.3996 9.18296 57.4462 11.3335C54.2418 14.8612 49.2649 20.0013 43.9506 24.208C40.8215 26.685 38.9894 30.4103 38.9873 34.3586C38.9837 41.3663 44.7611 47.05 51.8915 47.0538C52.0262 47.0538 52.16 47.0511 52.2933 47.0456C54.0549 46.9719 55.7327 46.3591 57.1568 45.3484L57.1568 51.2464L56.4712 51.2464C54.3132 51.2464 52.564 53.0135 52.564 55.1929C52.564 57.3726 54.3135 59.1394 56.4712 59.1394L65.6567 59.1394C67.8147 59.1394 69.5639 57.3724 69.5639 55.1929C69.5639 53.0132 67.8145 51.2464 65.6567 51.2464L64.9714 51.2464L64.9714 45.361C66.3918 46.3684 68.0653 46.9797 69.8222 47.0547C69.9549 47.0604 70.0882 47.0634 70.2222 47.0634C77.3526 47.067 83.1356 41.3892 83.1392 34.3816C83.1408 30.4333 81.3125 26.7059 78.1864 24.2259Z" fill="#555F65"/>
<path d="M78.1864 24.2259C72.8761 20.0135 67.9044 14.8684 64.7039 11.3373C63.717 10.2486 62.3716 9.712 61.03 9.72382L61.03 59.1393L65.6568 59.1393C67.8147 59.1393 69.564 57.3723 69.564 55.1928C69.564 53.0132 67.8145 51.2464 65.6568 51.2464L64.9714 51.2464L64.9714 45.3609C66.3918 46.3684 68.0654 46.9796 69.8223 47.0547C69.9549 47.0604 70.0882 47.0633 70.2222 47.0633C77.3527 47.067 83.1357 41.3892 83.1393 34.3815C83.1409 30.4332 81.3126 26.7058 78.1864 24.2259Z" fill="#303940"/>
<path d="M18.3175 32.8505C17.0021 31.7801 15.7705 30.4728 14.9777 29.5756C14.4944 29.0286 13.6639 29.0282 13.18 29.5746C12.3862 30.471 11.1534 31.777 9.83703 32.8459C9.06193 33.4753 8.60811 34.4219 8.6076 35.4251C8.60671 37.2057 10.0378 38.6499 11.8041 38.6509C11.8374 38.6509 11.8706 38.6502 11.9036 38.6488C12.3399 38.6301 12.7555 38.4744 13.1083 38.2176L13.1083 39.7162L12.9385 39.7162C12.4039 39.7162 11.9706 40.1652 11.9706 40.719C11.9706 41.2728 12.404 41.7218 12.9385 41.7218L15.2138 41.7218C15.7483 41.7218 16.1816 41.2728 16.1816 40.719C16.1816 40.1652 15.7483 39.7162 15.2138 39.7162L15.044 39.7162L15.044 38.2208C15.3959 38.4768 15.8104 38.6321 16.2456 38.6511C16.2785 38.6526 16.3115 38.6533 16.3447 38.6533C18.1109 38.6543 19.5434 37.2116 19.5443 35.431C19.5447 34.4277 19.0918 33.4806 18.3175 32.8505Z" fill="#555F65"/>
<path d="M18.3174 32.85C17.0021 31.7796 15.7705 30.4723 14.9777 29.5751C14.7333 29.2984 14.4 29.1621 14.0677 29.1651L14.0677 41.7213L15.2138 41.7213C15.7483 41.7213 16.1816 41.2723 16.1816 40.7185C16.1816 40.1646 15.7483 39.7157 15.2138 39.7157L15.044 39.7157L15.044 38.2202C15.3958 38.4762 15.8104 38.6315 16.2456 38.6506C16.2784 38.6521 16.3115 38.6528 16.3447 38.6528C18.1109 38.6537 19.5434 37.2111 19.5443 35.4305C19.5447 34.4272 19.0918 33.4801 18.3174 32.85Z" fill="#303940"/>
</g>
<rect x="0.260114" y="0.260114" width="87.7836" height="63.4798" rx="4.60064" stroke="#E0E4F0" stroke-width="0.520228"/>
<defs>
<linearGradient id="paint0_linear_436_3933" x1="96.3057" y1="1.20087" x2="64.7312" y2="89.9452" gradientUnits="userSpaceOnUse">
<stop stop-color="#F1F6F7"/>
<stop offset="1" stop-color="#E3E8E9"/>
</linearGradient>
<clipPath id="clip0_436_3933">
<rect width="88.3038" height="64" rx="4.86076" fill="white"/>
</clipPath>
</defs>
</svg>
