<svg width="89" height="64" viewBox="0 0 89 64" fill="none" xmlns="http://www.w3.org/2000/svg">
<g clip-path="url(#clip0_436_3975)">
<rect x="0.214844" width="88.3038" height="64" rx="4.86076" fill="url(#paint0_linear_436_3975)"/>
<path d="M13.5738 6.6714C14.4488 6.6714 15.2346 6.85772 15.9313 7.23038C16.6442 7.58684 17.2437 8.08102 17.7298 8.71292C18.2321 9.34482 18.6128 10.0577 18.8721 10.8517C19.1475 11.6294 19.2852 12.4476 19.2852 13.3063C19.2852 13.8572 19.2204 14.5296 19.0908 15.3235C18.9774 16.1175 18.7667 16.96 18.4589 17.8511C18.151 18.7261 17.7217 19.5848 17.1708 20.4273C16.6199 21.2537 15.9151 21.999 15.0564 22.6633C14.2138 23.3276 13.1769 23.8299 11.9455 24.1701C11.751 24.2187 11.5647 24.243 11.3865 24.243C11.0138 24.243 10.6736 24.1458 10.3657 23.9514C10.0741 23.7408 9.92825 23.3843 9.92825 22.882C9.92825 22.5094 10.0417 22.1934 10.2685 21.9342C10.5115 21.6749 10.8275 21.4886 11.2164 21.3752C11.9617 21.1484 12.6827 20.7757 13.3794 20.2572C14.0923 19.7225 14.708 19.0825 15.2265 18.3372C15.745 17.5757 16.0933 16.7494 16.2715 15.8582L16.9277 15.8825C16.7171 16.1418 16.4417 16.4334 16.1014 16.7575C15.7774 17.0815 15.3723 17.3651 14.8862 17.6081C14.4164 17.8349 13.8493 17.9484 13.185 17.9484C12.1156 17.9484 11.1839 17.7215 10.39 17.2678C9.6123 16.798 9.00471 16.1418 8.56724 15.2992C8.12977 14.4405 7.91104 13.4441 7.91104 12.3099C7.91104 11.2891 8.16218 10.3494 8.66446 9.49064C9.18294 8.6319 9.87155 7.95139 10.7303 7.44912C11.589 6.93064 12.5369 6.67139 13.5738 6.6714ZM13.5738 9.34481C13.0553 9.34481 12.5855 9.48253 12.1642 9.75798C11.7591 10.0172 11.4351 10.3737 11.1921 10.8273C10.949 11.2648 10.8275 11.759 10.8275 12.3099C10.8275 12.9094 10.9409 13.436 11.1677 13.8896C11.3946 14.3271 11.7105 14.6673 12.1156 14.9104C12.5369 15.1534 13.0229 15.2749 13.5738 15.2749C14.0923 15.2749 14.5541 15.1453 14.9591 14.8861C15.3804 14.6268 15.7126 14.2704 15.9556 13.8167C16.1986 13.363 16.3202 12.8608 16.3202 12.3099C16.3202 11.7428 16.1986 11.2405 15.9556 10.803C15.7126 10.3494 15.3804 9.99292 14.9591 9.73368C14.5541 9.47443 14.0923 9.34481 13.5738 9.34481Z" fill="#303940"/>
<path d="M72.0394 25.943H72.0295C71.598 25.9435 71.3036 25.5112 71.4727 25.1146C72.1198 23.5982 72.4381 21.9084 72.3365 20.1335C72.0128 14.4845 67.3651 9.93909 61.7065 9.7295C55.4007 9.49576 50.2153 14.5346 50.2153 20.7835C50.2142 22.2744 50.5167 23.7499 51.1044 25.1202C51.2733 25.5144 50.9739 25.9444 50.5449 25.9432H50.5167C44.119 25.9432 38.9616 31.2492 39.2109 37.6973C39.4357 43.5165 44.1518 48.2706 49.9732 48.5429C52.8235 48.6762 55.4533 47.7535 57.509 46.1347L57.509 51.5934L55.5707 51.5934C53.4854 51.5934 51.795 53.2825 51.795 55.3663C51.795 57.45 53.4854 59.1392 55.5707 59.1392L66.9982 59.1392C69.0835 59.1392 70.7739 57.45 70.7739 55.3663C70.7739 53.2825 69.0835 51.5934 66.9982 51.5934L65.0599 51.5934L65.0599 46.1451C67.1138 47.7573 69.7387 48.676 72.5829 48.5429C78.4043 48.2706 83.1203 43.5165 83.3452 37.6973C83.5945 31.2489 78.437 25.943 72.0394 25.943Z" fill="#303940"/>
<path d="M72.0394 25.9409H72.0294C71.598 25.9414 71.3036 25.5091 71.4727 25.1125C72.1197 23.5962 72.4381 21.9063 72.3365 20.1315C72.0127 14.4824 67.3651 9.937 61.7064 9.72741C61.5493 9.72242 61.3922 9.72069 61.235 9.72222L61.235 59.1369L66.9984 59.1369C69.0837 59.1369 70.7741 57.4477 70.7741 55.364C70.7741 53.2802 69.0837 51.5911 66.9984 51.5911L65.0601 51.5911L65.0601 46.1428C67.114 47.755 69.7389 48.6737 72.583 48.5406C78.4045 48.2683 83.1205 43.5142 83.3454 37.695C83.5944 31.2468 78.437 25.9409 72.0394 25.9409Z" fill="#1E2123"/>
<path d="M16.9564 33.2869L16.954 33.2869C16.8471 33.287 16.7742 33.1771 16.816 33.0763C16.9763 32.6911 17.0552 32.2617 17.03 31.8107C16.9498 30.3753 15.7986 29.2203 14.3969 29.167C12.8349 29.1076 11.5505 30.388 11.5505 31.9758C11.5502 32.3547 11.6251 32.7296 11.7707 33.0778C11.8125 33.1779 11.7384 33.2872 11.6321 33.2869L11.6251 33.2869C10.0404 33.2869 8.76285 34.6351 8.8246 36.2736C8.8803 37.7523 10.0485 38.9603 11.4905 39.0294C12.1965 39.0633 12.8479 38.8289 13.3572 38.4175L13.3572 39.8046L12.877 39.8046C12.3605 39.8046 11.9418 40.2338 11.9418 40.7633C11.9418 41.2927 12.3605 41.7219 12.877 41.7219L15.7077 41.7219C16.2242 41.7219 16.6429 41.2927 16.6429 40.7633C16.6429 40.2338 16.2242 39.8046 15.7077 39.8046L15.2276 39.8046L15.2276 38.4202C15.7363 38.8298 16.3865 39.0633 17.091 39.0294C18.533 38.9603 19.7012 37.7523 19.7569 36.2736C19.8187 34.6351 18.5412 33.2869 16.9564 33.2869Z" fill="#303940"/>
<path d="M16.9564 33.2863L16.9539 33.2863C16.8471 33.2864 16.7741 33.1766 16.816 33.0758C16.9763 32.6905 17.0552 32.2611 17.03 31.8101C16.9498 30.3747 15.7985 29.2198 14.3969 29.1665C14.358 29.1652 14.319 29.1648 14.2801 29.1652L14.2801 41.7214L15.7077 41.7214C16.2243 41.7214 16.643 41.2921 16.643 40.7627C16.643 40.2332 16.2243 39.804 15.7077 39.804L15.2276 39.804L15.2276 38.4196C15.7364 38.8292 16.3866 39.0627 17.0911 39.0289C18.5331 38.9597 19.7013 37.7517 19.757 36.273C19.8187 34.6345 18.5411 33.2863 16.9564 33.2863Z" fill="#1E2123"/>
</g>
<rect x="0.474958" y="0.260114" width="87.7836" height="63.4798" rx="4.60064" stroke="#E0E4F0" stroke-width="0.520228"/>
<defs>
<linearGradient id="paint0_linear_436_3975" x1="96.5206" y1="1.20087" x2="64.9461" y2="89.9452" gradientUnits="userSpaceOnUse">
<stop stop-color="#F1F6F7"/>
<stop offset="1" stop-color="#E3E8E9"/>
</linearGradient>
<clipPath id="clip0_436_3975">
<rect x="0.214844" width="88.3038" height="64" rx="4.86076" fill="white"/>
</clipPath>
</defs>
</svg>
