<svg width="90" height="64" viewBox="0 0 90 64" fill="none" xmlns="http://www.w3.org/2000/svg">
<g clip-path="url(#clip0_436_4012)">
<rect x="0.734131" width="88.3038" height="64" rx="4.86076" fill="url(#paint0_linear_436_4012)"/>
<path d="M14.0931 6.6714C14.9681 6.6714 15.7539 6.85772 16.4506 7.23038C17.1635 7.58684 17.763 8.08102 18.2491 8.71292C18.7513 9.34482 19.1321 10.0577 19.3913 10.8517C19.6668 11.6294 19.8045 12.4476 19.8045 13.3063C19.8045 13.8572 19.7397 14.5296 19.6101 15.3235C19.4967 16.1175 19.286 16.96 18.9782 17.8511C18.6703 18.7261 18.241 19.5848 17.6901 20.4273C17.1392 21.2537 16.4344 21.999 15.5756 22.6633C14.7331 23.3276 13.6962 23.8299 12.4648 24.1701C12.2703 24.2187 12.084 24.243 11.9058 24.243C11.5331 24.243 11.1929 24.1458 10.885 23.9514C10.5934 23.7408 10.4475 23.3843 10.4475 22.882C10.4475 22.5094 10.561 22.1934 10.7878 21.9342C11.0308 21.6749 11.3468 21.4886 11.7356 21.3752C12.481 21.1484 13.202 20.7757 13.8987 20.2572C14.6116 19.7225 15.2273 19.0825 15.7458 18.3372C16.2643 17.5757 16.6126 16.7494 16.7908 15.8582L17.447 15.8825C17.2364 16.1418 16.961 16.4334 16.6207 16.7575C16.2967 17.0815 15.8916 17.3651 15.4055 17.6081C14.9356 17.8349 14.3686 17.9484 13.7043 17.9484C12.6349 17.9484 11.7032 17.7215 10.9093 17.2678C10.1316 16.798 9.524 16.1418 9.08654 15.2992C8.64907 14.4405 8.43033 13.4441 8.43033 12.3099C8.43033 11.2891 8.68147 10.3494 9.18375 9.49064C9.70223 8.6319 10.3908 7.95139 11.2496 7.44912C12.1083 6.93064 13.0562 6.67139 14.0931 6.6714ZM14.0931 9.34481C13.5746 9.34481 13.1048 9.48253 12.6835 9.75798C12.2784 10.0172 11.9544 10.3737 11.7113 10.8273C11.4683 11.2648 11.3468 11.759 11.3468 12.3099C11.3468 12.9094 11.4602 13.436 11.687 13.8896C11.9139 14.3271 12.2298 14.6673 12.6349 14.9104C13.0562 15.1534 13.5422 15.2749 14.0931 15.2749C14.6116 15.2749 15.0734 15.1453 15.4784 14.8861C15.8997 14.6268 16.2319 14.2704 16.4749 13.8167C16.7179 13.363 16.8394 12.8608 16.8394 12.3099C16.8394 11.7428 16.7179 11.2405 16.4749 10.803C16.2319 10.3494 15.8997 9.99292 15.4784 9.73368C15.0734 9.47443 14.6116 9.34481 14.0931 9.34481Z" fill="#D3003C"/>
<path d="M83.2447 32.6684L63.9757 10.6825C62.853 9.40146 60.745 9.40146 59.6223 10.6822L40.3503 32.6682C39.9451 33.1304 39.7232 33.7075 39.7215 34.3032C39.7198 34.8989 39.9384 35.4771 40.3409 35.9413L59.6129 58.1681C60.7361 59.4632 62.8621 59.4632 63.9851 58.1679L83.2541 35.9411C83.6564 35.4769 83.8749 34.8988 83.8732 34.3032C83.8715 33.7076 83.6497 33.1306 83.2447 32.6684Z" fill="#FA184B"/>
<path d="M63.9757 10.6813C63.4085 10.0341 62.5899 9.71504 61.7739 9.72178L61.7739 59.1373C62.5946 59.144 63.4178 58.8214 63.9851 58.1669L83.2541 35.9401C83.6564 35.4759 83.875 34.8978 83.8733 34.3021C83.8716 33.7065 83.6497 33.1294 83.2447 32.6673L63.9757 10.6813Z" fill="#D3003C"/>
<path d="M20.1227 34.9958L15.3497 29.4092C15.0716 29.0837 14.5494 29.0837 14.2713 29.4091L9.49749 34.9957C9.39714 35.1132 9.34216 35.2598 9.34174 35.4112C9.34131 35.5625 9.39547 35.7095 9.49517 35.8274L14.269 41.4752C14.5472 41.8043 15.0738 41.8043 15.352 41.4751L20.125 35.8273C20.2247 35.7094 20.2788 35.5625 20.2784 35.4112C20.278 35.2598 20.223 35.1132 20.1227 34.9958Z" fill="#FA184B"/>
<path d="M15.3496 29.4089C15.2091 29.2444 15.0064 29.1634 14.8042 29.1651L14.8042 41.7215C15.0075 41.7232 15.2114 41.6412 15.3519 41.4749L20.125 35.8271C20.2247 35.7092 20.2788 35.5622 20.2784 35.4109C20.278 35.2595 20.223 35.1129 20.1227 34.9955L15.3496 29.4089Z" fill="#D3003C"/>
</g>
<rect x="0.994245" y="0.260114" width="87.7836" height="63.4798" rx="4.60064" stroke="#E0E4F0" stroke-width="0.520228"/>
<defs>
<linearGradient id="paint0_linear_436_4012" x1="97.0398" y1="1.20087" x2="65.4654" y2="89.9452" gradientUnits="userSpaceOnUse">
<stop stop-color="#F1F6F7"/>
<stop offset="1" stop-color="#E3E8E9"/>
</linearGradient>
<clipPath id="clip0_436_4012">
<rect x="0.734131" width="88.3038" height="64" rx="4.86076" fill="white"/>
</clipPath>
</defs>
</svg>
