<svg width="90" height="64" viewBox="0 0 90 64" fill="none" xmlns="http://www.w3.org/2000/svg">
<g clip-path="url(#clip0_436_3988)">
<rect x="0.822266" width="88.3038" height="64" rx="4.86076" fill="url(#paint0_linear_436_3988)"/>
<path d="M14.1812 6.6714C15.0562 6.6714 15.842 6.85772 16.5387 7.23038C17.2516 7.58684 17.8511 8.08102 18.3372 8.71292C18.8395 9.34482 19.2202 10.0577 19.4795 10.8517C19.7549 11.6294 19.8926 12.4476 19.8926 13.3063C19.8926 13.8572 19.8278 14.5296 19.6982 15.3235C19.5848 16.1175 19.3742 16.96 19.0663 17.8511C18.7585 18.7261 18.3291 19.5848 17.7782 20.4273C17.2273 21.2537 16.5225 21.999 15.6638 22.6633C14.8212 23.3276 13.7843 23.8299 12.5529 24.1701C12.3585 24.2187 12.1721 24.243 11.9939 24.243C11.6212 24.243 11.281 24.1458 10.9731 23.9514C10.6815 23.7408 10.5357 23.3843 10.5357 22.882C10.5357 22.5094 10.6491 22.1934 10.8759 21.9342C11.119 21.6749 11.4349 21.4886 11.8238 21.3752C12.5691 21.1484 13.2901 20.7757 13.9868 20.2572C14.6997 19.7225 15.3154 19.0825 15.8339 18.3372C16.3524 17.5757 16.7007 16.7494 16.879 15.8582L17.5352 15.8825C17.3245 16.1418 17.0491 16.4334 16.7088 16.7575C16.3848 17.0815 15.9797 17.3651 15.4936 17.6081C15.0238 17.8349 14.4567 17.9484 13.7924 17.9484C12.723 17.9484 11.7914 17.7215 10.9974 17.2678C10.2197 16.798 9.61213 16.1418 9.17466 15.2992C8.73719 14.4405 8.51846 13.4441 8.51846 12.3099C8.51846 11.2891 8.7696 10.3494 9.27188 9.49064C9.79036 8.6319 10.479 7.95139 11.3377 7.44912C12.1964 6.93064 13.1443 6.67139 14.1812 6.6714ZM14.1812 9.34481C13.6628 9.34481 13.1929 9.48253 12.7716 9.75798C12.3666 10.0172 12.0425 10.3737 11.7995 10.8273C11.5564 11.2648 11.4349 11.759 11.4349 12.3099C11.4349 12.9094 11.5483 13.436 11.7752 13.8896C12.002 14.3271 12.318 14.6673 12.723 14.9104C13.1443 15.1534 13.6304 15.2749 14.1812 15.2749C14.6997 15.2749 15.1615 15.1453 15.5666 14.8861C15.9878 14.6268 16.32 14.2704 16.563 13.8167C16.8061 13.363 16.9276 12.8608 16.9276 12.3099C16.9276 11.7428 16.8061 11.2405 16.563 10.803C16.32 10.3494 15.9878 9.99292 15.5666 9.73368C15.1615 9.47443 14.6997 9.34481 14.1812 9.34481Z" fill="#D3003C"/>
<path d="M83.9615 24.1123C83.9615 16.1647 78.8441 9.72173 72.5318 9.72173C68.7495 9.72173 65.3967 12.035 63.3166 15.5989C62.6043 16.819 61.1362 16.819 60.424 15.5989C58.3438 12.035 54.991 9.72173 51.2088 9.72173C44.5827 9.69942 39.8114 16.8195 39.8114 25.1993H39.8096C39.8096 41.6017 53.896 53.9877 59.5605 58.3052C60.2692 58.8456 61.0809 59.1338 61.9092 59.1393C62.7375 59.1448 63.5515 58.8674 64.2647 58.3364C69.9773 54.0911 83.9615 41.7857 83.9615 24.1123Z" fill="#FF5F66"/>
<path d="M72.5318 9.72168C68.7495 9.72168 65.3968 12.035 63.3166 15.5988C62.9638 16.2032 62.4255 16.5074 61.8855 16.513L61.8855 59.1382C62.7216 59.1492 63.5443 58.8721 64.2645 58.3366C69.9775 54.0913 83.9615 41.7859 83.9615 24.1125C83.9615 16.1644 78.8441 9.72168 72.5318 9.72168Z" fill="#FA184B"/>
<path d="M20.3666 32.8216C20.3666 30.8022 19.099 29.1651 17.5354 29.1651C16.5985 29.1651 15.768 29.7529 15.2527 30.6584C15.0763 30.9685 14.7126 30.9685 14.5362 30.6584C14.0209 29.7529 13.1904 29.1651 12.2535 29.1651C10.6122 29.1594 9.43032 30.9686 9.43032 33.0979L9.42987 33.0979C9.42987 37.2657 12.9192 40.4129 14.3223 41.51C14.4978 41.6473 14.6989 41.7205 14.9041 41.7219C15.1093 41.7233 15.3109 41.6528 15.4876 41.5179C16.9026 40.4392 20.3666 37.3124 20.3666 32.8216Z" fill="#FF5F66"/>
<path d="M17.5354 29.165C16.5985 29.165 15.768 29.7528 15.2527 30.6584C15.1653 30.812 15.032 30.8893 14.8982 30.8907L14.8982 41.7216C15.1053 41.7244 15.3091 41.654 15.4875 41.518C16.9027 40.4392 20.3666 37.3125 20.3666 32.8217C20.3666 30.8021 19.099 29.165 17.5354 29.165Z" fill="#FA184B"/>
</g>
<rect x="1.08238" y="0.260114" width="87.7836" height="63.4798" rx="4.60064" stroke="#E0E4F0" stroke-width="0.520228"/>
<defs>
<linearGradient id="paint0_linear_436_3988" x1="97.128" y1="1.20087" x2="65.5535" y2="89.9452" gradientUnits="userSpaceOnUse">
<stop stop-color="#F1F6F7"/>
<stop offset="1" stop-color="#E3E8E9"/>
</linearGradient>
<clipPath id="clip0_436_3988">
<rect x="0.822266" width="88.3038" height="64" rx="4.86076" fill="white"/>
</clipPath>
</defs>
</svg>
