<svg width="89" height="64" viewBox="0 0 89 64" fill="none" xmlns="http://www.w3.org/2000/svg">
<g clip-path="url(#clip0_436_3932)">
<rect width="88.3038" height="64" rx="4.86076" fill="url(#paint0_linear_436_3932)"/>
<path d="M13.359 6.6714C14.2339 6.6714 15.0197 6.85772 15.7165 7.23038C16.4294 7.58684 17.0289 8.08102 17.5149 8.71292C18.0172 9.34482 18.398 10.0577 18.6572 10.8517C18.9327 11.6294 19.0704 12.4476 19.0704 13.3063C19.0704 13.8572 19.0056 14.5296 18.8759 15.3235C18.7625 16.1175 18.5519 16.96 18.244 17.8511C17.9362 18.7261 17.5068 19.5848 16.9559 20.4273C16.4051 21.2537 15.7003 21.999 14.8415 22.6633C13.999 23.3276 12.962 23.8299 11.7306 24.1701C11.5362 24.2187 11.3499 24.243 11.1716 24.243C10.799 24.243 10.4587 24.1458 10.1509 23.9514C9.85924 23.7408 9.71341 23.3843 9.71341 22.882C9.71341 22.5094 9.82683 22.1934 10.0537 21.9342C10.2967 21.6749 10.6127 21.4886 11.0015 21.3752C11.7468 21.1484 12.4678 20.7757 13.1646 20.2572C13.8775 19.7225 14.4932 19.0825 15.0116 18.3372C15.5301 17.5757 15.8785 16.7494 16.0567 15.8582L16.7129 15.8825C16.5023 16.1418 16.2268 16.4334 15.8866 16.7575C15.5625 17.0815 15.1575 17.3651 14.6714 17.6081C14.2015 17.8349 13.6344 17.9484 12.9701 17.9484C11.9008 17.9484 10.9691 17.7215 10.1752 17.2678C9.39747 16.798 8.78987 16.1418 8.35241 15.2992C7.91494 14.4405 7.6962 13.4441 7.6962 12.3099C7.6962 11.2891 7.94734 10.3494 8.44962 9.49064C8.9681 8.6319 9.65671 7.95139 10.5154 7.44912C11.3742 6.93064 12.322 6.67139 13.359 6.6714ZM13.359 9.34481C12.8405 9.34481 12.3706 9.48253 11.9494 9.75798C11.5443 10.0172 11.2203 10.3737 10.9772 10.8273C10.7342 11.2648 10.6127 11.759 10.6127 12.3099C10.6127 12.9094 10.7261 13.436 10.9529 13.8896C11.1797 14.3271 11.4957 14.6673 11.9008 14.9104C12.322 15.1534 12.8081 15.2749 13.359 15.2749C13.8775 15.2749 14.3392 15.1453 14.7443 14.8861C15.1656 14.6268 15.4977 14.2704 15.7408 13.8167C15.9838 13.363 16.1053 12.8608 16.1053 12.3099C16.1053 11.7428 15.9838 11.2405 15.7408 10.803C15.4977 10.3494 15.1656 9.99292 14.7443 9.73368C14.3392 9.47443 13.8775 9.34481 13.359 9.34481Z" fill="#303940"/>
<path d="M78.1864 24.2259C72.8761 20.0135 67.9043 14.8685 64.7038 11.3374C62.7526 9.18455 59.3996 9.18296 57.4462 11.3335C54.2418 14.8612 49.2649 20.0013 43.9506 24.208C40.8215 26.685 38.9894 30.4103 38.9873 34.3586C38.9837 41.3663 44.7611 47.05 51.8915 47.0538C52.0262 47.0538 52.16 47.0511 52.2933 47.0456C54.0549 46.9719 55.7327 46.3591 57.1568 45.3484L57.1568 51.2464L56.4712 51.2464C54.3132 51.2464 52.564 53.0135 52.564 55.1929C52.564 57.3726 54.3135 59.1394 56.4712 59.1394L65.6567 59.1394C67.8147 59.1394 69.5639 57.3724 69.5639 55.1929C69.5639 53.0132 67.8145 51.2464 65.6567 51.2464L64.9714 51.2464L64.9714 45.361C66.3918 46.3684 68.0653 46.9797 69.8222 47.0547C69.9549 47.0604 70.0882 47.0634 70.2222 47.0634C77.3526 47.067 83.1356 41.3892 83.1392 34.3816C83.1408 30.4333 81.3125 26.7059 78.1864 24.2259Z" fill="#555F65"/>
<path d="M78.1864 24.2259C72.8761 20.0135 67.9044 14.8684 64.7039 11.3373C63.717 10.2486 62.3716 9.712 61.03 9.72382L61.03 59.1393L65.6568 59.1393C67.8147 59.1393 69.564 57.3723 69.564 55.1928C69.564 53.0132 67.8145 51.2464 65.6568 51.2464L64.9714 51.2464L64.9714 45.3609C66.3918 46.3684 68.0654 46.9796 69.8223 47.0547C69.9549 47.0604 70.0882 47.0633 70.2222 47.0633C77.3527 47.067 83.1357 41.3892 83.1393 34.3815C83.1409 30.4332 81.3126 26.7058 78.1864 24.2259Z" fill="#303940"/>
<path d="M18.3175 32.8505C17.0021 31.7801 15.7705 30.4728 14.9777 29.5756C14.4944 29.0286 13.6639 29.0282 13.18 29.5746C12.3862 30.471 11.1534 31.777 9.83703 32.8459C9.06193 33.4753 8.60811 34.4219 8.6076 35.4251C8.60671 37.2057 10.0378 38.6499 11.8041 38.6509C11.8374 38.6509 11.8706 38.6502 11.9036 38.6488C12.3399 38.6301 12.7555 38.4744 13.1083 38.2176L13.1083 39.7162L12.9385 39.7162C12.4039 39.7162 11.9706 40.1652 11.9706 40.719C11.9706 41.2728 12.404 41.7218 12.9385 41.7218L15.2138 41.7218C15.7483 41.7218 16.1816 41.2728 16.1816 40.719C16.1816 40.1652 15.7483 39.7162 15.2138 39.7162L15.044 39.7162L15.044 38.2208C15.3959 38.4768 15.8104 38.6321 16.2456 38.6511C16.2785 38.6526 16.3115 38.6533 16.3447 38.6533C18.1109 38.6543 19.5434 37.2116 19.5443 35.431C19.5447 34.4277 19.0918 33.4806 18.3175 32.8505Z" fill="#555F65"/>
<path d="M18.3174 32.85C17.0021 31.7796 15.7705 30.4723 14.9777 29.5751C14.7333 29.2984 14.4 29.1621 14.0677 29.1651L14.0677 41.7213L15.2138 41.7213C15.7483 41.7213 16.1816 41.2723 16.1816 40.7185C16.1816 40.1646 15.7483 39.7157 15.2138 39.7157L15.044 39.7157L15.044 38.2202C15.3958 38.4762 15.8104 38.6315 16.2456 38.6506C16.2784 38.6521 16.3115 38.6528 16.3447 38.6528C18.1109 38.6537 19.5434 37.2111 19.5443 35.4305C19.5447 34.4272 19.0918 33.4801 18.3174 32.85Z" fill="#303940"/>
</g>
<rect x="0.260114" y="0.260114" width="87.7836" height="63.4798" rx="4.60064" stroke="#E0E4F0" stroke-width="0.520228"/>
<defs>
<linearGradient id="paint0_linear_436_3932" x1="96.3057" y1="1.20087" x2="64.7312" y2="89.9452" gradientUnits="userSpaceOnUse">
<stop stop-color="#F1F6F7"/>
<stop offset="1" stop-color="#E3E8E9"/>
</linearGradient>
<clipPath id="clip0_436_3932">
<rect width="88.3038" height="64" rx="4.86076" fill="white"/>
</clipPath>
</defs>
</svg>
