<svg width="89" height="64" viewBox="0 0 89 64" fill="none" xmlns="http://www.w3.org/2000/svg">
<g clip-path="url(#clip0_436_3969)">
<rect x="0.214844" width="88.3038" height="64" rx="4.86076" fill="url(#paint0_linear_436_3969)"/>
<path d="M14.7647 10.803L9.51509 23.1494C9.40167 23.4572 9.22344 23.7003 8.9804 23.8785C8.75357 24.0405 8.50243 24.1215 8.22698 24.1215C7.78952 24.1215 7.46547 24 7.25483 23.757C7.0442 23.5139 6.93888 23.2142 6.93888 22.8577C6.93888 22.7119 6.96319 22.558 7.0118 22.3959L13.0634 7.86228C13.1931 7.53823 13.3875 7.28709 13.6467 7.10886C13.9222 6.93064 14.2138 6.85773 14.5217 6.89013C14.8133 6.89013 15.0807 6.97924 15.3237 7.15747C15.5829 7.3195 15.7693 7.55443 15.8827 7.86228L21.8614 22.1043C21.9424 22.3149 21.9829 22.5094 21.9829 22.6876C21.9829 23.1251 21.8371 23.4734 21.5455 23.7327C21.27 23.9919 20.9622 24.1215 20.6219 24.1215C20.3303 24.1215 20.0629 24.0324 19.8199 23.8542C19.5931 23.676 19.4148 23.4329 19.2852 23.1251L14.0599 10.9489L14.7647 10.803ZM10.2685 20.1843L11.6052 17.3894L18.1672 17.3894L18.629 20.1843L10.2685 20.1843Z" fill="#D3003C"/>
<path d="M83.3541 24.1123C83.3541 16.1647 78.2367 9.72173 71.9243 9.72173C68.1421 9.72173 64.7893 12.035 62.7091 15.5989C61.9969 16.819 60.5288 16.819 59.8166 15.5989C57.7364 12.035 54.3836 9.72173 50.6014 9.72173C43.9752 9.69942 39.204 16.8195 39.204 25.1993H39.2022C39.2022 41.6017 53.2886 53.9877 58.9531 58.3052C59.6618 58.8456 60.4735 59.1338 61.3018 59.1393C62.1301 59.1448 62.9441 58.8674 63.6573 58.3364C69.3699 54.0911 83.3541 41.7857 83.3541 24.1123Z" fill="#FF5F66"/>
<path d="M71.9244 9.72168C68.1421 9.72168 64.7893 12.035 62.7092 15.5988C62.3564 16.2032 61.8181 16.5074 61.2781 16.513L61.2781 59.1382C62.1142 59.1492 62.9369 58.8721 63.6571 58.3366C69.3701 54.0913 83.3541 41.7859 83.3541 24.1125C83.3541 16.1644 78.2367 9.72168 71.9244 9.72168Z" fill="#FA184B"/>
<path d="M19.7592 32.8216C19.7592 30.8022 18.4915 29.1651 16.9279 29.1651C15.9911 29.1651 15.1605 29.7529 14.6453 30.6584C14.4688 30.9685 14.1052 30.9685 13.9288 30.6584C13.4135 29.7529 12.583 29.1651 11.6461 29.1651C10.0048 29.1594 8.8229 30.9686 8.8229 33.0979L8.82245 33.0979C8.82245 37.2657 12.3117 40.4129 13.7149 41.51C13.8904 41.6473 14.0915 41.7205 14.2967 41.7219C14.5018 41.7233 14.7035 41.6528 14.8801 41.5179C16.2952 40.4392 19.7592 37.3124 19.7592 32.8216Z" fill="#FF5F66"/>
<path d="M16.9279 29.165C15.9911 29.165 15.1606 29.7528 14.6453 30.6584C14.5579 30.812 14.4246 30.8893 14.2908 30.8907L14.2908 41.7216C14.4979 41.7244 14.7017 41.654 14.8801 41.518C16.2952 40.4392 19.7592 37.3125 19.7592 32.8217C19.7592 30.8021 18.4916 29.165 16.9279 29.165Z" fill="#FA184B"/>
</g>
<rect x="0.474958" y="0.260114" width="87.7836" height="63.4798" rx="4.60064" stroke="#E0E4F0" stroke-width="0.520228"/>
<defs>
<linearGradient id="paint0_linear_436_3969" x1="96.5206" y1="1.20087" x2="64.9461" y2="89.9452" gradientUnits="userSpaceOnUse">
<stop stop-color="#F1F6F7"/>
<stop offset="1" stop-color="#E3E8E9"/>
</linearGradient>
<clipPath id="clip0_436_3969">
<rect x="0.214844" width="88.3038" height="64" rx="4.86076" fill="white"/>
</clipPath>
</defs>
</svg>
