<svg width="89" height="64" viewBox="0 0 89 64" fill="none" xmlns="http://www.w3.org/2000/svg">
<g clip-path="url(#clip0_436_3966)">
<rect x="0.214844" width="88.3038" height="64" rx="4.86076" fill="url(#paint0_linear_436_3966)"/>
<path d="M14.7647 10.803L9.51509 23.1494C9.40167 23.4572 9.22344 23.7003 8.9804 23.8785C8.75357 24.0405 8.50243 24.1215 8.22698 24.1215C7.78952 24.1215 7.46547 24 7.25483 23.757C7.0442 23.5139 6.93888 23.2142 6.93888 22.8577C6.93888 22.7119 6.96319 22.558 7.0118 22.3959L13.0634 7.86228C13.1931 7.53823 13.3875 7.28709 13.6467 7.10886C13.9222 6.93064 14.2138 6.85773 14.5217 6.89013C14.8133 6.89013 15.0807 6.97924 15.3237 7.15747C15.5829 7.3195 15.7693 7.55443 15.8827 7.86228L21.8614 22.1043C21.9424 22.3149 21.9829 22.5094 21.9829 22.6876C21.9829 23.1251 21.8371 23.4734 21.5455 23.7327C21.27 23.9919 20.9622 24.1215 20.6219 24.1215C20.3303 24.1215 20.0629 24.0324 19.8199 23.8542C19.5931 23.676 19.4148 23.4329 19.2852 23.1251L14.0599 10.9489L14.7647 10.803ZM10.2685 20.1843L11.6052 17.3894L18.1672 17.3894L18.629 20.1843L10.2685 20.1843Z" fill="#303940"/>
<path d="M78.4012 24.2259C73.091 20.0135 68.1192 14.8685 64.9187 11.3374C62.9675 9.18455 59.6145 9.18296 57.661 11.3335C54.4567 14.8612 49.4797 20.0013 44.1654 24.208C41.0363 26.685 39.2042 30.4103 39.2022 34.3586C39.1986 41.3663 44.976 47.05 52.1064 47.0538C52.2411 47.0538 52.3748 47.0511 52.5082 47.0456C54.2698 46.9719 55.9476 46.3591 57.3716 45.3484L57.3716 51.2464L56.6861 51.2464C54.5281 51.2464 52.7789 53.0135 52.7789 55.1929C52.7789 57.3726 54.5283 59.1394 56.6861 59.1394L65.8716 59.1394C68.0295 59.1394 69.7788 57.3724 69.7788 55.1929C69.7788 53.0132 68.0293 51.2464 65.8716 51.2464L65.1862 51.2464L65.1862 45.361C66.6067 46.3684 68.2802 46.9797 70.0371 47.0547C70.1697 47.0604 70.3031 47.0634 70.4371 47.0634C77.5675 47.067 83.3505 41.3892 83.3541 34.3816C83.3557 30.4333 81.5274 26.7059 78.4012 24.2259Z" fill="#555F65"/>
<path d="M78.4013 24.2259C73.091 20.0135 68.1192 14.8684 64.9187 11.3373C63.9318 10.2486 62.5864 9.712 61.2448 9.72382L61.2448 59.1393L65.8716 59.1393C68.0296 59.1393 69.7788 57.3723 69.7788 55.1928C69.7788 53.0132 68.0293 51.2464 65.8716 51.2464L65.1863 51.2464L65.1863 45.3609C66.6067 46.3684 68.2802 46.9796 70.0371 47.0547C70.1698 47.0604 70.3031 47.0633 70.4371 47.0633C77.5675 47.067 83.3505 41.3892 83.3541 34.3815C83.3557 30.4332 81.5274 26.7058 78.4013 24.2259Z" fill="#303940"/>
<path d="M18.5323 32.8505C17.2169 31.7801 15.9854 30.4728 15.1926 29.5756C14.7093 29.0286 13.8787 29.0282 13.3948 29.5746C12.6011 30.471 11.3683 31.777 10.0519 32.8459C9.27677 33.4753 8.82295 34.4219 8.82245 35.4251C8.82156 37.2057 10.2526 38.6499 12.0189 38.6509C12.0523 38.6509 12.0854 38.6502 12.1184 38.6488C12.5548 38.6301 12.9704 38.4744 13.3231 38.2176L13.3231 39.7162L13.1533 39.7162C12.6188 39.7162 12.1855 40.1652 12.1855 40.719C12.1855 41.2728 12.6188 41.7218 13.1533 41.7218L15.4286 41.7218C15.9632 41.7218 16.3965 41.2728 16.3965 40.719C16.3965 40.1652 15.9631 39.7162 15.4286 39.7162L15.2589 39.7162L15.2589 38.2208C15.6107 38.4768 16.0253 38.6321 16.4604 38.6511C16.4933 38.6526 16.5263 38.6533 16.5595 38.6533C18.3258 38.6543 19.7583 37.2116 19.7592 35.431C19.7595 34.4277 19.3067 33.4806 18.5323 32.8505Z" fill="#555F65"/>
<path d="M18.5323 32.85C17.2169 31.7796 15.9853 30.4723 15.1926 29.5751C14.9481 29.2984 14.6148 29.1621 14.2825 29.1651L14.2825 41.7213L15.4286 41.7213C15.9631 41.7213 16.3964 41.2723 16.3964 40.7185C16.3964 40.1646 15.9631 39.7157 15.4286 39.7157L15.2588 39.7157L15.2588 38.2202C15.6107 38.4762 16.0252 38.6315 16.4604 38.6506C16.4933 38.6521 16.5263 38.6528 16.5595 38.6528C18.3258 38.6537 19.7582 37.2111 19.7591 35.4305C19.7595 34.4272 19.3066 33.4801 18.5323 32.85Z" fill="#303940"/>
</g>
<rect x="0.474958" y="0.260114" width="87.7836" height="63.4798" rx="4.60064" stroke="#E0E4F0" stroke-width="0.520228"/>
<defs>
<linearGradient id="paint0_linear_436_3966" x1="96.5206" y1="1.20087" x2="64.9461" y2="89.9452" gradientUnits="userSpaceOnUse">
<stop stop-color="#F1F6F7"/>
<stop offset="1" stop-color="#E3E8E9"/>
</linearGradient>
<clipPath id="clip0_436_3966">
<rect x="0.214844" width="88.3038" height="64" rx="4.86076" fill="white"/>
</clipPath>
</defs>
</svg>
