<svg width="89" height="64" viewBox="0 0 89 64" fill="none" xmlns="http://www.w3.org/2000/svg">
<g clip-path="url(#clip0_436_3995)">
<rect x="0.126953" width="88.3038" height="64" rx="4.86076" fill="url(#paint0_linear_436_3995)"/>
<path d="M14.6768 10.803L9.4272 23.1494C9.31379 23.4572 9.13556 23.7003 8.89252 23.8785C8.66568 24.0405 8.41454 24.1215 8.1391 24.1215C7.70163 24.1215 7.37758 24 7.16695 23.757C6.95632 23.5139 6.851 23.2142 6.851 22.8577C6.851 22.7119 6.87531 22.558 6.92391 22.3959L12.9756 7.86228C13.1052 7.53823 13.2996 7.28709 13.5589 7.10886C13.8343 6.93064 14.1259 6.85773 14.4338 6.89013C14.7254 6.89013 14.9928 6.97924 15.2358 7.15747C15.4951 7.3195 15.6814 7.55443 15.7948 7.86228L21.7735 22.1043C21.8545 22.3149 21.8951 22.5094 21.8951 22.6876C21.8951 23.1251 21.7492 23.4734 21.4576 23.7327C21.1821 23.9919 20.8743 24.1215 20.534 24.1215C20.2424 24.1215 19.9751 24.0324 19.732 23.8542C19.5052 23.676 19.3269 23.4329 19.1973 23.1251L13.972 10.9489L14.6768 10.803ZM10.1806 20.1843L11.5173 17.3894L18.0794 17.3894L18.5411 20.1843L10.1806 20.1843Z" fill="#303940"/>
<path d="M71.9515 25.943H71.9416C71.5101 25.9435 71.2157 25.5112 71.3848 25.1146C72.0319 23.5982 72.3503 21.9084 72.2486 20.1335C71.9249 14.4845 67.2772 9.93909 61.6186 9.7295C55.3128 9.49576 50.1274 14.5346 50.1274 20.7835C50.1263 22.2744 50.4288 23.7499 51.0165 25.1202C51.1854 25.5144 50.886 25.9444 50.457 25.9432H50.4288C44.0312 25.9432 38.8737 31.2492 39.123 37.6973C39.3479 43.5165 44.0639 48.2706 49.8854 48.5429C52.7356 48.6762 55.3654 47.7535 57.4211 46.1347L57.4211 51.5934L55.4828 51.5934C53.3976 51.5934 51.7072 53.2825 51.7072 55.3663C51.7072 57.45 53.3976 59.1392 55.4828 59.1392L66.9104 59.1392C68.9956 59.1392 70.686 57.45 70.686 55.3663C70.686 53.2825 68.9956 51.5934 66.9104 51.5934L64.9721 51.5934L64.9721 46.1451C67.026 47.7573 69.6509 48.676 72.495 48.5429C78.3164 48.2706 83.0325 43.5165 83.2574 37.6973C83.5066 31.2489 78.3492 25.943 71.9515 25.943Z" fill="#303940"/>
<path d="M71.9515 25.9409H71.9416C71.5101 25.9414 71.2157 25.5091 71.3848 25.1125C72.0319 23.5962 72.3502 21.9063 72.2486 20.1315C71.9248 14.4824 67.2772 9.937 61.6185 9.72741C61.4615 9.72242 61.3043 9.72069 61.1471 9.72222L61.1471 59.1369L66.9105 59.1369C68.9958 59.1369 70.6862 57.4477 70.6862 55.364C70.6862 53.2802 68.9958 51.5911 66.9105 51.5911L64.9722 51.5911L64.9722 46.1428C67.0261 47.755 69.651 48.6737 72.4952 48.5406C78.3166 48.2683 83.0327 43.5142 83.2575 37.695C83.5066 31.2468 78.3491 25.9409 71.9515 25.9409Z" fill="#1E2123"/>
<path d="M16.8685 33.2869L16.8661 33.2869C16.7592 33.287 16.6863 33.1771 16.7282 33.0763C16.8884 32.6911 16.9673 32.2617 16.9421 31.8107C16.8619 30.3753 15.7107 29.2203 14.309 29.167C12.747 29.1076 11.4626 30.388 11.4626 31.9758C11.4623 32.3547 11.5372 32.7296 11.6828 33.0778C11.7246 33.1779 11.6505 33.2872 11.5442 33.2869L11.5372 33.2869C9.95249 33.2869 8.67496 34.6351 8.7367 36.2736C8.79241 37.7523 9.9606 38.9603 11.4026 39.0294C12.1086 39.0633 12.7601 38.8289 13.2693 38.4175L13.2693 39.8046L12.7891 39.8046C12.2726 39.8046 11.8539 40.2338 11.8539 40.7633C11.8539 41.2927 12.2726 41.7219 12.7891 41.7219L15.6198 41.7219C16.1363 41.7219 16.5551 41.2927 16.5551 40.7633C16.5551 40.2338 16.1363 39.8046 15.6198 39.8046L15.1397 39.8046L15.1397 38.4202C15.6484 38.8298 16.2986 39.0633 17.0031 39.0294C18.4452 38.9603 19.6133 37.7523 19.669 36.2736C19.7308 34.6351 18.4533 33.2869 16.8685 33.2869Z" fill="#303940"/>
<path d="M16.8685 33.2863L16.866 33.2863C16.7592 33.2864 16.6862 33.1766 16.7281 33.0758C16.8884 32.6905 16.9673 32.2611 16.9421 31.8101C16.8619 30.3747 15.7107 29.2198 14.309 29.1665C14.2701 29.1652 14.2311 29.1648 14.1922 29.1652L14.1922 41.7214L15.6198 41.7214C16.1364 41.7214 16.5551 41.2921 16.5551 40.7627C16.5551 40.2332 16.1364 39.804 15.6198 39.804L15.1397 39.804L15.1397 38.4196C15.6485 38.8292 16.2987 39.0627 17.0032 39.0289C18.4452 38.9597 19.6134 37.7517 19.6691 36.273C19.7308 34.6345 18.4532 33.2863 16.8685 33.2863Z" fill="#1E2123"/>
</g>
<rect x="0.387067" y="0.260114" width="87.7836" height="63.4798" rx="4.60064" stroke="#E0E4F0" stroke-width="0.520228"/>
<defs>
<linearGradient id="paint0_linear_436_3995" x1="96.4327" y1="1.20087" x2="64.8582" y2="89.9452" gradientUnits="userSpaceOnUse">
<stop stop-color="#F1F6F7"/>
<stop offset="1" stop-color="#E3E8E9"/>
</linearGradient>
<clipPath id="clip0_436_3995">
<rect x="0.126953" width="88.3038" height="64" rx="4.86076" fill="white"/>
</clipPath>
</defs>
</svg>
