<svg width="90" height="64" viewBox="0 0 90 64" fill="none" xmlns="http://www.w3.org/2000/svg">
<g clip-path="url(#clip0_436_4014)">
<rect x="0.734131" width="88.3038" height="64" rx="4.86076" fill="url(#paint0_linear_436_4014)"/>
<path d="M15.284 10.803L10.0344 23.1494C9.92096 23.4572 9.74274 23.7003 9.4997 23.8785C9.27286 24.0405 9.02172 24.1215 8.74628 24.1215C8.30881 24.1215 7.98476 24 7.77413 23.757C7.5635 23.5139 7.45818 23.2142 7.45818 22.8577C7.45818 22.7119 7.48248 22.558 7.53109 22.3959L13.5827 7.86228C13.7124 7.53823 13.9068 7.28709 14.166 7.10886C14.4415 6.93064 14.7331 6.85773 15.041 6.89013C15.3326 6.89013 15.6 6.97924 15.843 7.15747C16.1022 7.3195 16.2886 7.55443 16.402 7.86228L22.3807 22.1043C22.4617 22.3149 22.5022 22.5094 22.5022 22.6876C22.5022 23.1251 22.3564 23.4734 22.0648 23.7327C21.7893 23.9919 21.4815 24.1215 21.1412 24.1215C20.8496 24.1215 20.5822 24.0324 20.3392 23.8542C20.1124 23.676 19.9341 23.4329 19.8045 23.1251L14.5792 10.9489L15.284 10.803ZM10.7878 20.1843L12.1245 17.3894L18.6865 17.3894L19.1483 20.1843L10.7878 20.1843Z" fill="#D3003C"/>
<path d="M83.2447 32.6684L63.9757 10.6825C62.853 9.40146 60.745 9.40146 59.6223 10.6822L40.3503 32.6682C39.9451 33.1304 39.7232 33.7075 39.7215 34.3032C39.7198 34.8989 39.9384 35.4771 40.3409 35.9413L59.6129 58.1681C60.7361 59.4632 62.8621 59.4632 63.9851 58.1679L83.2541 35.9411C83.6564 35.4769 83.8749 34.8988 83.8732 34.3032C83.8715 33.7076 83.6497 33.1306 83.2447 32.6684Z" fill="#FA184B"/>
<path d="M63.9757 10.6813C63.4085 10.0341 62.5899 9.71504 61.7739 9.72178L61.7739 59.1373C62.5946 59.144 63.4178 58.8214 63.9851 58.1669L83.2541 35.9401C83.6564 35.4759 83.875 34.8978 83.8733 34.3021C83.8716 33.7065 83.6497 33.1294 83.2447 32.6673L63.9757 10.6813Z" fill="#D3003C"/>
<path d="M20.1227 34.9958L15.3497 29.4092C15.0716 29.0837 14.5494 29.0837 14.2713 29.4091L9.49749 34.9957C9.39714 35.1132 9.34216 35.2598 9.34174 35.4112C9.34131 35.5625 9.39547 35.7095 9.49517 35.8274L14.269 41.4752C14.5472 41.8043 15.0738 41.8043 15.352 41.4751L20.125 35.8273C20.2247 35.7094 20.2788 35.5625 20.2784 35.4112C20.278 35.2598 20.223 35.1132 20.1227 34.9958Z" fill="#FA184B"/>
<path d="M15.3496 29.4089C15.2091 29.2444 15.0064 29.1634 14.8042 29.1651L14.8042 41.7215C15.0075 41.7232 15.2114 41.6412 15.3519 41.4749L20.125 35.8271C20.2247 35.7092 20.2788 35.5622 20.2784 35.4109C20.278 35.2595 20.223 35.1129 20.1227 34.9955L15.3496 29.4089Z" fill="#D3003C"/>
</g>
<rect x="0.994245" y="0.260114" width="87.7836" height="63.4798" rx="4.60064" stroke="#E0E4F0" stroke-width="0.520228"/>
<defs>
<linearGradient id="paint0_linear_436_4014" x1="97.0398" y1="1.20087" x2="65.4654" y2="89.9452" gradientUnits="userSpaceOnUse">
<stop stop-color="#F1F6F7"/>
<stop offset="1" stop-color="#E3E8E9"/>
</linearGradient>
<clipPath id="clip0_436_4014">
<rect x="0.734131" width="88.3038" height="64" rx="4.86076" fill="white"/>
</clipPath>
</defs>
</svg>
