<svg width="89" height="64" viewBox="0 0 89 64" fill="none" xmlns="http://www.w3.org/2000/svg">
<g clip-path="url(#clip0_436_3931)">
<rect width="88.3038" height="64" rx="4.86076" fill="url(#paint0_linear_436_3931)"/>
<path d="M74.7595 37.6216V26.3611C67.736 25.9459 62.0968 20.2378 61.6867 13.1287H26.3133C25.9031 20.2378 20.2639 25.9459 13.2405 26.3611V37.6216C20.2639 38.0368 25.9031 43.7449 26.3133 50.8541H61.7038C62.0968 43.7449 67.736 38.0368 74.7595 37.6216ZM60.0291 32C57.5 33.6432 55.3468 35.8227 53.7234 38.3827C52.0316 35.8746 49.8955 33.7124 47.4177 32C49.8955 30.3049 52.0487 28.1427 53.7234 25.6173C55.3468 28.1773 57.5 30.3568 60.0291 32ZM44 34.1622C42.8209 34.1622 41.8639 33.1935 41.8639 32C41.8639 30.8065 42.8209 29.8378 44 29.8378C45.1791 29.8378 46.136 30.8065 46.136 32C46.136 33.1935 45.1791 34.1622 44 34.1622ZM37.6943 22.1405C40.2234 20.4973 42.3766 18.3178 44 15.7578C45.6234 18.3178 47.7766 20.4973 50.3057 22.1405C47.8278 23.853 45.6917 26.0151 44 28.5232C42.3253 26.0324 40.1892 23.853 37.6943 22.1405ZM27.9709 32C30.5 30.3568 32.6531 28.1773 34.2766 25.6173C35.9683 28.1254 38.1044 30.2876 40.5823 32C38.1044 33.6951 35.9512 35.8573 34.2766 38.3827C32.6531 35.8227 30.5 33.6432 27.9709 32ZM44 48.2249C42.3766 45.6649 40.2234 43.4854 37.6943 41.8422C40.1721 40.1297 42.3082 37.9676 44 35.4595C45.6747 37.9676 47.8107 40.147 50.3057 41.8422C47.7766 43.4854 45.6234 45.6649 44 48.2249ZM11.3266 43.3124C10.6259 43.3124 9.95947 43.3989 9.3101 43.5373V54.8324H20.469C20.6057 54.1751 20.6911 53.4832 20.6911 52.7914C20.6911 47.5676 16.4873 43.3124 11.3266 43.3124ZM11.9417 47.6541C13.4114 47.9481 14.9323 47.9308 16.4019 47.6541C16.1114 49.1416 16.1114 50.6811 16.4019 52.1687C14.9323 51.84 13.4114 51.84 11.9417 52.1687C12.2664 50.6811 12.2664 49.1416 11.9417 47.6541ZM20.6911 11.2087C20.6911 10.4995 20.6057 9.82487 20.469 9.16758H9.3101V20.4627C9.95947 20.6011 10.643 20.6876 11.3266 20.6876C16.4873 20.6876 20.6911 16.4324 20.6911 11.2087ZM16.4019 16.346C14.9323 16.0519 13.4114 16.0519 11.9417 16.346C12.2664 14.8584 12.2664 13.3189 11.9417 11.8314C13.4114 12.16 14.9323 12.16 16.4019 11.8314C16.1114 13.3189 16.1114 14.8584 16.4019 16.346ZM76.6734 20.6876C77.374 20.6876 78.0405 20.6011 78.6898 20.4627V9.16758H67.531C67.3943 9.82487 67.3088 10.5168 67.3088 11.2087C67.3088 16.4324 71.5126 20.6876 76.6734 20.6876ZM76.0582 16.346C74.5886 16.0692 73.0677 16.0692 71.5981 16.346C71.8886 14.8584 71.8886 13.3189 71.5981 11.8314C73.0677 12.16 74.5886 12.16 76.0582 11.8314C75.7335 13.3189 75.7335 14.8584 76.0582 16.346ZM76.6734 41.5827C77.3569 41.5827 78.0405 41.6519 78.6898 41.773V22.2443C78.0405 22.3654 77.3569 22.4346 76.6734 22.4346C70.5557 22.4346 65.6 17.4184 65.6 11.226C65.6 10.5341 65.6683 9.84217 65.7879 9.18488H22.212C22.3316 9.84217 22.4 10.5341 22.4 11.226C22.4 17.4184 17.4443 22.4346 11.3266 22.4346C10.643 22.4346 9.95947 22.3654 9.3101 22.2443V41.773C9.95947 41.6519 10.643 41.5827 11.3266 41.5827C17.4443 41.5827 22.4 46.5989 22.4 52.7914C22.4 53.4832 22.3316 54.1751 22.212 54.8324H65.7709C65.6512 54.1751 65.5829 53.4832 65.5829 52.7914C65.6 46.5989 70.5557 41.5827 76.6734 41.5827ZM24.5873 52.5838C24.6044 52.2724 24.6215 51.9784 24.6215 51.667C24.6215 44.8519 19.1702 39.3341 12.4373 39.3341C12.1297 39.3341 11.8221 39.3514 11.5316 39.3687V24.6314C11.8392 24.6487 12.1297 24.666 12.4373 24.666C19.1702 24.666 24.6215 19.1481 24.6215 12.333C24.6215 12.0216 24.6044 11.7276 24.5873 11.4162H63.4126C63.3955 11.7276 63.3785 12.0216 63.3785 12.333C63.3785 19.1481 68.8297 24.666 75.5626 24.666C75.8702 24.666 76.1607 24.6487 76.4683 24.6314V39.3687C76.1607 39.3514 75.8702 39.3341 75.5626 39.3341C68.8297 39.3341 63.3785 44.8519 63.3785 51.667C63.3785 51.9784 63.3955 52.2897 63.4126 52.5838H24.5873ZM76.6734 43.3124C71.5126 43.3124 67.3088 47.5676 67.3088 52.7914C67.3088 53.5005 67.3943 54.1751 67.531 54.8324H78.6898V43.5373C78.0405 43.3816 77.3569 43.2951 76.6734 43.3124ZM71.5981 47.6541C73.0677 47.9481 74.5886 47.9481 76.0582 47.6541C75.7335 49.1416 75.7335 50.6811 76.0582 52.1687C74.5886 51.84 73.0677 51.84 71.5981 52.1687C71.8886 50.6811 71.8886 49.1416 71.5981 47.6541ZM0.253143 4.32433V59.6757C0.253143 62.0627 2.16707 64 4.52529 64H83.4747C85.8329 64 87.7468 62.0627 87.7468 59.6757V4.32433C87.7468 1.93731 85.8329 7.62939e-06 83.4747 7.62939e-06H4.52529C2.16707 7.62939e-06 0.253143 1.93731 0.253143 4.32433ZM82.6202 3.45947C83.5601 3.45947 84.3291 4.23785 84.3291 5.1892V58.8108C84.3291 59.7622 83.5601 60.5405 82.6202 60.5405H5.37972C4.43985 60.5405 3.67086 59.7622 3.67086 58.8108V5.1892C3.67086 4.23785 4.43985 3.45947 5.37972 3.45947H82.6202ZM82.6202 58.8108V5.1892H5.37972V58.8108H82.6202ZM9.3101 56.5622C8.37023 56.5622 7.60124 55.7838 7.60124 54.8324V9.16758C7.60124 8.21622 8.37023 7.43785 9.3101 7.43785H78.6898C79.6297 7.43785 80.3987 8.21622 80.3987 9.16758V54.8324C80.3987 55.7838 79.6297 56.5622 78.6898 56.5622H9.3101Z" fill="url(#paint1_linear_436_3931)"/>
</g>
<rect x="0.260114" y="0.260114" width="87.7836" height="63.4798" rx="4.60064" stroke="#E0E4F0" stroke-width="0.520228"/>
<defs>
<linearGradient id="paint0_linear_436_3931" x1="96.3057" y1="1.20087" x2="64.7312" y2="89.9452" gradientUnits="userSpaceOnUse">
<stop stop-color="#F1F6F7"/>
<stop offset="1" stop-color="#E3E8E9"/>
</linearGradient>
<linearGradient id="paint1_linear_436_3931" x1="7.57065" y1="68.8742" x2="81.3136" y2="-3.97907" gradientUnits="userSpaceOnUse">
<stop stop-color="#FF5F66"/>
<stop offset="1" stop-color="#D3003C"/>
</linearGradient>
<clipPath id="clip0_436_3931">
<rect width="88.3038" height="64" rx="4.86076" fill="white"/>
</clipPath>
</defs>
</svg>
