<?xml version="1.0" encoding="utf-8" ?><svg xmlns="http://www.w3.org/2000/svg" xmlns:xlink="http://www.w3.org/1999/xlink" width="88" height="64" viewBox="0 0 88 64"><defs><linearGradient id="gradient_0" gradientUnits="userSpaceOnUse" x1="959.56445" y1="431.74542" x2="236.82207" y2="433.7583"><stop offset="0" stop-color="#191817"/><stop offset="1" stop-color="#3B454C"/></linearGradient></defs><path fill="url(#gradient_0)" transform="scale(0.0743243 0.0740741)" d="M441.761 317.409C444.051 317.563 445.761 317.896 447.877 317.085C449.3 315.504 448.905 316.265 449.157 314.001C447.719 309.064 439.24 300.682 437.89 297.659C435.622 292.58 430.88 282.447 428.948 277.642C427.453 273.922 421.605 256.448 421.285 253.878C418.573 232.103 418.575 206.646 421.302 184.884C422.409 180.754 423.937 176.165 425.405 172.198C426.783 168.472 427.378 163.946 428.845 160.463C435.858 143.795 443.08 129.97 453.871 115.412C473.839 88.4757 501.019 68.8362 532.635 57.7815C541.363 53.3878 549.775 51.7228 559.348 50.3123C564.209 49.596 570.543 46.9752 575.402 46.6553C596.33 45.2775 618.224 44.2761 638.477 50.6278C642.664 51.9406 648.384 52.1773 652.705 53.4796C664.703 58.0162 678.07 62.7298 689.227 69.0715C704.539 77.7745 720.362 89.2271 731.172 103.257C732.586 105.091 733.213 105.063 735.249 105.983L735.671 106.698C739.69 113.431 746.058 119.89 750.439 127.432C755.355 135.894 761.216 145.372 765.121 154.497C765.853 156.209 766.532 163.233 767.303 165.965C768.063 168.659 772.603 175.651 772.783 177.016C774.803 192.356 775.355 211.475 775.001 226.887C774.714 239.403 774.539 251.835 772.598 263.915C772.166 266.603 769.298 267.736 767.957 270.527C766.559 273.439 766.334 278.795 764.957 281.808C760.622 291.289 755.157 303.149 749.193 311.593C748.867 312.055 746.504 312.471 745.926 312.571C745.299 313.913 746.161 315.989 746.757 317.427C761.474 318.684 770.646 314.329 784.862 313.801C787.644 313.698 798.343 314.038 800.516 314.714C810.081 317.693 824.88 317.069 833.809 319.741C863.707 328.69 891.672 343.169 913.294 366.009C915.666 368.517 916.484 367.313 918.742 371.311C922.392 377.772 929.323 384.184 933.12 390.762C935.461 394.816 935.33 395.34 938.817 398.065C940.493 404.874 942.121 407.215 945.299 413.441C948.532 419.775 947.552 422.411 952.732 427.896C954.215 434.117 954.814 442.177 955.205 448.625C955.454 452.894 955.401 455.561 956.754 459.686C957.132 460.177 957.161 460.099 957.72 460.449C958.39 458.857 958.767 458.125 959.628 456.625C961.048 465.173 962.488 515.527 958.301 521.193C957.23 521.295 957.105 521.307 956.04 521.189C954.812 523.199 953.592 537.966 952.843 542.158L952.257 542.718C945.812 548.927 948.805 551.831 945.791 557.978C942.282 565.133 937.485 573.637 933.203 580.366C899.469 632.495 841.505 663.834 779.428 663.507C731.19 662.613 685.3 642.512 651.928 607.658C647.911 603.529 644.907 600.559 641.69 595.726C639.371 592.243 638.973 585.85 635.833 584.468C634.122 585.218 634.377 585.252 633.382 587.354L632.616 587.141L632.63 586.347C632.678 582.887 632.316 577.952 629.211 575.831C625.712 576.797 625.588 585.994 626.821 588.622C632.684 601.124 633.041 612.45 633.757 626.284C640.056 633.602 638.543 640.6 641.088 649.082C643.658 657.645 646.776 666.614 648.411 675.608C648.67 677.035 652.243 679.972 652.677 681.631C653.819 684.625 653.921 688.812 655.204 691.698C672.525 730.661 694.27 768.273 726.181 797.14C729.988 800.585 750.468 814.722 750.485 819.176C748.208 820.345 741.396 820.056 738.586 819.988C713.579 814.863 685.82 816.122 660.433 816.075C643.5 816.044 626.567 815.826 609.633 815.803C602.09 815.792 594.004 812.405 586.339 812.418C554.135 812.382 521.906 812.971 489.698 812.729C479.797 812.655 470.165 812.789 460.441 814.708C458.612 815.069 457.554 815.055 456.09 813.958C455.324 811.123 457.426 808.397 458.933 805.743C468.721 795.659 480.249 786.443 489.449 776.394C519.011 744.102 540.233 704.059 552.634 662.245C553.665 658.793 555.499 655.142 556.453 651.689C560.777 636.027 565.299 621.081 566.441 604.753C566.662 601.595 567.081 594.515 567.998 591.671L568.477 591.634C568.847 593.505 569.098 594.657 569.685 596.468C572.325 592.14 570.639 579.291 569.143 574.44C568.383 575.996 567.575 577.528 566.721 579.035C565.118 581.805 562.535 584.385 561.039 586.991C554.767 597.91 547.814 604.596 538.827 613.184C520.821 630.777 500.134 642.652 476.973 652.055C467.357 655.959 462.173 657.9 451.569 658.747C449.026 658.951 444.275 661.545 441.378 662.057C433.421 663.464 424.966 663.649 416.899 663.758C372.182 664.501 328.8 648.512 295.255 618.925C290.155 614.513 284.009 608.089 279.923 602.78C274.174 595.308 268.456 590.366 263.509 582.365C254.181 567.177 245.553 550.468 241.091 533.097C238.98 524.88 237.434 514.739 235.561 506.144C231.907 492.444 232.894 466.843 237.326 453.176C237.999 450.333 238.526 447.336 239.074 444.456C240.733 430.323 248.188 417.952 253.88 405.336C256.951 396.869 271.099 379.088 277.218 371.978C298.437 347.242 326.491 329.332 357.855 320.499C364.334 318.695 370.56 318.137 376.836 316.721C385.031 314.871 388.359 313.347 397.05 312.695C406.505 311.713 417.001 311.878 426.354 313.705C431.394 314.689 437.017 316.559 441.761 317.409Z"/><path fill="#66696E" transform="scale(0.0743243 0.0740741)" d="M237.326 453.176C243.048 464.854 237.958 481.579 238.679 494.242C238.958 499.134 235.579 504.136 235.561 506.144C231.907 492.444 232.894 466.843 237.326 453.176Z"/><path fill="#505358" transform="scale(0.0743243 0.0740741)" d="M397.05 312.695C406.505 311.713 417.001 311.878 426.354 313.705C431.394 314.689 437.017 316.559 441.761 317.409C429.868 317.781 417.679 320.036 405.76 316.844C403.699 316.292 404.1 313.166 397.05 312.695Z"/><path fill="#505358" transform="scale(0.0743243 0.0740741)" d="M253.88 405.336C253.91 414.691 253.113 414.528 249.043 422.626C246.612 427.463 249.788 436.416 244.834 440.586C242.62 442.801 241.272 442.874 239.074 444.456C240.733 430.323 248.188 417.952 253.88 405.336Z"/><path fill="#505358" fill-opacity="0.98823529" transform="scale(0.0743243 0.0740741)" d="M738.586 819.988C719.392 820.527 697.781 820.013 678.386 819.969L574.939 819.773L486.048 819.723C474.479 819.743 462.897 819.929 451.331 820.039C450.019 820.052 447.775 819.885 446.762 819.029C446.027 818.409 446.304 818.531 446.251 817.293C448.144 813.597 455.08 807.77 458.933 805.743C457.426 808.397 455.324 811.123 456.09 813.958C457.554 815.055 458.612 815.069 460.441 814.708C470.165 812.789 479.797 812.655 489.698 812.729C521.906 812.971 554.135 812.382 586.339 812.418C594.004 812.405 602.09 815.792 609.633 815.803C626.567 815.826 643.5 816.044 660.433 816.075C685.82 816.122 713.579 814.863 738.586 819.988Z"/><path fill="#505358" fill-opacity="0.97254902" transform="scale(0.0743243 0.0740741)" d="M958.407 446.386C958.605 449.22 959.597 454.869 959.628 456.625C958.767 458.125 958.39 458.857 957.72 460.449C957.161 460.099 957.132 460.177 956.754 459.686C956.755 455.405 956.203 449.892 958.407 446.386Z"/><path fill="#8D8D91" fill-opacity="0.074509807" transform="scale(0.0743243 0.0740741)" d="M955.205 448.625C955.748 448.501 955.795 448.324 956.298 447.902C956.239 446.309 956.013 445.198 956.742 443.809L957.859 443.654C958.699 445.25 958.439 444.392 958.407 446.386C956.203 449.892 956.755 455.405 956.754 459.686C955.401 455.561 955.454 452.894 955.205 448.625Z"/></svg>