<?xml version="1.0" encoding="utf-8" ?><svg xmlns="http://www.w3.org/2000/svg" xmlns:xlink="http://www.w3.org/1999/xlink" width="88" height="64" viewBox="0 0 88 64"><path fill="#CF0C39" transform="matrix(0.0743243 0 0 0.0740741 0.000976562 0)" d="M590.587 77.3857C609.462 77.9773 610.57 85.0036 621.371 99.2633L643.387 128.149L738.724 253.072L801.038 333.537C820.836 359.108 840.83 384.597 860.474 410.209C867.814 419.778 869.153 440.824 862.767 450.926C854.426 464.123 843.133 476.279 833.691 488.554C825.267 499.505 817.129 510.343 808.652 521.236L700.434 661.024L638.175 742.359C628.731 754.87 618.242 768.531 608.605 780.898C604.852 785.713 591.276 787.603 585.346 786.068C574.784 785.113 569.38 774.722 563.544 767.146C555.683 757.043 547.888 746.887 540.16 736.681L463.504 636.862L370.927 516.704C354.941 496.068 338.724 475.325 323.214 454.564C316.028 444.946 313.294 423.268 320.03 414.067C335.678 392.692 352.742 370.56 368.969 349.66L467.327 222.718L538.65 129.686L562.424 97.6402C572.069 84.808 573.316 78.0248 590.587 77.3857Z"/><path fill="#FB214E" transform="matrix(0.0743243 0 0 0.0740741 0.000976562 0)" d="M585.346 786.068C574.784 785.113 569.38 774.722 563.544 767.146C555.683 757.043 547.888 746.887 540.16 736.681L463.504 636.862L370.927 516.704C354.941 496.068 338.724 475.325 323.214 454.564C316.028 444.946 313.294 423.268 320.03 414.067C335.678 392.692 352.742 370.56 368.969 349.66L467.327 222.718L538.65 129.686L562.424 97.6402C572.069 84.808 573.316 78.0248 590.587 77.3857C589.656 90.3066 590.452 110.986 590.535 124.756L590.649 204.22C590.704 247.377 591.197 784.294 590.459 785.794C588.314 786.277 587.525 786.155 585.346 786.068Z"/></svg>