<?xml version="1.0" encoding="utf-8" ?><svg xmlns="http://www.w3.org/2000/svg" xmlns:xlink="http://www.w3.org/1999/xlink" width="88" height="64" viewBox="0 0 88 64"><path fill="#F87275" transform="scale(0.0743243 0.0740741)" d="M591.338 815.544C583.225 814.898 556.871 799.987 548.785 795.595C459.399 747.855 378.629 685.491 309.82 611.085C236.756 532.897 175.522 427.871 162.705 320.105C161.188 299.597 160.921 278.053 161.874 257.494C164.448 202.009 189.93 143.964 230.18 106.511C256.371 81.8441 288.181 63.9379 322.852 54.3444C338.622 49.9091 345.862 48.8544 362.382 49.5943C372.976 50.0688 384.363 49.4166 395.137 49.8241C401.698 49.7241 411.553 49.3563 417.718 50.2979C424.513 51.4996 431.156 53.8742 437.814 55.6229C473.045 64.8763 502.596 83.1644 529.921 106.804C543.528 118.576 551.847 125.037 563.48 139.131C567.298 143.093 585.466 162.007 586.318 166.033L591.339 169.994C597.037 165.486 602.129 157.336 607.309 151.71C620.056 137.638 633.504 124.218 647.602 111.5C672.042 89.7802 696.887 74.8264 726.877 62.3339C729.521 61.2323 730.074 61.2794 732.877 61.4454C737.034 61.5394 740.1 57.7583 744.084 56.6203C748.972 55.2242 754.045 55.8549 759.053 55.2469C762.682 54.5903 766.994 51.3964 770.565 50.9385C780.283 49.8103 790.799 49.3221 800.566 49.6081C813.105 49.9753 828.192 48.3612 840.281 51.7592C848.545 54.0818 858.163 54.7269 865.827 56.8994C893.199 64.5948 917.816 75.0654 939.343 93.8711C964.986 116.272 985.932 141.24 1000.5 172.253C1006.43 184.881 1011.83 195.099 1014.08 209.211C1014.66 212.901 1016.88 217.504 1017.27 221.388C1018.62 235.87 1022.82 250.625 1023 265.153C1023.19 280.267 1024.47 298.722 1021.94 313.623C1020.31 323.219 1019.01 334.079 1017.35 343.491C1014.68 358.153 1011.34 372.687 1007.34 387.046C976.363 494.443 900.949 591.832 819.159 665.821C773.884 707.19 724.55 743.882 671.907 775.338C661.665 781.586 601.977 815.077 593.918 815.49C593.058 815.532 592.198 815.55 591.338 815.544Z"/><path fill="#EA2448" transform="scale(0.0743243 0.0740741)" d="M732.877 61.4454C737.034 61.5394 740.1 57.7583 744.084 56.6203C748.972 55.2242 754.045 55.8549 759.053 55.2469C762.682 54.5903 766.994 51.3964 770.565 50.9385C780.283 49.8103 790.799 49.3221 800.566 49.6081C813.105 49.9753 828.192 48.3612 840.281 51.7592C848.545 54.0818 858.163 54.7269 865.827 56.8994C893.199 64.5948 917.816 75.0654 939.343 93.8711C964.986 116.272 985.932 141.24 1000.5 172.253C1006.43 184.881 1011.83 195.099 1014.08 209.211C1014.66 212.901 1016.88 217.504 1017.27 221.388C1018.62 235.87 1022.82 250.625 1023 265.153C1023.19 280.267 1024.47 298.722 1021.94 313.623C1020.31 323.219 1019.01 334.079 1017.35 343.491C1014.68 358.153 1011.34 372.687 1007.34 387.046C976.363 494.443 900.949 591.832 819.159 665.821C773.884 707.19 724.55 743.882 671.907 775.338C661.665 781.586 601.977 815.077 593.918 815.49C593.058 815.532 592.198 815.55 591.338 815.544C591.022 809.673 592.676 805.518 592.673 798.964L593.051 713.109L592.656 337.446L592.56 221.733C592.5 207.931 593.278 186.698 592.437 173.481C590.055 172.656 587.414 168.267 586.318 166.033L591.339 169.994C597.037 165.486 602.129 157.336 607.309 151.71C620.056 137.638 633.504 124.218 647.602 111.5C672.042 89.7802 696.887 74.8264 726.877 62.3339C729.521 61.2323 730.074 61.2794 732.877 61.4454Z"/><path fill="#F0D1D2" transform="scale(0.0743243 0.0740741)" d="M591.339 169.994C597.037 165.486 602.129 157.336 607.309 151.71C620.056 137.638 633.504 124.218 647.602 111.5C672.042 89.7802 696.887 74.8264 726.877 62.3339C729.521 61.2323 730.074 61.2794 732.877 61.4454C731.916 63.8666 712.948 71.0313 708.542 73.0783C664.064 93.7456 632.112 129.639 599.542 165.093C597.313 167.519 594.186 170.752 592.437 173.481C590.055 172.656 587.414 168.267 586.318 166.033L591.339 169.994Z"/><path fill="#F0D1D2" transform="scale(0.0743243 0.0740741)" d="M395.137 49.8241C401.698 49.7241 411.553 49.3563 417.718 50.2979C424.513 51.4996 431.156 53.8742 437.814 55.6229C473.045 64.8763 502.596 83.1644 529.921 106.804C543.528 118.576 551.847 125.037 563.48 139.131C562.296 140.042 560.493 138.645 559.663 137.766C521.055 96.8846 473.003 64.5827 416.909 54.5626C409.274 53.1988 403.76 50.2069 395.137 49.8241Z"/></svg>