<svg width="218" height="158" viewBox="0 0 218 158" fill="none" xmlns="http://www.w3.org/2000/svg">
<g clip-path="url(#clip0_385_2096)">
<rect width="218" height="158" rx="12" fill="url(#paint0_linear_385_2096)"/>
<path d="M30.28 60.6C28 60.6 25.88 60.14 23.92 59.22C21.96 58.3 20.36 56.98 19.12 55.26C18.64 54.54 18.4 53.84 18.4 53.16C18.4 52.16 18.78 51.32 19.54 50.64C20.34 49.96 21.12 49.62 21.88 49.62C22.48 49.62 23.06 49.8 23.62 50.16C24.22 50.52 24.76 50.94 25.24 51.42C26.04 52.14 26.82 52.66 27.58 52.98C28.38 53.26 29.28 53.4 30.28 53.4C31.48 53.4 32.6 53.1 33.64 52.5C34.68 51.9 35.52 51.1 36.16 50.1C36.8 49.1 37.12 48.02 37.12 46.86L37.12 21.66C37.12 20.62 37.5 19.76 38.26 19.08C39.02 18.36 39.9 18 40.9 18C42.02 18 42.92 18.36 43.6 19.08C44.28 19.76 44.62 20.62 44.62 21.66L44.62 46.86C44.62 49.3 43.98 51.56 42.7 53.64C41.42 55.72 39.7 57.4 37.54 58.68C35.38 59.96 32.96 60.6 30.28 60.6Z" fill="#303940"/>
<path d="M42.0807 82.1757L42.0747 82.1757C41.8108 82.176 41.6308 81.9049 41.7342 81.656C42.1299 80.7048 42.3246 79.6448 42.2624 78.5314C42.0644 74.9877 39.2223 72.1364 35.7619 72.0049C31.9058 71.8583 28.7348 75.0191 28.7348 78.9392C28.7341 79.8744 28.9191 80.8 29.2785 81.6596C29.3817 81.9068 29.1987 82.1766 28.9363 82.1759L28.9191 82.1759C25.0068 82.1759 21.8529 85.5043 22.0053 89.5493C22.1428 93.1997 25.0268 96.1819 28.5867 96.3528C30.3297 96.4364 31.9379 95.8576 33.1951 94.8421L33.1951 98.2663L32.0097 98.2663C30.7345 98.2663 29.7008 99.326 29.7008 100.633C29.7008 101.94 30.7345 103 32.0097 103L38.9979 103C40.2731 103 41.3069 101.94 41.3069 100.633C41.3069 99.326 40.2731 98.2663 38.9979 98.2663L37.8126 98.2663L37.8126 94.8486C39.0686 95.86 40.6738 96.4363 42.4131 96.3528C45.973 96.1819 48.857 93.1997 48.9945 89.5493C49.1469 85.5042 45.993 82.1757 42.0807 82.1757Z" fill="#303940"/>
<path d="M42.0807 82.1744L42.0746 82.1744C41.8108 82.1747 41.6307 81.9035 41.7341 81.6547C42.1299 80.7035 42.3245 79.6435 42.2624 78.5301C42.0644 74.9864 39.2223 72.1351 35.7619 72.0036C35.6658 72.0005 35.5697 71.9994 35.4736 72.0003L35.4736 102.998L38.998 102.998C40.2732 102.998 41.307 101.939 41.307 100.632C41.307 99.3245 40.2732 98.2649 38.998 98.2649L37.8127 98.2649L37.8127 94.8472C39.0687 95.8585 40.6739 96.4348 42.4132 96.3513C45.9731 96.1805 48.8571 93.1982 48.9946 89.5478C49.1469 85.5029 45.993 82.1744 42.0807 82.1744Z" fill="#1E2123"/>
<path d="M188.598 76H195.087C195.087 76 194.524 90.05 206 102.621C206 102.621 202.782 112.116 193.317 113.565V131.283C193.317 137.264 188.741 140.992 186.453 142.109C176.854 146.782 157.146 150.539 145 132.88L147.5 127C159.056 143.268 177.095 138.441 184.281 135.424C185.39 134.908 187.606 133.121 187.606 130.1V117.677C186.581 117.707 184.075 118.171 182.258 119.781C180.44 121.391 177.773 122.224 176.666 122.439C171.626 123.267 169.963 120.457 169.963 120.457C172.162 120.161 175.299 115.872 176.237 114.63C177.685 112.707 180.93 106.673 184.174 106.673C184.829 106.665 186.433 106.955 187.606 108.182C192.727 107.945 195.355 106.762 198.144 103.183C198.144 103.183 188.84 92.3867 188.598 76Z" fill="#1E2123"/>
<path d="M159 76C159 76 155.059 112.515 145.492 132.416C144.323 134.148 143.073 135.733 141.714 137.113C135.49 143.394 129.945 145.449 122.688 144.921C113.502 144.246 106 136.849 106 126.869C106 116.889 113.474 108.817 122.688 108.817C128.994 108.817 134.457 112.574 137.311 118.121C136.713 114.57 133.315 100.04 118.204 100.04L128.26 76H159Z" fill="#303940"/>
<path d="M202 70V51L191.813 53.0652H156.5V70H202Z" fill="#E2CF00"/>
<path d="M111 70V51L121.299 53.0652H157V70H111Z" fill="#FCE80C"/>
<path d="M190 54L174.138 43H155.897V54H190Z" fill="#131F67"/>
<path d="M123 54L138.814 43H157V54H123Z" fill="#22349B"/>
<path d="M166 36.3636L161.5 41H157V24L166 36.3636Z" fill="#FA184B"/>
<path d="M148 36.3636L152.5 41H157V24L148 36.3636Z" fill="#FA184B"/>
<path d="M166 36.3636L161.5 41H157V24L166 36.3636Z" fill="#D3003C"/>
<path d="M170 87.7132C170 87.7132 178.406 85 179.887 85C181.367 85 182.583 86.2236 182.583 87.7132C182.583 89.2294 181.394 90.4264 179.887 90.4264C178.38 90.4264 170 87.7132 170 87.7132Z" fill="#131F67"/>
</g>
<rect x="0.642157" y="0.642157" width="216.716" height="156.716" rx="11.3578" stroke="#E0E4F0" stroke-width="1.28431"/>
<defs>
<linearGradient id="paint0_linear_385_2096" x1="237.755" y1="2.96465" x2="159.805" y2="222.052" gradientUnits="userSpaceOnUse">
<stop stop-color="#F1F6F7"/>
<stop offset="1" stop-color="#E3E8E9"/>
</linearGradient>
<clipPath id="clip0_385_2096">
<rect width="218" height="158" rx="12" fill="white"/>
</clipPath>
</defs>
</svg>
