<svg width="218" height="158" viewBox="0 0 218 158" fill="none" xmlns="http://www.w3.org/2000/svg">
<g clip-path="url(#clip0_864_4775)">
<rect width="218" height="158" rx="12" fill="url(#paint0_linear_864_4775)"/>
<path d="M30.28 60.6C28 60.6 25.88 60.14 23.92 59.22C21.96 58.3 20.36 56.98 19.12 55.26C18.64 54.54 18.4 53.84 18.4 53.16C18.4 52.16 18.78 51.32 19.54 50.64C20.34 49.96 21.12 49.62 21.88 49.62C22.48 49.62 23.06 49.8 23.62 50.16C24.22 50.52 24.76 50.94 25.24 51.42C26.04 52.14 26.82 52.66 27.58 52.98C28.38 53.26 29.28 53.4 30.28 53.4C31.48 53.4 32.6 53.1 33.64 52.5C34.68 51.9 35.52 51.1 36.16 50.1C36.8 49.1 37.12 48.02 37.12 46.86L37.12 21.66C37.12 20.62 37.5 19.76 38.26 19.08C39.02 18.36 39.9 18 40.9 18C42.02 18 42.92 18.36 43.6 19.08C44.28 19.76 44.62 20.62 44.62 21.66L44.62 46.86C44.62 49.3 43.98 51.56 42.7 53.64C41.42 55.72 39.7 57.4 37.54 58.68C35.38 59.96 32.96 60.6 30.28 60.6Z" fill="#D3003C"/>
<path d="M53 81.0273C53 76.0417 49.407 72 44.9749 72C42.3193 72 39.9653 73.4512 38.5047 75.6868C38.0047 76.4522 36.9739 76.4522 36.4738 75.6868C35.0133 73.4512 32.6592 72 30.0036 72C25.3513 71.986 22.0013 76.4525 22.0013 81.7092L22 81.7092C22 91.9985 31.8904 99.7683 35.8675 102.477C36.3651 102.816 36.935 102.997 37.5166 103C38.0982 103.003 38.6697 102.829 39.1705 102.496C43.1814 99.8332 53 92.114 53 81.0273Z" fill="#FF5F66"/>
<path d="M44.9749 72C42.3194 72 39.9653 73.4511 38.5047 75.6868C38.257 76.0659 37.8791 76.2567 37.4999 76.2602L37.4999 102.999C38.087 103.006 38.6646 102.832 39.1703 102.496C43.1815 99.8333 53 92.1141 53 81.0274C53 76.0416 49.407 72 44.9749 72Z" fill="#FA184B"/>
<path d="M192.74 70.8621V51.506L182.362 53.6099H146.387V70.8621H192.74Z" fill="#E2CF00"/>
<path d="M100.034 70.8621V51.506L110.526 53.6099H146.896V70.8621H100.034Z" fill="#FCE80C"/>
<path d="M156.065 36.5954L151.481 41.3186H146.896V24L156.065 36.5954Z" fill="#FA184B"/>
<path d="M137.728 36.5954L142.312 41.3186H146.896V24L137.728 36.5954Z" fill="#FA184B"/>
<path d="M156.065 36.5954L151.481 41.3186H146.896V24L156.065 36.5954Z" fill="#D3003C"/>
<path d="M175.382 53.6907L145.921 45.6351V60.5956L175.382 53.6907Z" fill="#131F67"/>
<path d="M116.46 53.6907L145.921 45.6351V60.5956L116.46 53.6907Z" fill="#22349B"/>
<path d="M122.194 95.8771C122.194 95.8771 135.489 91.5862 137.83 91.5862C140.171 91.5862 142.094 93.5213 142.094 95.8771C142.094 98.275 140.213 100.168 137.83 100.168C135.447 100.168 122.194 95.8771 122.194 95.8771Z" fill="#131F67"/>
<path d="M173.536 95.8771C173.536 95.8771 160.242 91.5862 157.901 91.5862C155.56 91.5862 153.636 93.5213 153.636 95.8771C153.636 98.275 155.518 100.168 157.901 100.168C160.284 100.168 173.536 95.8771 173.536 95.8771Z" fill="#131F67"/>
<path d="M180.365 102.052V128.046C180.187 131.714 177.775 139.6 169.557 141.802C159.285 144.554 152.317 146 145.618 146" stroke="#1E2123" stroke-width="5.75401"/>
<path d="M114.412 102.052V128.046C114.591 131.714 117.003 139.6 125.221 141.802C135.493 144.554 142.46 146 149.16 146" stroke="#1E2123" stroke-width="5.75401"/>
<path d="M147.92 124.23V116.144C145.573 114.38 143.715 113.253 139.363 119.819C135.881 125.072 133.446 126.647 132.664 126.778C134.358 129.718 140.536 128.64 142.688 126.582C144.409 124.935 146.893 124.328 147.92 124.23Z" fill="#1E2123"/>
<path d="M147.92 124.254V116.168C150.267 114.404 152.125 113.277 156.477 119.843C159.958 125.097 162.393 126.671 163.175 126.802C161.481 129.742 155.303 128.664 153.152 126.606C151.43 124.959 148.946 124.352 147.92 124.254Z" fill="#1E2123"/>
<path d="M126.66 76.9369C126.66 76.9369 123.711 104.26 116.552 119.151C115.677 120.447 114.742 121.633 113.725 122.665C109.067 127.365 104.918 128.903 99.4879 128.507C92.6135 128.002 87 122.467 87 115C87 107.532 92.5931 101.492 99.4879 101.492C104.206 101.492 108.295 104.303 110.43 108.455C109.983 105.797 107.44 94.925 96.132 94.925L103.657 76.9369H126.66Z" fill="#FA184B"/>
<path d="M166.678 76.9369C166.678 76.9369 169.627 104.26 176.786 119.151C177.661 120.447 178.596 121.633 179.613 122.665C184.271 127.365 188.42 128.903 193.85 128.507C200.725 128.002 206.338 122.467 206.338 115C206.338 107.532 200.745 101.492 193.85 101.492C189.132 101.492 185.044 104.303 182.908 108.455C183.356 105.797 185.898 94.925 197.206 94.925L189.681 76.9369H166.678Z" fill="#FA184B"/>
</g>
<rect x="0.642157" y="0.642157" width="216.716" height="156.716" rx="11.3578" stroke="#E0E4F0" stroke-width="1.28431"/>
<defs>
<linearGradient id="paint0_linear_864_4775" x1="237.755" y1="2.96465" x2="159.805" y2="222.052" gradientUnits="userSpaceOnUse">
<stop stop-color="#F1F6F7"/>
<stop offset="1" stop-color="#E3E8E9"/>
</linearGradient>
<clipPath id="clip0_864_4775">
<rect width="218" height="158" rx="12" fill="white"/>
</clipPath>
</defs>
</svg>
