<svg width="89" height="64" viewBox="0 0 89 64" fill="none" xmlns="http://www.w3.org/2000/svg">
<g clip-path="url(#clip0_436_4046)">
<rect width="88.3038" height="64" rx="4.86076" fill="url(#paint0_linear_436_4046)"/>
<path d="M20.0182 24C19.5646 24 19.2 23.8137 18.9246 23.441L13.3104 16.0527L15.522 13.7924L21.3306 21.4724C21.5575 21.7803 21.6709 22.1124 21.6709 22.4689C21.6709 22.9225 21.5008 23.2952 21.1605 23.5868C20.8202 23.8623 20.4395 24 20.0182 24ZM20.3099 6.86583C20.6987 6.86583 21.0147 7.02785 21.2577 7.3519C21.517 7.65975 21.6466 7.9757 21.6466 8.29975C21.6466 8.64001 21.5008 8.95596 21.2091 9.2476L11.0258 18.9934L10.9043 15.518L19.119 7.42482C19.4916 7.05216 19.8886 6.86583 20.3099 6.86583ZM9.81063 24C9.35696 24 8.9924 23.8623 8.71696 23.5868C8.44152 23.2952 8.30379 22.9387 8.30379 22.5175L8.3038 8.46987C8.3038 8.04861 8.44962 7.70025 8.74127 7.42481C9.03291 7.13317 9.40557 6.98734 9.85924 6.98734C10.3129 6.98734 10.6694 7.13317 10.9286 7.42481C11.2041 7.70026 11.3418 8.04861 11.3418 8.46988L11.3418 22.5175C11.3418 22.9387 11.204 23.2952 10.9286 23.5868C10.6532 23.8623 10.2805 24 9.81063 24Z" fill="#303940"/>
<path d="M17.0453 33.2869L17.0429 33.2869C16.936 33.287 16.8631 33.1771 16.905 33.0763C17.0653 32.6911 17.1441 32.2617 17.1189 31.8107C17.0387 30.3753 15.8875 29.2203 14.4858 29.167C12.9238 29.1076 11.6394 30.388 11.6394 31.9758C11.6391 32.3547 11.7141 32.7296 11.8596 33.0778C11.9015 33.1779 11.8273 33.2872 11.721 33.2869L11.714 33.2869C10.1293 33.2869 8.85178 34.6351 8.91352 36.2736C8.96923 37.7523 10.1374 38.9603 11.5794 39.0294C12.2854 39.0633 12.9369 38.8289 13.4461 38.4175L13.4461 39.8046L12.966 39.8046C12.4494 39.8046 12.0307 40.2338 12.0307 40.7633C12.0307 41.2927 12.4494 41.7219 12.966 41.7219L15.7966 41.7219C16.3132 41.7219 16.7319 41.2927 16.7319 40.7633C16.7319 40.2338 16.3132 39.8046 15.7966 39.8046L15.3165 39.8046L15.3165 38.4202C15.8253 38.8298 16.4755 39.0633 17.18 39.0294C18.622 38.9603 19.7902 37.7523 19.8459 36.2736C19.9076 34.6351 18.6301 33.2869 17.0453 33.2869Z" fill="#303940"/>
<path d="M17.0453 33.2863L17.0429 33.2863C16.936 33.2864 16.8631 33.1766 16.9049 33.0758C17.0652 32.6905 17.1441 32.2611 17.1189 31.8101C17.0387 30.3747 15.8875 29.2198 14.4858 29.1665C14.4469 29.1652 14.4079 29.1648 14.369 29.1652L14.369 41.7214L15.7967 41.7214C16.3132 41.7214 16.7319 41.2921 16.7319 40.7627C16.7319 40.2332 16.3132 39.804 15.7967 39.804L15.3165 39.804L15.3165 38.4196C15.8253 38.8292 16.4755 39.0627 17.18 39.0289C18.622 38.9597 19.7902 37.7517 19.8459 36.273C19.9076 34.6345 18.6301 33.2863 17.0453 33.2863Z" fill="#1E2123"/>
<path d="M82.2651 40.4402C82.2651 40.4402 80.9909 43.8773 77.2431 44.3945L83.443 53.887C79.323 59.3218 72.9101 59.4989 70.2187 58.908C60.6673 56.516 58.2901 44.9979 58.2901 44.9979L59.9284 40.9035L67.3062 48.4781L69.512 42.6598C71.2599 43.1561 75.6344 43.4479 79.1491 40.6449C79.1491 40.6449 75.4656 36.7337 75.3692 30.8076H77.9498C77.9498 30.8076 77.725 35.8933 82.2651 40.4402Z" fill="#1E2123"/>
<path d="M64.9521 30.8076L60.2299 40.9035C60.2299 40.9035 56.9854 48.7583 55.7326 51.6998C54.4798 54.6412 52.2954 55.9127 49.4685 55.9127C45.8599 55.9127 42.9367 52.9712 42.9367 49.3401C42.9367 45.709 45.8599 42.7675 49.4685 42.7675C51.9313 42.7675 54.0729 44.1359 55.1865 46.1616C54.9509 44.8578 53.6232 39.5674 47.7124 39.5674L51.6422 30.8076H64.9521Z" fill="#303940"/>
<path d="M51.5458 28.4589H79.6006L83.252 12.8356L72.8974 19.0957L63.8814 9.72168L56.857 19.6344L46.1169 17.1454L51.5458 28.4589Z" fill="#FCE80C"/>
<path d="M72.8974 19.0957L63.8814 9.72168V28.4589H79.6006L83.252 12.8356L72.8974 19.0957Z" fill="#E2CF00"/>
<path d="M69.1924 34.9457C69.1924 34.9457 72.5975 33.8467 73.1971 33.8467C73.7968 33.8467 74.2893 34.3423 74.2893 34.9457C74.2893 35.5599 73.8075 36.0447 73.1971 36.0447C72.5868 36.0447 69.1924 34.9457 69.1924 34.9457Z" fill="#131F67"/>
</g>
<rect x="0.260114" y="0.260114" width="87.7836" height="63.4798" rx="4.60064" stroke="#E0E4F0" stroke-width="0.520228"/>
<defs>
<linearGradient id="paint0_linear_436_4046" x1="96.3057" y1="1.20087" x2="64.7312" y2="89.9452" gradientUnits="userSpaceOnUse">
<stop stop-color="#F1F6F7"/>
<stop offset="1" stop-color="#E3E8E9"/>
</linearGradient>
<clipPath id="clip0_436_4046">
<rect width="88.3038" height="64" rx="4.86076" fill="white"/>
</clipPath>
</defs>
</svg>
