<svg width="90" height="64" viewBox="0 0 90 64" fill="none" xmlns="http://www.w3.org/2000/svg">
<g clip-path="url(#clip0_436_4103)">
<rect x="0.734131" width="88.3038" height="64" rx="4.86076" fill="url(#paint0_linear_436_4103)"/>
<path d="M20.7524 24C20.2987 24 19.9342 23.8137 19.6587 23.441L14.0445 16.0527L16.2562 13.7924L22.0648 21.4724C22.2916 21.7803 22.405 22.1124 22.405 22.4689C22.405 22.9225 22.2349 23.2952 21.8947 23.5868C21.5544 23.8623 21.1737 24 20.7524 24ZM21.044 6.86583C21.4329 6.86583 21.7488 7.02785 21.9919 7.3519C22.2511 7.65975 22.3807 7.9757 22.3807 8.29975C22.3807 8.64001 22.2349 8.95596 21.9433 9.2476L11.76 18.9934L11.6385 15.518L19.8532 7.42482C20.2258 7.05216 20.6228 6.86583 21.044 6.86583ZM10.5448 24C10.0911 24 9.72656 23.8623 9.45112 23.5868C9.17568 23.2952 9.03796 22.9387 9.03796 22.5175L9.03796 8.46987C9.03796 8.04861 9.18378 7.70025 9.47543 7.42481C9.76708 7.13317 10.1397 6.98734 10.5934 6.98734C11.0471 6.98734 11.4035 7.13317 11.6628 7.42481C11.9382 7.70026 12.0759 8.04861 12.0759 8.46988L12.0759 22.5175C12.0759 22.9387 11.9382 23.2952 11.6628 23.5868C11.3873 23.8623 11.0147 24 10.5448 24Z" fill="#D3003C"/>
<path d="M20.4265 34.9958L15.6534 29.4092C15.3753 29.0837 14.8532 29.0837 14.5751 29.4091L9.80127 34.9957C9.70091 35.1132 9.64593 35.2598 9.64551 35.4112C9.64509 35.5625 9.69925 35.7095 9.79894 35.8274L14.5728 41.4752C14.851 41.8043 15.3776 41.8043 15.6558 41.4751L20.4288 35.8273C20.5285 35.7094 20.5826 35.5625 20.5822 35.4112C20.5818 35.2598 20.5268 35.1132 20.4265 34.9958Z" fill="#FA184B"/>
<path d="M15.6534 29.4089C15.5129 29.2444 15.3101 29.1634 15.108 29.1651L15.108 41.7215C15.3113 41.7232 15.5152 41.6412 15.6557 41.4749L20.4288 35.8271C20.5284 35.7092 20.5826 35.5622 20.5822 35.4109C20.5817 35.2595 20.5268 35.1129 20.4265 34.9955L15.6534 29.4089Z" fill="#D3003C"/>
<path d="M82.9993 40.4402C82.9993 40.4402 81.7251 43.8773 77.9773 44.3945L84.1772 53.887C80.0572 59.3218 73.6443 59.4989 70.9529 58.908C61.4014 56.516 59.0243 44.9979 59.0243 44.9979L60.6626 40.9035L68.0404 48.4781L70.2462 42.6598C71.9941 43.1561 76.3686 43.4479 79.8833 40.6449C79.8833 40.6449 76.1998 36.7337 76.1034 30.8076H78.684C78.684 30.8076 78.4591 35.8933 82.9993 40.4402Z" fill="#1E2123"/>
<path d="M65.6863 30.8076L60.9641 40.9035C60.9641 40.9035 57.7196 48.7583 56.4668 51.6998C55.214 54.6412 53.0296 55.9127 50.2027 55.9127C46.5941 55.9127 43.6709 52.9712 43.6709 49.3401C43.6709 45.709 46.5941 42.7675 50.2027 42.7675C52.6655 42.7675 54.8071 44.1359 55.9207 46.1616C55.6851 44.8578 54.3574 39.5674 48.4466 39.5674L52.3764 30.8076H65.6863Z" fill="#D3003C"/>
<path d="M52.28 28.4589H80.3347L83.9861 12.8356L73.6316 19.0957L64.6155 9.72168L57.5911 19.6344L46.8511 17.1454L52.28 28.4589Z" fill="#FCE80C"/>
<path d="M73.6316 19.0957L64.6155 9.72168V28.4589H80.3347L83.9861 12.8356L73.6316 19.0957Z" fill="#E2CF00"/>
<path d="M69.9266 34.9457C69.9266 34.9457 73.3318 33.8467 73.9314 33.8467C74.531 33.8467 75.0236 34.3423 75.0236 34.9457C75.0236 35.5599 74.5417 36.0447 73.9314 36.0447C73.321 36.0447 69.9266 34.9457 69.9266 34.9457Z" fill="#131F67"/>
</g>
<rect x="0.994245" y="0.260114" width="87.7836" height="63.4798" rx="4.60064" stroke="#E0E4F0" stroke-width="0.520228"/>
<defs>
<linearGradient id="paint0_linear_436_4103" x1="97.0398" y1="1.20087" x2="65.4654" y2="89.9452" gradientUnits="userSpaceOnUse">
<stop stop-color="#F1F6F7"/>
<stop offset="1" stop-color="#E3E8E9"/>
</linearGradient>
<clipPath id="clip0_436_4103">
<rect x="0.734131" width="88.3038" height="64" rx="4.86076" fill="white"/>
</clipPath>
</defs>
</svg>
