<svg width="89" height="64" viewBox="0 0 89 64" fill="none" xmlns="http://www.w3.org/2000/svg">
<g clip-path="url(#clip0_436_4093)">
<rect x="0.303833" width="88.3038" height="64" rx="4.86076" fill="url(#paint0_linear_436_4093)"/>
<path d="M20.3221 24C19.8684 24 19.5039 23.8137 19.2284 23.441L13.6142 16.0527L15.8259 13.7924L21.6345 21.4724C21.8613 21.7803 21.9747 22.1124 21.9747 22.4689C21.9747 22.9225 21.8046 23.2952 21.4644 23.5868C21.1241 23.8623 20.7434 24 20.3221 24ZM20.6137 6.86583C21.0026 6.86583 21.3185 7.02785 21.5616 7.3519C21.8208 7.65975 21.9504 7.9757 21.9504 8.29975C21.9504 8.64001 21.8046 8.95596 21.513 9.2476L11.3297 18.9934L11.2082 15.518L19.4229 7.42482C19.7955 7.05216 20.1925 6.86583 20.6137 6.86583ZM10.1145 24C9.66082 24 9.29627 23.8623 9.02082 23.5868C8.74538 23.2952 8.60766 22.9387 8.60766 22.5175L8.60766 8.46987C8.60766 8.04861 8.75349 7.70025 9.04513 7.42481C9.33678 7.13317 9.70944 6.98734 10.1631 6.98734C10.6168 6.98734 10.9732 7.13317 11.2325 7.42481C11.5079 7.70026 11.6456 8.04861 11.6456 8.46988L11.6456 22.5175C11.6456 22.9387 11.5079 23.2952 11.2325 23.5868C10.957 23.8623 10.5844 24 10.1145 24Z" fill="#D3003C"/>
<path d="M21.7722 32.8217C21.7722 30.8022 20.3168 29.1651 18.5215 29.1651C17.4458 29.1651 16.4923 29.7529 15.9007 30.6584C15.6981 30.9685 15.2806 30.9685 15.078 30.6584C14.4864 29.7529 13.5329 29.1651 12.4572 29.1651C10.5727 29.1594 9.21572 30.9686 9.21572 33.0979L9.21521 33.0979C9.21521 37.2657 13.2214 40.413 14.8324 41.51C15.034 41.6473 15.2648 41.7206 15.5004 41.722C15.736 41.7234 15.9675 41.6529 16.1703 41.518C17.795 40.4392 21.7722 37.3125 21.7722 32.8217Z" fill="#FF5F66"/>
<path d="M18.5215 29.165C17.4459 29.165 16.4923 29.7528 15.9007 30.6584C15.8004 30.812 15.6473 30.8893 15.4937 30.8907L15.4937 41.7217C15.7315 41.7245 15.9655 41.6541 16.1703 41.518C17.7951 40.4393 21.7722 37.3125 21.7722 32.8217C21.7722 30.8021 20.3168 29.165 18.5215 29.165Z" fill="#FA184B"/>
<path d="M82.569 40.4402C82.569 40.4402 81.2948 43.8773 77.547 44.3945L83.7469 53.887C79.6269 59.3218 73.214 59.4989 70.5226 58.908C60.9711 56.516 58.594 44.9979 58.594 44.9979L60.2323 40.9035L67.6101 48.4781L69.8159 42.6598C71.5638 43.1561 75.9383 43.4479 79.453 40.6449C79.453 40.6449 75.7695 36.7337 75.6731 30.8076H78.2537C78.2537 30.8076 78.0289 35.8933 82.569 40.4402Z" fill="#1E2123"/>
<path d="M65.256 30.8076L60.5338 40.9035C60.5338 40.9035 57.2893 48.7583 56.0365 51.6998C54.7837 54.6412 52.5993 55.9127 49.7724 55.9127C46.1638 55.9127 43.2406 52.9712 43.2406 49.3401C43.2406 45.709 46.1638 42.7675 49.7724 42.7675C52.2352 42.7675 54.3768 44.1359 55.4904 46.1616C55.2548 44.8578 53.9271 39.5674 48.0163 39.5674L51.9461 30.8076H65.256Z" fill="#FA184B"/>
<path d="M51.8497 28.4589H79.9044L83.5558 12.8356L73.2013 19.0957L64.1852 9.72168L57.1608 19.6344L46.4208 17.1454L51.8497 28.4589Z" fill="#FCE80C"/>
<path d="M73.2013 19.0957L64.1852 9.72168V28.4589H79.9045L83.5558 12.8356L73.2013 19.0957Z" fill="#E2CF00"/>
<path d="M69.4963 34.9457C69.4963 34.9457 72.9015 33.8467 73.5011 33.8467C74.1007 33.8467 74.5933 34.3423 74.5933 34.9457C74.5933 35.5599 74.1114 36.0447 73.5011 36.0447C72.8907 36.0447 69.4963 34.9457 69.4963 34.9457Z" fill="#131F67"/>
</g>
<rect x="0.563947" y="0.260114" width="87.7836" height="63.4798" rx="4.60064" stroke="#E0E4F0" stroke-width="0.520228"/>
<defs>
<linearGradient id="paint0_linear_436_4093" x1="96.6095" y1="1.20087" x2="65.0351" y2="89.9452" gradientUnits="userSpaceOnUse">
<stop stop-color="#F1F6F7"/>
<stop offset="1" stop-color="#E3E8E9"/>
</linearGradient>
<clipPath id="clip0_436_4093">
<rect x="0.303833" width="88.3038" height="64" rx="4.86076" fill="white"/>
</clipPath>
</defs>
</svg>
