<svg width="89" height="64" viewBox="0 0 89 64" fill="none" xmlns="http://www.w3.org/2000/svg">
<g clip-path="url(#clip0_436_4016)">
<rect width="88.3038" height="64" rx="4.86076" fill="url(#paint0_linear_436_4016)"/>
<path d="M20.0183 24C19.5646 24 19.2 23.8137 18.9246 23.441L13.3104 16.0527L15.5221 13.7924L21.3307 21.4724C21.5575 21.7803 21.6709 22.1124 21.6709 22.4689C21.6709 22.9225 21.5008 23.2952 21.1605 23.5868C20.8203 23.8623 20.4395 24 20.0183 24ZM20.3099 6.86583C20.6988 6.86583 21.0147 7.02785 21.2578 7.3519C21.517 7.65975 21.6466 7.9757 21.6466 8.29975C21.6466 8.64001 21.5008 8.95596 21.2091 9.2476L11.0259 18.9934L10.9043 15.518L19.119 7.42482C19.4917 7.05216 19.8886 6.86583 20.3099 6.86583ZM9.81066 24C9.35699 24 8.99243 23.8623 8.71699 23.5868C8.44155 23.2952 8.30383 22.9387 8.30383 22.5175L8.30383 8.46987C8.30383 8.04861 8.44965 7.70025 8.7413 7.42481C9.03294 7.13317 9.4056 6.98734 9.85927 6.98734C10.3129 6.98734 10.6694 7.13317 10.9286 7.42481C11.2041 7.70026 11.3418 8.04861 11.3418 8.46988L11.3418 22.5175C11.3418 22.9387 11.2041 23.2952 10.9286 23.5868C10.6532 23.8623 10.2805 24 9.81066 24Z" fill="#303940"/>
<path d="M18.6212 32.8505C17.3058 31.7802 16.0743 30.4728 15.2815 29.5756C14.7982 29.0286 13.9676 29.0282 13.4837 29.5746C12.69 30.471 11.4572 31.7771 10.1408 32.846C9.3657 33.4754 8.91188 34.422 8.91138 35.4252C8.91048 37.2059 10.3416 38.6501 12.1078 38.6511C12.1412 38.6511 12.1743 38.6504 12.2073 38.649C12.6437 38.6303 13.0593 38.4746 13.4121 38.2177L13.4121 39.7164L13.2422 39.7164C12.7077 39.7164 12.2744 40.1654 12.2744 40.7192C12.2744 41.2731 12.7078 41.722 13.2422 41.722L15.5175 41.722C16.0521 41.722 16.4854 41.273 16.4854 40.7192C16.4854 40.1654 16.052 39.7164 15.5175 39.7164L15.3478 39.7164L15.3478 38.2209C15.6996 38.4769 16.1142 38.6322 16.5494 38.6513C16.5822 38.6528 16.6153 38.6535 16.6485 38.6535C18.4147 38.6544 19.8472 37.2117 19.8481 35.4311C19.8485 34.4278 19.3956 33.4807 18.6212 32.8505Z" fill="#555F65"/>
<path d="M18.6212 32.851C17.3058 31.7806 16.0743 30.4733 15.2815 29.576C15.037 29.2994 14.7038 29.1631 14.3714 29.1661L14.3714 41.7225L15.5175 41.7225C16.0521 41.7225 16.4854 41.2735 16.4854 40.7197C16.4854 40.1658 16.052 39.7169 15.5175 39.7169L15.3478 39.7169L15.3478 38.2214C15.6996 38.4774 16.1142 38.6327 16.5493 38.6518C16.5822 38.6532 16.6152 38.654 16.6484 38.654C18.4147 38.6549 19.8472 37.2122 19.8481 35.4315C19.8484 34.4283 19.3956 33.4812 18.6212 32.851Z" fill="#303940"/>
<path d="M82.2652 40.4402C82.2652 40.4402 80.991 43.8773 77.2432 44.3945L83.4431 53.887C79.3231 59.3218 72.9102 59.4989 70.2188 58.908C60.6674 56.516 58.2902 44.9979 58.2902 44.9979L59.9285 40.9035L67.3063 48.4781L69.5121 42.6598C71.26 43.1561 75.6345 43.4479 79.1492 40.6449C79.1492 40.6449 75.4657 36.7337 75.3693 30.8076H77.9499C77.9499 30.8076 77.7251 35.8933 82.2652 40.4402Z" fill="#1E2123"/>
<path d="M64.9522 30.8076L60.23 40.9035C60.23 40.9035 56.9855 48.7583 55.7327 51.6998C54.4799 54.6412 52.2955 55.9127 49.4686 55.9127C45.86 55.9127 42.9368 52.9712 42.9368 49.3401C42.9368 45.709 45.86 42.7675 49.4686 42.7675C51.9314 42.7675 54.073 44.1359 55.1866 46.1616C54.951 44.8578 53.6233 39.5674 47.7125 39.5674L51.6423 30.8076H64.9522Z" fill="#555F65"/>
<path d="M51.5459 28.4589H79.6006L83.252 12.8356L72.8975 19.0957L63.8814 9.72168L56.857 19.6344L46.117 17.1454L51.5459 28.4589Z" fill="#FCE80C"/>
<path d="M72.8975 19.0957L63.8815 9.72168V28.4589H79.6007L83.2521 12.8356L72.8975 19.0957Z" fill="#E2CF00"/>
<path d="M69.1926 34.9457C69.1926 34.9457 72.5977 33.8467 73.1974 33.8467C73.797 33.8467 74.2896 34.3423 74.2896 34.9457C74.2896 35.5599 73.8077 36.0447 73.1974 36.0447C72.587 36.0447 69.1926 34.9457 69.1926 34.9457Z" fill="#131F67"/>
</g>
<rect x="0.260114" y="0.260114" width="87.7836" height="63.4798" rx="4.60064" stroke="#E0E4F0" stroke-width="0.520228"/>
<defs>
<linearGradient id="paint0_linear_436_4016" x1="96.3057" y1="1.20087" x2="64.7312" y2="89.9452" gradientUnits="userSpaceOnUse">
<stop stop-color="#F1F6F7"/>
<stop offset="1" stop-color="#E3E8E9"/>
</linearGradient>
<clipPath id="clip0_436_4016">
<rect width="88.3038" height="64" rx="4.86076" fill="white"/>
</clipPath>
</defs>
</svg>
