<svg width="89" height="64" viewBox="0 0 89 64" fill="none" xmlns="http://www.w3.org/2000/svg">
<g clip-path="url(#clip0_436_4074)">
<rect width="88.3038" height="64" rx="4.86076" fill="url(#paint0_linear_436_4074)"/>
<path d="M24.0526 22.2498C24.3929 22.2498 24.7088 22.3876 25.0005 22.663C25.2921 22.9547 25.4379 23.2868 25.4379 23.6595C25.4379 24.0321 25.2678 24.3805 24.9276 24.7045C24.6035 25.0448 24.1822 25.3445 23.6638 25.6038C23.1453 25.863 22.6025 26.0655 22.0354 26.2114C21.4845 26.3572 20.9822 26.4301 20.5286 26.4301C19.524 26.4301 18.722 26.3329 18.1225 26.1385C17.523 25.9602 17.0288 25.7496 16.64 25.5066C16.2511 25.2797 15.8866 25.0691 15.5463 24.8747C15.206 24.6964 14.7929 24.6073 14.3068 24.6073C13.999 24.6073 13.7478 24.6559 13.5534 24.7531C13.3752 24.8666 13.1726 24.9719 12.9458 25.0691C12.7352 25.1825 12.4354 25.2392 12.0466 25.2392C11.6415 25.2392 11.3012 25.0853 11.0258 24.7774C10.7504 24.4696 10.6126 24.1374 10.6126 23.781C10.6126 23.1491 10.8962 22.7278 11.4633 22.5172L16.4942 20.6458L18.6815 21.1805L13.9666 22.9304L15.3519 22.1283C15.919 22.1283 16.4131 22.2093 16.8344 22.3714C17.2719 22.5496 17.685 22.744 18.0739 22.9547C18.4628 23.1653 18.8597 23.3516 19.2648 23.5136C19.686 23.6919 20.164 23.781 20.6987 23.781C21.1362 23.781 21.5007 23.7081 21.7924 23.5623C22.1002 23.4164 22.3676 23.2544 22.5944 23.0762C22.8698 22.8655 23.1129 22.6711 23.3235 22.4929C23.5504 22.3309 23.7934 22.2498 24.0526 22.2498ZM23.9554 13.063C23.9554 14.2782 23.7529 15.4124 23.3478 16.4655C22.9428 17.5187 22.3676 18.4504 21.6223 19.2605C20.8931 20.0544 20.0182 20.6782 18.9974 21.1319C17.9929 21.5855 16.8911 21.8124 15.6921 21.8124C14.4931 21.8124 13.3914 21.5855 12.3868 21.1319C11.3823 20.6782 10.5073 20.0544 9.762 19.2605C9.03289 18.4503 8.4658 17.5187 8.06074 16.4655C7.65567 15.4124 7.45314 14.2782 7.45314 13.063C7.45314 11.8478 7.65567 10.7136 8.06074 9.66048C8.4658 8.60731 9.03289 7.68377 9.762 6.88984C10.5073 6.07972 11.3823 5.44782 12.3868 4.99415C13.3914 4.54048 14.4931 4.31364 15.6921 4.31364C16.8911 4.31364 17.9929 4.54048 18.9974 4.99415C20.0182 5.44782 20.8931 6.07972 21.6223 6.88985C22.3676 7.68377 22.9428 8.60732 23.3478 9.66048C23.7529 10.7136 23.9554 11.8478 23.9554 13.063ZM20.7959 13.063C20.7959 11.9774 20.5772 10.9972 20.1397 10.1223C19.7023 9.23111 19.1028 8.5263 18.3412 8.00782C17.5797 7.48934 16.6967 7.2301 15.6921 7.2301C14.6876 7.2301 13.8045 7.48934 13.043 8.00782C12.2815 8.5263 11.682 9.22301 11.2445 10.0979C10.8233 10.9729 10.6126 11.9612 10.6126 13.063C10.6126 14.1486 10.8233 15.1369 11.2445 16.0281C11.682 16.903 12.2815 17.5997 13.043 18.1182C13.8045 18.6367 14.6876 18.8959 15.6921 18.8959C16.6967 18.8959 17.5797 18.6367 18.3412 18.1182C19.1028 17.5997 19.7023 16.903 20.1397 16.0281C20.5772 15.1369 20.7959 14.1486 20.7959 13.063Z" fill="#303940"/>
<path d="M17.0453 33.2869L17.0429 33.2869C16.936 33.287 16.8631 33.1771 16.905 33.0763C17.0653 32.6911 17.1441 32.2617 17.1189 31.8107C17.0387 30.3753 15.8875 29.2203 14.4858 29.167C12.9238 29.1076 11.6394 30.388 11.6394 31.9758C11.6391 32.3547 11.7141 32.7296 11.8596 33.0778C11.9015 33.1779 11.8273 33.2872 11.721 33.2869L11.714 33.2869C10.1293 33.2869 8.85178 34.6351 8.91352 36.2736C8.96923 37.7523 10.1374 38.9603 11.5794 39.0294C12.2854 39.0633 12.9369 38.8289 13.4461 38.4175L13.4461 39.8046L12.966 39.8046C12.4494 39.8046 12.0307 40.2338 12.0307 40.7633C12.0307 41.2927 12.4494 41.7219 12.966 41.7219L15.7966 41.7219C16.3132 41.7219 16.7319 41.2927 16.7319 40.7633C16.7319 40.2338 16.3132 39.8046 15.7966 39.8046L15.3165 39.8046L15.3165 38.4202C15.8253 38.8298 16.4755 39.0633 17.18 39.0294C18.622 38.9603 19.7902 37.7523 19.8459 36.2736C19.9076 34.6351 18.6301 33.2869 17.0453 33.2869Z" fill="#303940"/>
<path d="M17.0453 33.2863L17.0429 33.2863C16.936 33.2864 16.8631 33.1766 16.9049 33.0758C17.0652 32.6905 17.1441 32.2611 17.1189 31.8101C17.0387 30.3747 15.8875 29.2198 14.4858 29.1665C14.4469 29.1652 14.4079 29.1648 14.369 29.1652L14.369 41.7214L15.7967 41.7214C16.3132 41.7214 16.7319 41.2921 16.7319 40.7627C16.7319 40.2332 16.3132 39.804 15.7967 39.804L15.3165 39.804L15.3165 38.4196C15.8253 38.8292 16.4755 39.0627 17.18 39.0289C18.622 38.9597 19.7902 37.7517 19.8459 36.273C19.9076 34.6345 18.6301 33.2863 17.0453 33.2863Z" fill="#1E2123"/>
<path d="M68.3257 34.7191C68.3257 34.7191 71.7166 33.6201 72.3138 33.6201C72.9109 33.6201 73.4014 34.1158 73.4014 34.7191C73.4014 35.3333 72.9216 35.8182 72.3138 35.8182C71.706 35.8182 68.3257 34.7191 68.3257 34.7191Z" fill="#131F67"/>
<path d="M76.9624 30.3467C77.8344 33.0893 79.3996 35.5664 80.7534 37.3623C81.4429 38.2769 82.0796 39.018 82.5434 39.5303C82.7752 39.7863 82.9639 39.9857 83.0952 40.1211C83.1271 40.154 83.1562 40.1827 83.1811 40.208C83.1713 40.2222 83.1611 40.2378 83.1499 40.2539C83.0683 40.3707 82.9485 40.5386 82.7973 40.7412C82.4947 41.1468 82.0663 41.6909 81.562 42.2461C81.057 42.802 80.4791 43.3652 79.8794 43.8115C79.277 44.2598 78.6674 44.5788 78.0971 44.667L77.9184 44.6943L77.9253 44.874C78.014 47.3039 78.2016 52.3961 78.2016 53.0312C78.2016 54.1935 77.8122 55.1371 77.0278 55.8584H77.0268C76.0073 56.7961 74.3636 57.2871 72.0044 57.2871C70.6032 57.2871 68.966 57.1095 67.0688 56.7627V56.7617L67.059 56.7607L66.518 56.6816C61.0679 55.794 56.635 52.5021 54.976 50.8438L55.8881 48.3965C56.2184 48.8523 56.9025 49.6702 58.0727 50.5645L58.0756 50.5664C59.4779 51.5994 63.2968 53.7991 67.4165 54.375V54.376C73.1978 55.4338 75.0556 54.5065 75.6284 53.9902C75.8075 53.828 75.9112 53.6602 75.9672 53.4844C76.0217 53.3135 76.0268 53.1456 76.0268 52.9971C76.0268 52.7127 75.9802 51.2507 75.9165 49.4336L75.7055 43.7363L75.6674 42.6289L76.6704 42.4961C78.1554 42.2976 79.4289 41.5603 80.52 40.2578L80.643 40.1113L80.5034 39.9805C78.8501 38.4353 75.7748 35.0456 74.6098 30.3467H76.9624ZM73.8618 48.5674L70.0874 47.2363L73.8618 45.9053V48.5674Z" fill="#282828" stroke="black" stroke-width="0.405063"/>
<path d="M58.8875 30.1553C59.0093 33.8499 58.8321 40.79 56.4513 47.9548L55.355 50.897C54.9453 51.8515 54.5024 52.7949 54.0151 53.7382C50.5159 60.566 44.0269 59.8136 40.8156 57.4777C37.2943 54.9061 35.3121 47.9435 40.118 42.9911C40.118 42.9911 41.1035 44.7542 42.9749 44.6082C45.6769 44.3949 47.8583 37.8141 47.8583 30.1553H58.8875Z" fill="#303940"/>
<path d="M44.7207 15.5566C46.6474 13.4453 49.6926 13.4004 51.6859 15.4667C51.8409 15.6352 51.9405 15.8598 52.0734 16.0507C52.8153 13.6587 54.1442 12.1876 56.381 11.8844C58.5846 11.5812 60.2345 12.6031 61.4194 14.6694C62.0063 12.1988 63.3905 10.6715 65.738 10.3908C67.9306 10.1213 69.5584 11.1432 70.71 13.1983C70.8761 12.8614 71.009 12.5694 71.164 12.2999C72.5593 9.76192 75.7152 8.95336 78.0295 10.5256C80.4214 12.1539 81.0304 15.5004 79.4026 17.9598C79.2033 18.2518 79.0594 18.6111 78.9929 18.9705C78.4725 21.6657 77.9742 24.4844 77.4869 27.1796C77.4094 27.5839 77.2544 27.7186 76.8557 27.7186C71.7103 27.7125 66.5648 27.7098 61.4194 27.7102C57.0528 27.7107 52.6862 27.7135 48.3195 27.7186C47.8877 27.7186 47.6441 27.5726 47.4669 27.1683C47.2233 26.6068 46.9243 25.9555 46.6696 25.394C46.2377 24.4732 45.7173 23.6758 44.9643 22.9683C42.8382 20.9919 42.7828 17.679 44.7207 15.5566Z" fill="#E2CF00"/>
<path d="M51.6859 15.4668C49.6926 13.4005 46.6474 13.4455 44.7207 15.5567C42.7828 17.6791 42.8382 20.992 44.9643 22.9685C45.7173 23.6759 46.2377 24.4733 46.6696 25.3941C46.9243 25.9556 47.2233 26.607 47.4669 27.1685C47.6441 27.5727 47.8877 27.7187 48.3195 27.7187C52.6862 27.7136 57.0528 27.7108 61.4194 27.7104V14.6695C60.2345 12.6032 58.5846 11.5813 56.381 11.8845C54.1442 12.1877 52.8153 13.6588 52.0734 16.0508C51.9405 15.8599 51.8409 15.6353 51.6859 15.4668Z" fill="#FCE80C"/>
</g>
<rect x="0.260114" y="0.260114" width="87.7836" height="63.4798" rx="4.60064" stroke="#E0E4F0" stroke-width="0.520228"/>
<defs>
<linearGradient id="paint0_linear_436_4074" x1="96.3057" y1="1.20087" x2="64.7312" y2="89.9452" gradientUnits="userSpaceOnUse">
<stop stop-color="#F1F6F7"/>
<stop offset="1" stop-color="#E3E8E9"/>
</linearGradient>
<clipPath id="clip0_436_4074">
<rect width="88.3038" height="64" rx="4.86076" fill="white"/>
</clipPath>
</defs>
</svg>
