<svg width="90" height="64" viewBox="0 0 90 64" fill="none" xmlns="http://www.w3.org/2000/svg">
<g clip-path="url(#clip0_436_4141)">
<rect x="0.734131" width="88.3038" height="64" rx="4.86076" fill="url(#paint0_linear_436_4141)"/>
<path d="M24.7868 22.2498C25.127 22.2498 25.443 22.3876 25.7346 22.663C26.0263 22.9547 26.1721 23.2868 26.1721 23.6595C26.1721 24.0321 26.002 24.3805 25.6617 24.7045C25.3377 25.0448 24.9164 25.3445 24.3979 25.6038C23.8794 25.863 23.3367 26.0655 22.7696 26.2114C22.2187 26.3572 21.7164 26.4301 21.2627 26.4301C20.2582 26.4301 19.4562 26.3329 18.8567 26.1385C18.2572 25.9602 17.763 25.7496 17.3741 25.5066C16.9853 25.2797 16.6207 25.0691 16.2805 24.8747C15.9402 24.6964 15.527 24.6073 15.041 24.6073C14.7331 24.6073 14.482 24.6559 14.2875 24.7531C14.1093 24.8666 13.9068 24.9719 13.6799 25.0691C13.4693 25.1825 13.1696 25.2392 12.7807 25.2392C12.3756 25.2392 12.0354 25.0853 11.7599 24.7774C11.4845 24.4696 11.3468 24.1374 11.3468 23.781C11.3468 23.1491 11.6303 22.7278 12.1974 22.5172L17.2283 20.6458L19.4156 21.1805L14.7007 22.9304L16.086 22.1283C16.6531 22.1283 17.1473 22.2093 17.5686 22.3714C18.006 22.5496 18.4192 22.744 18.8081 22.9547C19.1969 23.1653 19.5939 23.3516 19.9989 23.5136C20.4202 23.6919 20.8982 23.781 21.4329 23.781C21.8703 23.781 22.2349 23.7081 22.5265 23.5623C22.8344 23.4164 23.1017 23.2544 23.3286 23.0762C23.604 22.8655 23.847 22.6711 24.0577 22.4929C24.2845 22.3309 24.5275 22.2498 24.7868 22.2498ZM24.6896 13.063C24.6896 14.2782 24.487 15.4124 24.082 16.4655C23.6769 17.5187 23.1017 18.4504 22.3564 19.2605C21.6273 20.0544 20.7524 20.6782 19.7316 21.1319C18.727 21.5855 17.6253 21.8124 16.4263 21.8124C15.2273 21.8124 14.1255 21.5855 13.121 21.1319C12.1164 20.6782 11.2415 20.0544 10.4962 19.2605C9.76704 18.4503 9.19995 17.5187 8.79489 16.4655C8.38983 15.4124 8.18729 14.2782 8.1873 13.063C8.1873 11.8478 8.38983 10.7136 8.79489 9.66048C9.19996 8.60731 9.76704 7.68377 10.4962 6.88984C11.2415 6.07972 12.1164 5.44782 13.121 4.99415C14.1255 4.54048 15.2273 4.31364 16.4263 4.31364C17.6253 4.31364 18.727 4.54048 19.7316 4.99415C20.7524 5.44782 21.6273 6.07972 22.3564 6.88985C23.1017 7.68377 23.6769 8.60732 24.082 9.66048C24.487 10.7136 24.6896 11.8478 24.6896 13.063ZM21.5301 13.063C21.5301 11.9774 21.3113 10.9972 20.8739 10.1223C20.4364 9.23111 19.8369 8.5263 19.0754 8.00782C18.3139 7.48934 17.4308 7.2301 16.4263 7.2301C15.4217 7.2301 14.5387 7.48934 13.7772 8.00782C13.0157 8.5263 12.4162 9.22301 11.9787 10.0979C11.5574 10.9729 11.3468 11.9612 11.3468 13.063C11.3468 14.1486 11.5574 15.1369 11.9787 16.0281C12.4162 16.903 13.0156 17.5997 13.7772 18.1182C14.5387 18.6367 15.4217 18.8959 16.4263 18.8959C17.4308 18.8959 18.3139 18.6367 19.0754 18.1182C19.8369 17.5997 20.4364 16.903 20.8739 16.0281C21.3113 15.1369 21.5301 14.1486 21.5301 13.063Z" fill="#D3003C"/>
<path d="M20.4265 34.9958L15.6534 29.4092C15.3753 29.0837 14.8532 29.0837 14.5751 29.4091L9.80127 34.9957C9.70091 35.1132 9.64593 35.2598 9.64551 35.4112C9.64509 35.5625 9.69925 35.7095 9.79894 35.8274L14.5728 41.4752C14.851 41.8043 15.3776 41.8043 15.6558 41.4751L20.4288 35.8273C20.5285 35.7094 20.5826 35.5625 20.5822 35.4112C20.5818 35.2598 20.5268 35.1132 20.4265 34.9958Z" fill="#FA184B"/>
<path d="M15.6534 29.4089C15.5129 29.2444 15.3101 29.1634 15.108 29.1651L15.108 41.7215C15.3113 41.7232 15.5152 41.6412 15.6557 41.4749L20.4288 35.8271C20.5284 35.7092 20.5826 35.5622 20.5822 35.4109C20.5817 35.2595 20.5268 35.1129 20.4265 34.9955L15.6534 29.4089Z" fill="#D3003C"/>
<path d="M69.0599 34.7191C69.0599 34.7191 72.4508 33.6201 73.0479 33.6201C73.6451 33.6201 74.1356 34.1158 74.1356 34.7191C74.1356 35.3333 73.6558 35.8182 73.0479 35.8182C72.4401 35.8182 69.0599 34.7191 69.0599 34.7191Z" fill="#131F67"/>
<path d="M77.6966 30.3467C78.5686 33.0893 80.1338 35.5664 81.4876 37.3623C82.1771 38.2769 82.8138 39.018 83.2776 39.5303C83.5094 39.7863 83.6981 39.9857 83.8294 40.1211C83.8613 40.154 83.8904 40.1827 83.9153 40.208C83.9055 40.2222 83.8953 40.2378 83.8841 40.2539C83.8025 40.3707 83.6827 40.5386 83.5315 40.7412C83.2289 41.1468 82.8005 41.6909 82.2962 42.2461C81.7912 42.802 81.2133 43.3652 80.6136 43.8115C80.0112 44.2598 79.4016 44.5788 78.8313 44.667L78.6526 44.6943L78.6595 44.874C78.7482 47.3039 78.9358 52.3961 78.9358 53.0312C78.9358 54.1935 78.5464 55.1371 77.762 55.8584H77.761C76.7415 56.7961 75.0978 57.2871 72.7386 57.2871C71.3374 57.2871 69.7002 57.1095 67.803 56.7627V56.7617L67.7932 56.7607L67.2522 56.6816C61.8021 55.794 57.3692 52.5021 55.7102 50.8438L56.6223 48.3965C56.9526 48.8523 57.6367 49.6702 58.8069 50.5645L58.8098 50.5664C60.2121 51.5994 64.031 53.7991 68.1507 54.375V54.376C73.932 55.4338 75.7898 54.5065 76.3626 53.9902C76.5417 53.828 76.6454 53.6602 76.7014 53.4844C76.7559 53.3135 76.761 53.1456 76.761 52.9971C76.761 52.7127 76.7144 51.2507 76.6507 49.4336L76.4397 43.7363L76.4016 42.6289L77.4046 42.4961C78.8896 42.2976 80.1631 41.5603 81.2542 40.2578L81.3772 40.1113L81.2376 39.9805C79.5843 38.4353 76.509 35.0456 75.344 30.3467H77.6966ZM74.596 48.5674L70.8216 47.2363L74.596 45.9053V48.5674Z" fill="#282828" stroke="black" stroke-width="0.405063"/>
<path d="M59.6216 30.1553C59.7435 33.8499 59.5663 40.79 57.1855 47.9548L56.0892 50.897C55.6795 51.8515 55.2366 52.7949 54.7493 53.7382C51.2501 60.566 44.7611 59.8136 41.5498 57.4777C38.0285 54.9061 36.0463 47.9435 40.8522 42.9911C40.8522 42.9911 41.8377 44.7542 43.7091 44.6082C46.4111 44.3949 48.5925 37.8141 48.5925 30.1553H59.6216Z" fill="#D3003C"/>
<path d="M45.4549 15.5566C47.3816 13.4453 50.4268 13.4004 52.42 15.4667C52.5751 15.6352 52.6747 15.8598 52.8076 16.0507C53.5495 13.6587 54.8783 12.1876 57.1152 11.8844C59.3188 11.5812 60.9687 12.6031 62.1536 14.6694C62.7405 12.1988 64.1247 10.6715 66.4722 10.3908C68.6648 10.1213 70.2925 11.1432 71.4442 13.1983C71.6103 12.8614 71.7432 12.5694 71.8982 12.2999C73.2934 9.76192 76.4494 8.95336 78.7637 10.5256C81.1556 12.1539 81.7646 15.5004 80.1368 17.9598C79.9375 18.2518 79.7935 18.6111 79.7271 18.9705C79.2067 21.6657 78.7084 24.4844 78.2211 27.1796C78.1436 27.5839 77.9886 27.7186 77.5899 27.7186C72.4445 27.7125 67.299 27.7098 62.1536 27.7102C57.787 27.7107 53.4203 27.7135 49.0537 27.7186C48.6219 27.7186 48.3782 27.5726 48.2011 27.1683C47.9575 26.6068 47.6585 25.9555 47.4038 25.394C46.9719 24.4732 46.4515 23.6758 45.6985 22.9683C43.5724 20.9919 43.517 17.679 45.4549 15.5566Z" fill="#E2CF00"/>
<path d="M52.42 15.4668C50.4268 13.4005 47.3816 13.4455 45.4549 15.5567C43.517 17.6791 43.5724 20.992 45.6985 22.9685C46.4515 23.6759 46.9719 24.4733 47.4038 25.3941C47.6585 25.9556 47.9575 26.607 48.2011 27.1685C48.3782 27.5727 48.6219 27.7187 49.0537 27.7187C53.4203 27.7136 57.787 27.7108 62.1536 27.7104V14.6695C60.9687 12.6032 59.3188 11.5813 57.1152 11.8845C54.8783 12.1877 53.5495 13.6588 52.8076 16.0508C52.6747 15.8599 52.5751 15.6353 52.42 15.4668Z" fill="#FCE80C"/>
</g>
<rect x="0.994245" y="0.260114" width="87.7836" height="63.4798" rx="4.60064" stroke="#E0E4F0" stroke-width="0.520228"/>
<defs>
<linearGradient id="paint0_linear_436_4141" x1="97.0398" y1="1.20087" x2="65.4654" y2="89.9452" gradientUnits="userSpaceOnUse">
<stop stop-color="#F1F6F7"/>
<stop offset="1" stop-color="#E3E8E9"/>
</linearGradient>
<clipPath id="clip0_436_4141">
<rect x="0.734131" width="88.3038" height="64" rx="4.86076" fill="white"/>
</clipPath>
</defs>
</svg>
