<svg width="57" height="57" viewBox="0 0 57 57" fill="none" xmlns="http://www.w3.org/2000/svg">
<g filter="url(#filter0_d_1045_10284)">
<path d="M47.4184 28.4336C47.4184 29.875 50.8004 31.2883 50.5402 32.6524C49.5896 37.6362 46.98 42.1515 43.1363 45.4633C42.3137 46.177 39.1988 44.0177 38.2778 44.6055C36.823 45.5343 37.4959 49.1118 35.8379 49.6891C31.0414 51.3485 25.8266 51.3485 21.0301 49.6891C19.422 49.1266 20.0078 45.497 18.5903 44.6055C17.622 43.9966 14.5937 46.2114 13.7317 45.4633C9.88795 42.1515 7.27839 37.6362 6.32775 32.6524C6.0676 31.2883 9.44963 29.875 9.44963 28.4336C9.44963 26.9922 6.0676 25.5789 6.32775 24.2149C7.27839 19.231 9.88795 14.7157 13.7317 11.4039C14.7997 10.4772 16.4809 13.668 19.2934 12.2617C21.561 11.1276 19.6843 7.64642 21.0301 7.17814C25.8266 5.51875 31.0414 5.51875 35.8379 7.17814C37.1837 7.64642 37.0635 11.5586 38.2778 12.2617C39.5068 12.9733 42.0683 10.4772 43.1363 11.4039C46.98 14.7157 49.5896 19.231 50.5402 24.2149C50.8004 25.5789 47.4184 26.9922 47.4184 28.4336Z" fill="#D2166A"/>
<path d="M41.7934 31.2463H45.07C44.6512 33.7557 43.6652 36.1365 42.1872 38.2072L39.8668 35.8939L35.8942 39.8666L38.2075 42.1869C36.1367 43.665 33.756 44.651 31.2465 45.0697V41.7932H25.6215V45.0697C23.1121 44.651 20.7313 43.665 18.6606 42.1869L20.9739 39.8666L17.0012 35.8939L14.6809 38.2072C13.2028 36.1365 12.2169 33.7557 11.7981 31.2463H15.0747V25.6213H11.7981C12.2169 23.1119 13.2028 20.7311 14.6809 18.6604L17.0012 20.9736L20.9739 17.001L18.6606 14.6807C20.7313 13.2026 23.1121 12.2166 25.6215 11.7979V15.0744H31.2465V11.7979C33.756 12.2166 36.1367 13.2026 38.2075 14.6807L35.8942 17.001L39.8668 20.9736L42.1872 18.6604C43.6652 20.7311 44.6512 23.1119 45.07 25.6213H41.7934V31.2463ZM50.934 28.4338C50.9356 29.8493 50.8038 31.2618 50.5403 32.6525H48.1215C47.7489 32.6514 47.3919 32.5029 47.1284 32.2394C46.8649 31.9759 46.7164 31.6189 46.7153 31.2463V25.6213C46.7164 25.2487 46.8649 24.8916 47.1284 24.6281C47.3919 24.3647 47.7489 24.2162 48.1215 24.215H50.5403C50.8038 25.6058 50.9356 27.0183 50.934 28.4338Z" fill="white"/>
<path d="M31.2466 11.7977V15.0742H25.6216V11.7977C25.6427 11.7906 26.7325 11.643 26.8521 11.6359C27.0419 11.6148 28.0966 11.5586 28.4341 11.5586C28.7716 11.5586 30.2552 11.657 30.3747 11.6711C30.5083 11.6852 31.2255 11.7906 31.2466 11.7977ZM20.9739 17.0008L17.0013 20.9734L14.681 18.6602C14.7091 18.618 15.7286 17.3242 15.8833 17.1555C16.0802 16.9305 16.2911 16.7125 16.5021 16.5016C16.713 16.2906 16.931 16.0797 17.156 15.8828C17.3247 15.7281 18.6185 14.7086 18.6606 14.6805L20.9739 17.0008ZM15.0747 25.6211V31.2461H11.7981C11.7911 31.225 11.6013 29.6289 11.5872 29.432C11.5661 29.1016 11.5591 28.7711 11.5591 28.4336C11.5591 28.0961 11.5661 27.7656 11.5872 27.4352C11.6013 27.2383 11.7911 25.6422 11.7981 25.6211H15.0747ZM20.9739 39.8664L18.6606 42.1867C18.6185 42.1586 17.3247 41.1391 17.156 40.9844C16.931 40.7875 16.713 40.5766 16.5021 40.3656C16.2911 40.1547 16.0802 39.9367 15.8833 39.7117C15.7286 39.543 14.7091 38.2492 14.681 38.207L17.0013 35.8938L20.9739 39.8664ZM31.2466 41.793V45.0695C31.2255 45.0766 29.6294 45.2664 29.4325 45.2805C29.102 45.3016 28.7716 45.3086 28.4341 45.3086C28.0966 45.3086 27.7661 45.3016 27.4356 45.2805C27.2388 45.2664 25.6427 45.0766 25.6216 45.0695V41.793H31.2466ZM42.1872 38.207C42.1591 38.2492 41.1395 39.543 40.9849 39.7117C40.788 39.9367 40.5771 40.1547 40.3661 40.3656C40.1552 40.5766 39.9372 40.7875 39.7122 40.9844C39.5435 41.1391 38.2497 42.1586 38.2075 42.1867L35.8942 39.8664L39.8669 35.8938L42.1872 38.207ZM45.3091 28.4336C45.3091 28.7711 45.3021 29.1016 45.281 29.432C45.2669 29.6289 45.077 31.225 45.07 31.2461H41.7935V25.6211H45.07C45.077 25.6422 45.1825 26.3594 45.1966 26.493C45.2106 26.6125 45.3091 28.0961 45.3091 28.4336ZM42.1872 18.6602L39.8669 20.9734L35.8942 17.0008L38.2075 14.6805C38.2497 14.7086 39.5435 15.7281 39.7122 15.8828C39.9372 16.0797 40.1552 16.2906 40.3661 16.5016C40.5771 16.7125 40.788 16.9305 40.9849 17.1555C41.1395 17.3242 42.1591 18.618 42.1872 18.6602Z" fill="#D2166A"/>
<path d="M28.4341 43.1992C36.5889 43.1992 43.1997 36.5884 43.1997 28.4336C43.1997 20.2788 36.5889 13.668 28.4341 13.668C20.2793 13.668 13.6685 20.2788 13.6685 28.4336C13.6685 36.5884 20.2793 43.1992 28.4341 43.1992Z" fill="#D2166A"/>
<path d="M43.1364 11.4035L41.934 13.4918C41.8416 13.6523 41.7183 13.793 41.5713 13.9058C41.4243 14.0186 41.2565 14.1012 41.0774 14.1489C40.8984 14.1966 40.7117 14.2084 40.5281 14.1837C40.3445 14.1591 40.1675 14.0983 40.0075 14.0051L35.1418 11.1926C34.9816 11.1007 34.8411 10.9782 34.7282 10.832C34.6154 10.6858 34.5324 10.5188 34.4841 10.3406C34.4358 10.1623 34.4231 9.97631 34.4467 9.79315C34.4702 9.60998 34.5297 9.43325 34.6215 9.27305L35.8379 7.17773C38.5171 8.10997 40.994 9.54414 43.1364 11.4035ZM21.7262 11.1926L16.8606 14.0051C16.7005 14.0983 16.5236 14.1591 16.34 14.1837C16.1563 14.2084 15.9697 14.1966 15.7906 14.1489C15.6116 14.1012 15.4438 14.0186 15.2968 13.9058C15.1498 13.793 15.0265 13.6523 14.934 13.4918L13.7317 11.4035C15.874 9.54414 18.351 8.10997 21.0301 7.17773L22.2465 9.27305C22.3384 9.43325 22.3978 9.60998 22.4214 9.79315C22.445 9.97631 22.4323 10.1623 22.3839 10.3406C22.3356 10.5188 22.2527 10.6858 22.1398 10.832C22.027 10.9782 21.8864 11.1007 21.7262 11.1926Z" fill="white"/>
<path d="M28.4341 42.4961C36.2006 42.4961 42.4966 36.2001 42.4966 28.4336C42.4966 20.6671 36.2006 14.3711 28.4341 14.3711C20.6676 14.3711 14.3716 20.6671 14.3716 28.4336C14.3716 36.2001 20.6676 42.4961 28.4341 42.4961Z" fill="white"/>
<path d="M28.6869 37.8338C33.7394 37.8338 37.8353 33.738 37.8353 28.6855C37.8353 23.633 33.7394 19.5371 28.6869 19.5371C23.6344 19.5371 19.5386 23.633 19.5386 28.6855C19.5386 33.738 23.6344 37.8338 28.6869 37.8338Z" fill="#D2166A"/>
<path d="M10.1528 25.6211V31.2461C10.1517 31.6187 10.0032 31.9758 9.73972 32.2392C9.47624 32.5027 9.1192 32.6512 8.74658 32.6523H6.32783C5.80283 29.8643 5.80283 27.0028 6.32783 24.2148H8.74658C9.1192 24.216 9.47624 24.3645 9.73972 24.628C10.0032 24.8914 10.1517 25.2485 10.1528 25.6211ZM22.2466 47.5938L21.0302 49.6891C18.351 48.7568 15.8741 47.3227 13.7317 45.4633L14.9341 43.375C15.0265 43.2144 15.1498 43.0737 15.2968 42.961C15.4438 42.8482 15.6117 42.7656 15.7907 42.7179C15.9697 42.6702 16.1564 42.6584 16.34 42.6831C16.5236 42.7077 16.7006 42.7684 16.8606 42.8617L21.7263 45.6742C21.8865 45.7661 22.027 45.8886 22.1399 46.0348C22.2527 46.181 22.3357 46.348 22.384 46.5262C22.4323 46.7045 22.445 46.8905 22.4215 47.0737C22.3979 47.2568 22.3385 47.4335 22.2466 47.5938ZM43.1364 45.4633C40.9941 47.3227 38.5171 48.7568 35.838 49.6891L34.6216 47.5938C34.5297 47.4335 34.4703 47.2568 34.4467 47.0737C34.4231 46.8905 34.4359 46.7045 34.4842 46.5262C34.5325 46.348 34.6154 46.181 34.7283 46.0348C34.8411 45.8886 34.9817 45.7661 35.1419 45.6742L40.0075 42.8617C40.1676 42.7684 40.3445 42.7077 40.5281 42.6831C40.7118 42.6584 40.8985 42.6702 41.0775 42.7179C41.2565 42.7656 41.4243 42.8482 41.5713 42.961C41.7183 43.0737 41.8416 43.2144 41.9341 43.375L43.1364 45.4633Z" fill="white"/>
<path d="M50.934 28.4334C50.9333 32.6132 49.7686 36.7102 47.5703 40.2652C45.3721 43.8202 42.2271 46.6927 38.4881 48.5608C34.749 50.4289 30.5635 51.2187 26.4008 50.8417C22.238 50.4647 18.2626 48.9358 14.9199 46.4264C19.9831 48.5158 25.6345 48.6871 30.815 46.9083C35.9955 45.1294 40.3495 41.5225 43.0611 36.7634C45.7727 32.0043 46.6557 26.4197 45.5448 21.0562C44.4338 15.6927 41.4051 10.9184 37.0262 7.62793C41.1419 9.33193 44.66 12.218 47.1355 15.9214C49.6111 19.6247 50.9329 23.9789 50.934 28.4334Z" fill="black" fill-opacity="0.12549"/>
</g>
<defs>
<filter id="filter0_d_1045_10284" x="1.62125e-05" y="-0.000472069" width="56.8681" height="56.8681" filterUnits="userSpaceOnUse" color-interpolation-filters="sRGB">
<feFlood flood-opacity="0" result="BackgroundImageFix"/>
<feColorMatrix in="SourceAlpha" type="matrix" values="0 0 0 0 0 0 0 0 0 0 0 0 0 0 0 0 0 0 127 0" result="hardAlpha"/>
<feOffset/>
<feGaussianBlur stdDeviation="2.96703"/>
<feComposite in2="hardAlpha" operator="out"/>
<feColorMatrix type="matrix" values="0 0 0 0 1 0 0 0 0 1 0 0 0 0 1 0 0 0 0.5 0"/>
<feBlend mode="normal" in2="BackgroundImageFix" result="effect1_dropShadow_1045_10284"/>
<feBlend mode="normal" in="SourceGraphic" in2="effect1_dropShadow_1045_10284" result="shape"/>
</filter>
</defs>
</svg>
