<?xml version="1.0" encoding="utf-8" ?><svg xmlns="http://www.w3.org/2000/svg" xmlns:xlink="http://www.w3.org/1999/xlink" width="88" height="64" viewBox="0 0 88 64"><path fill="#32393E" transform="scale(0.0743243 0.0740741)" d="M591.705 102.751L592.431 102.522C638.417 154.242 685.118 205.322 732.52 255.747L783.042 310.516C807.196 336.539 830.71 359.924 848.357 391.23C868.104 426.261 879.528 464.515 877.374 504.828C875.25 544.59 859.509 584.647 829.35 611.112C801.831 635.26 767.996 646.996 731.588 643.999C692.964 640.821 656.017 620.185 630.683 591.695C628.012 588.677 625.36 585.643 622.727 582.593C629.616 643.687 659.286 704.869 707.759 743.562C716.484 750.494 725.715 756.764 735.375 762.319C719.035 763.04 700.487 762.636 683.927 762.648L592.029 762.613C556.327 763.019 520.486 762.395 484.771 762.571C473.305 762.627 461.444 762.692 449.997 762.207C458.415 756.998 469.449 749.477 477.141 743.291C525.78 704.173 554.33 643.383 561.452 582.22C555.048 589.591 548.455 597.238 541.241 603.832C517.408 625.416 487.155 640.744 455.043 643.835C375.021 651.536 312.636 590.027 306.952 511.176C304.448 471.661 313.174 432.243 332.122 397.48C349.599 365.095 369.903 343.828 394.381 317.429L435.918 272.663C487.369 217.092 542.336 159.829 591.705 102.751Z"/><path fill="#585F64" transform="scale(0.0743243 0.0740741)" d="M561.452 582.22C555.048 589.591 548.455 597.238 541.241 603.832C517.408 625.416 487.155 640.744 455.043 643.835C375.021 651.536 312.636 590.027 306.952 511.176C304.448 471.661 313.174 432.243 332.122 397.48C349.599 365.095 369.903 343.828 394.381 317.429L435.918 272.663C487.369 217.092 542.336 159.829 591.705 102.751C592.959 161.17 591.813 223.881 591.753 282.582L591.803 578.104L591.71 696.897C591.709 717.498 591.141 742.318 592.029 762.613C556.327 763.019 520.486 762.395 484.771 762.571C473.305 762.627 461.444 762.692 449.997 762.207C458.415 756.998 469.449 749.477 477.141 743.291C525.78 704.173 554.33 643.383 561.452 582.22Z"/></svg>